LHF Matthews Thin.ufo
<glyph name="exclam" format="1">
  <advance width="122"/>
  <unicode hex="0021"/>
  <outline>
    <contour>
      <point x="90" y="576" type="qcurve" smooth="yes"/>
      <point x="58" y="124" type="line" smooth="yes"/>
      <point x="57" y="114"/>
      <point x="39" y="114"/>
      <point x="37" y="125" type="qcurve"/>
      <point x="5" y="576" type="line" smooth="yes"/>
      <point x="2" y="614"/>
      <point x="49" y="614" type="qcurve" smooth="yes"/>
      <point x="93" y="614"/>
    </contour>
    <contour>
      <point x="0" y="38" type="qcurve" smooth="yes"/>
      <point x="0" y="59"/>
      <point x="14" y="70" type="qcurve"/>
      <point x="27" y="84"/>
      <point x="46" y="84" type="qcurve" smooth="yes"/>
      <point x="67" y="84"/>
      <point x="78" y="70" type="qcurve"/>
      <point x="92" y="59"/>
      <point x="92" y="17"/>
      <point x="78" y="6" type="qcurve"/>
      <point x="67" y="-8"/>
      <point x="25" y="-8"/>
      <point x="14" y="6" type="qcurve"/>
      <point x="0" y="19"/>
    </contour>
  </outline>
</glyph>
<glyph name="quotedbl" format="1">
  <advance width="157"/>
  <unicode hex="0022"/>
  <outline>
    <contour>
      <point x="0" y="599" type="line"/>
      <point x="50" y="599" type="line"/>
      <point x="50" y="478" type="line"/>
      <point x="0" y="478" type="line"/>
    </contour>
    <contour>
      <point x="77" y="599" type="line"/>
      <point x="127" y="599" type="line"/>
      <point x="127" y="478" type="line"/>
      <point x="77" y="478" type="line"/>
    </contour>
  </outline>
</glyph>
<glyph name="numbersign" format="1">
  <advance width="570"/>
  <unicode hex="0023"/>
  <outline>
    <contour>
      <point x="13" y="21" type="line"/>
      <point x="13" y="579" type="line"/>
      <point x="0" y="599" type="line"/>
      <point x="88" y="599" type="line"/>
      <point x="210" y="245" type="line"/>
      <point x="210" y="579" type="line"/>
      <point x="197" y="599" type="line"/>
      <point x="252" y="599" type="line"/>
      <point x="239" y="579" type="line"/>
      <point x="239" y="0" type="line"/>
      <point x="210" y="0" type="line"/>
      <point x="42" y="480" type="line"/>
      <point x="42" y="21" type="line"/>
      <point x="55" y="0" type="line"/>
      <point x="0" y="0" type="line"/>
    </contour>
    <contour>
      <point x="342" y="164"/>
      <point x="307" y="217" type="qcurve" smooth="yes"/>
      <point x="266" y="279"/>
      <point x="266" y="387" type="qcurve" smooth="yes"/>
      <point x="266" y="496"/>
      <point x="306" y="557" type="qcurve" smooth="yes"/>
      <point x="341" y="610"/>
      <point x="388" y="610" type="qcurve" smooth="yes"/>
      <point x="434" y="610"/>
      <point x="469" y="557" type="qcurve" smooth="yes"/>
      <point x="509" y="496"/>
      <point x="509" y="278"/>
      <point x="469" y="217" type="qcurve" smooth="yes"/>
      <point x="434" y="164"/>
    </contour>
    <contour>
      <point x="335" y="592"/>
      <point x="335" y="180"/>
      <point x="439" y="180"/>
      <point x="439" y="592"/>
    </contour>
    <contour>
      <point x="332" y="43" type="qcurve" smooth="yes"/>
      <point x="332" y="64"/>
      <point x="346" y="77" type="qcurve"/>
      <point x="358" y="91"/>
      <point x="379" y="91" type="qcurve" smooth="yes"/>
      <point x="399" y="91"/>
      <point x="427" y="63"/>
      <point x="427" y="43" type="qcurve" smooth="yes"/>
      <point x="427" y="22"/>
      <point x="413" y="10" type="qcurve"/>
      <point x="400" y="-4"/>
      <point x="379" y="-4" type="qcurve" smooth="yes"/>
      <point x="357" y="-4"/>
      <point x="346" y="10" type="qcurve"/>
      <point x="332" y="21"/>
    </contour>
  </outline>
</glyph>
<glyph name="dollar" format="1">
  <advance width="220"/>
  <unicode hex="0024"/>
  <outline>
    <contour>
      <point x="109" y="355" type="qcurve"/>
      <point x="109" y="242" type="line"/>
      <point x="135" y="259"/>
      <point x="135" y="290" type="qcurve" smooth="yes"/>
      <point x="135" y="317"/>
    </contour>
    <contour>
      <point x="84" y="481" type="qcurve"/>
      <point x="84" y="580" type="line"/>
      <point x="61" y="569"/>
      <point x="61" y="542" type="qcurve" smooth="yes"/>
      <point x="61" y="518"/>
    </contour>
    <contour>
      <point x="109" y="584" type="line"/>
      <point x="109" y="447" type="line"/>
      <point x="145" y="405"/>
      <point x="162" y="384" type="qcurve"/>
      <point x="190" y="346"/>
      <point x="190" y="309" type="qcurve" smooth="yes"/>
      <point x="190" y="279"/>
      <point x="167" y="248" type="qcurve"/>
      <point x="144" y="221"/>
      <point x="109" y="210" type="qcurve"/>
      <point x="109" y="174" type="line"/>
      <point x="84" y="174" type="line"/>
      <point x="84" y="206" type="line"/>
      <point x="48" y="204"/>
      <point x="17" y="223" type="qcurve" smooth="yes"/>
      <point x="15" y="225"/>
      <point x="4" y="225" type="qcurve" smooth="yes"/>
      <point x="0" y="225" type="line"/>
      <point x="15" y="290" type="line"/>
      <point x="19" y="279" type="line" smooth="yes"/>
      <point x="37" y="231"/>
      <point x="84" y="234" type="qcurve"/>
      <point x="84" y="387" type="line"/>
      <point x="36" y="441"/>
      <point x="35" y="443" type="qcurve" smooth="yes"/>
      <point x="10" y="477"/>
      <point x="5" y="510" type="qcurve"/>
      <point x="1" y="547"/>
      <point x="25" y="575" type="qcurve"/>
      <point x="48" y="598"/>
      <point x="84" y="604" type="qcurve"/>
      <point x="84" y="637" type="line"/>
      <point x="109" y="637" type="line"/>
      <point x="109" y="606" type="line"/>
      <point x="133" y="605"/>
      <point x="156" y="593" type="qcurve" smooth="yes"/>
      <point x="161" y="590"/>
      <point x="172" y="588" type="qcurve"/>
      <point x="177" y="586" type="line"/>
      <point x="148" y="551" type="line"/>
      <point x="146" y="556" type="line"/>
      <point x="140" y="566"/>
      <point x="137" y="569" type="qcurve" smooth="yes"/>
      <point x="127" y="582"/>
      <point x="112" y="584" type="qcurve"/>
    </contour>
  </outline>
</glyph>
<glyph name="percent" format="1">
  <advance width="542"/>
  <unicode hex="0025"/>
  <outline>
    <contour>
      <point x="55" y="615"/>
      <point x="141" y="615"/>
      <point x="141" y="255"/>
      <point x="55" y="255"/>
    </contour>
    <contour>
      <point x="136" y="630"/>
      <point x="164" y="584" type="qcurve" smooth="yes"/>
      <point x="197" y="531"/>
      <point x="197" y="436" type="qcurve" smooth="yes"/>
      <point x="197" y="342"/>
      <point x="164" y="288" type="qcurve" smooth="yes"/>
      <point x="136" y="243"/>
      <point x="98" y="243" type="qcurve" smooth="yes"/>
      <point x="60" y="243"/>
      <point x="33" y="289" type="qcurve" smooth="yes"/>
      <point x="0" y="343"/>
      <point x="0" y="436" type="qcurve" smooth="yes"/>
      <point x="0" y="530"/>
      <point x="33" y="584" type="qcurve" smooth="yes"/>
      <point x="60" y="630"/>
    </contour>
    <contour>
      <point x="354" y="655" type="line"/>
      <point x="387" y="655" type="line"/>
      <point x="151" y="-62" type="line"/>
      <point x="118" y="-62" type="line"/>
    </contour>
    <contour>
      <point x="370" y="344"/>
      <point x="456" y="344"/>
      <point x="456" y="-16"/>
      <point x="370" y="-16"/>
    </contour>
    <contour>
      <point x="452" y="359"/>
      <point x="479" y="313" type="qcurve" smooth="yes"/>
      <point x="512" y="259"/>
      <point x="512" y="71"/>
      <point x="479" y="17" type="qcurve" smooth="yes"/>
      <point x="452" y="-29"/>
      <point x="376" y="-29"/>
      <point x="348" y="17" type="qcurve" smooth="yes"/>
      <point x="315" y="71"/>
      <point x="315" y="259"/>
      <point x="348" y="313" type="qcurve" smooth="yes"/>
      <point x="376" y="359"/>
    </contour>
  </outline>
</glyph>
<glyph name="ampersand" format="1">
  <advance width="532"/>
  <unicode hex="0026"/>
  <outline>
    <contour>
      <point x="205" y="-13" type="qcurve" smooth="yes"/>
      <point x="113" y="-13"/>
      <point x="55" y="63" type="qcurve"/>
      <point x="0" y="133"/>
      <point x="0" y="226" type="qcurve" smooth="yes"/>
      <point x="0" y="296"/>
      <point x="33" y="346" type="qcurve" smooth="yes"/>
      <point x="69" y="402"/>
      <point x="133" y="418" type="qcurve"/>
      <point x="52" y="452"/>
      <point x="52" y="514" type="qcurve" smooth="yes"/>
      <point x="52" y="578"/>
      <point x="126" y="601" type="qcurve" smooth="yes"/>
      <point x="153" y="610"/>
      <point x="185" y="610" type="qcurve" smooth="yes"/>
      <point x="206" y="610"/>
      <point x="227" y="604" type="qcurve" smooth="yes"/>
      <point x="245" y="599"/>
      <point x="268" y="593" type="qcurve" smooth="yes"/>
      <point x="270" y="592"/>
      <point x="277" y="592" type="qcurve"/>
      <point x="255" y="558" type="line"/>
      <point x="234" y="588"/>
      <point x="193" y="588" type="qcurve" smooth="yes"/>
      <point x="127" y="588"/>
      <point x="127" y="522" type="qcurve" smooth="yes"/>
      <point x="127" y="485"/>
      <point x="177" y="429"/>
      <point x="214" y="429" type="qcurve" smooth="yes"/>
      <point x="238" y="429" type="line" smooth="yes"/>
      <point x="247" y="429"/>
      <point x="260" y="434" type="qcurve"/>
      <point x="260" y="398" type="line"/>
      <point x="246" y="404"/>
      <point x="224" y="404" type="qcurve" smooth="yes"/>
      <point x="212" y="404" type="line"/>
      <point x="207" y="403"/>
      <point x="200" y="403" type="qcurve" smooth="yes"/>
      <point x="140" y="403"/>
      <point x="112" y="337" type="qcurve" smooth="yes"/>
      <point x="89" y="285"/>
      <point x="89" y="218" type="qcurve" smooth="yes"/>
      <point x="89" y="146"/>
      <point x="114" y="87" type="qcurve" smooth="yes"/>
      <point x="147" y="9"/>
      <point x="208" y="9" type="qcurve" smooth="yes"/>
      <point x="251" y="9"/>
      <point x="281" y="92" type="qcurve" smooth="yes"/>
      <point x="305" y="160"/>
      <point x="305" y="213" type="qcurve" smooth="yes"/>
      <point x="305" y="248"/>
      <point x="293" y="283" type="qcurve" smooth="yes"/>
      <point x="277" y="329"/>
      <point x="248" y="329" type="qcurve" smooth="yes"/>
      <point x="207" y="329"/>
      <point x="207" y="285" type="qcurve" smooth="yes"/>
      <point x="207" y="260"/>
      <point x="232" y="245" type="qcurve"/>
      <point x="211" y="221"/>
      <point x="193" y="221" type="qcurve" smooth="yes"/>
      <point x="178" y="221"/>
      <point x="167" y="236" type="qcurve" smooth="yes"/>
      <point x="157" y="250"/>
      <point x="157" y="269" type="qcurve" smooth="yes"/>
      <point x="157" y="344"/>
      <point x="241" y="354" type="qcurve"/>
      <point x="300" y="358"/>
      <point x="327" y="359" type="qcurve"/>
      <point x="384" y="364"/>
      <point x="414" y="380" type="qcurve" smooth="yes"/>
      <point x="455" y="403"/>
      <point x="458" y="448" type="qcurve"/>
      <point x="502" y="446"/>
      <point x="502" y="416" type="qcurve" smooth="yes"/>
      <point x="502" y="372"/>
      <point x="439" y="353" type="qcurve"/>
      <point x="394" y="338"/>
      <point x="341" y="340" type="qcurve"/>
      <point x="379" y="311"/>
      <point x="379" y="219" type="qcurve" smooth="yes"/>
      <point x="379" y="132"/>
      <point x="336" y="65" type="qcurve" smooth="yes"/>
      <point x="287" y="-13"/>
    </contour>
  </outline>
</glyph>
<glyph name="quotesingle" format="1">
  <advance width="125"/>
  <unicode hex="0027"/>
  <outline>
    <contour>
      <point x="15" y="599" type="line"/>
      <point x="84" y="599" type="line"/>
      <point x="84" y="522" type="line" smooth="yes"/>
      <point x="84" y="492"/>
      <point x="69" y="465" type="qcurve" smooth="yes"/>
      <point x="53" y="434"/>
      <point x="28" y="434" type="qcurve"/>
      <point x="28" y="441" type="line"/>
      <point x="44" y="457"/>
      <point x="44" y="490" type="qcurve" smooth="yes"/>
      <point x="44" y="522"/>
      <point x="25" y="522" type="qcurve" smooth="yes"/>
      <point x="15" y="522" type="line"/>
    </contour>
  </outline>
</glyph>
<glyph name="parenleft" format="1">
  <advance width="187"/>
  <unicode hex="0028"/>
  <outline>
    <contour>
      <point x="120" y="674" type="qcurve"/>
      <point x="157" y="674" type="line"/>
      <point x="56" y="505"/>
      <point x="56" y="297" type="qcurve" smooth="yes"/>
      <point x="56" y="94"/>
      <point x="157" y="-82" type="qcurve"/>
      <point x="120" y="-82" type="line"/>
      <point x="63" y="-17"/>
      <point x="32" y="84" type="qcurve" smooth="yes"/>
      <point x="0" y="188"/>
      <point x="0" y="300" type="qcurve" smooth="yes"/>
      <point x="0" y="530"/>
    </contour>
  </outline>
</glyph>
<glyph name="parenright" format="1">
  <advance width="187"/>
  <unicode hex="0029"/>
  <outline>
    <contour>
      <point x="37" y="674" type="qcurve"/>
      <point x="0" y="674" type="line"/>
      <point x="100" y="507"/>
      <point x="100" y="297" type="qcurve" smooth="yes"/>
      <point x="100" y="93"/>
      <point x="0" y="-82" type="qcurve"/>
      <point x="37" y="-82" type="line"/>
      <point x="94" y="-17"/>
      <point x="125" y="84" type="qcurve" smooth="yes"/>
      <point x="157" y="188"/>
      <point x="157" y="300" type="qcurve" smooth="yes"/>
      <point x="157" y="530"/>
    </contour>
  </outline>
</glyph>
<glyph name="asterisk" format="1">
  <advance width="176"/>
  <unicode hex="002A"/>
  <outline>
    <contour>
      <point x="58" y="608" type="line"/>
      <point x="86" y="608" type="line"/>
      <point x="86" y="559" type="line"/>
      <point x="129" y="580" type="line"/>
      <point x="143" y="557" type="line"/>
      <point x="100" y="534" type="line"/>
      <point x="146" y="513" type="line"/>
      <point x="134" y="488" type="line"/>
      <point x="86" y="513" type="line"/>
      <point x="86" y="459" type="line"/>
      <point x="58" y="459" type="line"/>
      <point x="58" y="513" type="line"/>
      <point x="12" y="489" type="line"/>
      <point x="0" y="513" type="line"/>
      <point x="41" y="536" type="line"/>
      <point x="0" y="557" type="line"/>
      <point x="12" y="580" type="line"/>
      <point x="58" y="557" type="line"/>
    </contour>
  </outline>
</glyph>
<glyph name="plus" format="1">
  <advance width="316"/>
  <unicode hex="002B"/>
  <outline>
    <contour>
      <point x="166" y="288" type="line"/>
      <point x="166" y="167" type="line"/>
      <point x="120" y="167" type="line"/>
      <point x="120" y="288" type="line"/>
      <point x="0" y="288" type="line"/>
      <point x="0" y="330" type="line"/>
      <point x="120" y="330" type="line"/>
      <point x="120" y="452" type="line"/>
      <point x="166" y="452" type="line"/>
      <point x="166" y="330" type="line"/>
      <point x="286" y="330" type="line"/>
      <point x="286" y="288" type="line"/>
    </contour>
  </outline>
</glyph>
<glyph name="comma" format="1">
  <advance width="120"/>
  <unicode hex="002C"/>
  <outline>
    <contour>
      <point x="42" y="77" type="line"/>
      <point x="111" y="77" type="line"/>
      <point x="111" y="0" type="line" smooth="yes"/>
      <point x="111" y="-29"/>
      <point x="96" y="-56" type="qcurve" smooth="yes"/>
      <point x="80" y="-87"/>
      <point x="55" y="-87" type="qcurve"/>
      <point x="55" y="-81" type="line"/>
      <point x="71" y="-65"/>
      <point x="71" y="-31" type="qcurve" smooth="yes"/>
      <point x="71" y="0"/>
      <point x="52" y="0" type="qcurve" smooth="yes"/>
      <point x="42" y="0" type="line"/>
    </contour>
  </outline>
</glyph>
<glyph name="hyphen" format="1">
  <advance width="195"/>
  <unicode hex="002D"/>
  <outline>
    <contour>
      <point x="0" y="261" type="line"/>
      <point x="164" y="261" type="line"/>
      <point x="164" y="209" type="line"/>
      <point x="0" y="209" type="line"/>
    </contour>
  </outline>
</glyph>
<glyph name="period" format="1">
  <advance width="124"/>
  <unicode hex="002E"/>
  <outline>
    <contour>
      <point x="22" y="92" type="line"/>
      <point x="94" y="92" type="line"/>
      <point x="94" y="0" type="line"/>
      <point x="22" y="0" type="line"/>
    </contour>
  </outline>
</glyph>
<glyph name="slash" format="1">
  <advance width="299"/>
  <unicode hex="002F"/>
  <outline>
    <contour>
      <point x="235" y="654" type="line"/>
      <point x="269" y="654" type="line"/>
      <point x="32" y="-63" type="line"/>
      <point x="0" y="-63" type="line"/>
    </contour>
  </outline>
</glyph>
<glyph name="one" format="1">
  <advance width="146"/>
  <unicode hex="0031"/>
  <outline>
    <contour>
      <point x="0" y="510" type="line"/>
      <point x="103" y="626" type="line"/>
      <point x="103" y="21" type="line"/>
      <point x="116" y="0" type="line"/>
      <point x="17" y="0" type="line"/>
      <point x="30" y="21" type="line"/>
      <point x="30" y="510" type="line"/>
    </contour>
  </outline>
</glyph>
<glyph name="two" format="1">
  <advance width="288"/>
  <unicode hex="0032"/>
  <outline>
    <contour>
      <point x="245" y="469" type="qcurve"/>
      <point x="240" y="437"/>
      <point x="200" y="350" type="qcurve" smooth="yes"/>
      <point x="143" y="228"/>
      <point x="128" y="188" type="qcurve" smooth="yes"/>
      <point x="90" y="88"/>
      <point x="90" y="22" type="qcurve"/>
      <point x="216" y="22" type="line"/>
      <point x="257" y="34" type="line"/>
      <point x="247" y="0" type="line"/>
      <point x="12" y="1" type="line"/>
      <point x="18" y="136"/>
      <point x="72" y="265" type="qcurve"/>
      <point x="166" y="457" type="line"/>
      <point x="180" y="490"/>
      <point x="180" y="514" type="qcurve" smooth="yes"/>
      <point x="180" y="551"/>
      <point x="154" y="572" type="qcurve"/>
      <point x="128" y="591"/>
      <point x="93" y="586" type="qcurve"/>
      <point x="57" y="582"/>
      <point x="34" y="540" type="qcurve"/>
      <point x="0" y="581" type="line"/>
      <point x="4" y="582"/>
      <point x="20" y="587"/>
      <point x="25" y="589" type="qcurve" smooth="yes"/>
      <point x="65" y="612"/>
      <point x="109" y="612" type="qcurve" smooth="yes"/>
      <point x="169" y="612"/>
      <point x="209" y="575" type="qcurve" smooth="yes"/>
      <point x="253" y="534"/>
    </contour>
  </outline>
</glyph>
<glyph name="three" format="1">
  <advance width="357"/>
  <unicode hex="0033"/>
  <outline>
    <contour>
      <point x="0" y="29" type="line"/>
      <point x="38" y="72" type="line"/>
      <point x="44" y="48"/>
      <point x="66" y="34" type="qcurve"/>
      <point x="89" y="18"/>
      <point x="111" y="17" type="qcurve" smooth="yes"/>
      <point x="170" y="13"/>
      <point x="205" y="66" type="qcurve"/>
      <point x="234" y="113"/>
      <point x="234" y="184" type="qcurve" smooth="yes"/>
      <point x="234" y="253"/>
      <point x="208" y="303" type="qcurve" smooth="yes"/>
      <point x="180" y="357"/>
      <point x="135" y="357" type="qcurve" smooth="yes"/>
      <point x="97" y="357" type="line" smooth="yes"/>
      <point x="90" y="357"/>
      <point x="75" y="352" type="qcurve"/>
      <point x="75" y="388" type="line"/>
      <point x="90" y="383"/>
      <point x="97" y="383" type="qcurve" smooth="yes"/>
      <point x="121" y="383" type="line" smooth="yes"/>
      <point x="158" y="383"/>
      <point x="182" y="418" type="qcurve" smooth="yes"/>
      <point x="203" y="450"/>
      <point x="203" y="493" type="qcurve" smooth="yes"/>
      <point x="203" y="532"/>
      <point x="184" y="558" type="qcurve" smooth="yes"/>
      <point x="164" y="584"/>
      <point x="128" y="584" type="qcurve" smooth="yes"/>
      <point x="64" y="584"/>
      <point x="46" y="547" type="qcurve"/>
      <point x="21" y="590" type="line"/>
      <point x="38" y="588"/>
      <point x="71" y="599" type="qcurve" smooth="yes"/>
      <point x="108" y="611"/>
      <point x="136" y="611" type="qcurve" smooth="yes"/>
      <point x="154" y="611"/>
      <point x="181" y="606" type="qcurve"/>
      <point x="228" y="595"/>
      <point x="253" y="563" type="qcurve" smooth="yes"/>
      <point x="279" y="529"/>
      <point x="279" y="488" type="qcurve" smooth="yes"/>
      <point x="279" y="407"/>
      <point x="202" y="372" type="qcurve"/>
      <point x="262" y="357"/>
      <point x="297" y="306" type="qcurve"/>
      <point x="327" y="260"/>
      <point x="327" y="198" type="qcurve" smooth="yes"/>
      <point x="327" y="124"/>
      <point x="286" y="65" type="qcurve" smooth="yes"/>
      <point x="243" y="3"/>
      <point x="171" y="-8" type="qcurve" smooth="yes"/>
      <point x="146" y="-11"/>
      <point x="126" y="-11" type="qcurve" smooth="yes"/>
      <point x="81" y="-11"/>
      <point x="48" y="5" type="qcurve" smooth="yes"/>
    </contour>
  </outline>
</glyph>
<glyph name="four" format="1">
  <advance width="445"/>
  <unicode hex="0034"/>
  <outline>
    <contour>
      <point x="305" y="243" type="line"/>
      <point x="387" y="243" type="line"/>
      <point x="415" y="249" type="line"/>
      <point x="415" y="214" type="line"/>
      <point x="387" y="221" type="line"/>
      <point x="305" y="221" type="line"/>
      <point x="305" y="21" type="line"/>
      <point x="318" y="1" type="line"/>
      <point x="220" y="1" type="line"/>
      <point x="233" y="21" type="line"/>
      <point x="233" y="221" type="line"/>
      <point x="0" y="221" type="line"/>
      <point x="305" y="666" type="line"/>
    </contour>
    <contour>
      <point x="60" y="243" type="line"/>
      <point x="233" y="243" type="line"/>
      <point x="233" y="490" type="line"/>
    </contour>
  </outline>
</glyph>
<glyph name="five" format="1">
  <advance width="342"/>
  <unicode hex="0035"/>
  <outline>
    <contour>
      <point x="108" y="396" type="line"/>
      <point x="145" y="396"/>
      <point x="177" y="389" type="qcurve" smooth="yes"/>
      <point x="243" y="376"/>
      <point x="279" y="323" type="qcurve" smooth="yes"/>
      <point x="312" y="275"/>
      <point x="312" y="208" type="qcurve" smooth="yes"/>
      <point x="312" y="139"/>
      <point x="277" y="81" type="qcurve" smooth="yes"/>
      <point x="240" y="20"/>
      <point x="176" y="2" type="qcurve" smooth="yes"/>
      <point x="137" y="-9"/>
      <point x="109" y="-9" type="qcurve" smooth="yes"/>
      <point x="80" y="-9"/>
      <point x="48" y="3" type="qcurve" smooth="yes"/>
      <point x="11" y="18"/>
      <point x="0" y="22" type="qcurve"/>
      <point x="38" y="66" type="line"/>
      <point x="48" y="23"/>
      <point x="111" y="18" type="qcurve" smooth="yes"/>
      <point x="172" y="14"/>
      <point x="232" y="112"/>
      <point x="232" y="213" type="qcurve" smooth="yes"/>
      <point x="232" y="318"/>
      <point x="134" y="351" type="qcurve" smooth="yes"/>
      <point x="91" y="365"/>
      <point x="36" y="364" type="qcurve"/>
      <point x="36" y="578" type="line"/>
      <point x="23" y="599" type="line"/>
      <point x="234" y="599" type="line"/>
      <point x="241" y="565" type="line"/>
      <point x="203" y="577" type="line"/>
      <point x="108" y="577" type="line"/>
    </contour>
  </outline>
</glyph>
<glyph name="six" format="1">
  <advance width="320"/>
  <unicode hex="0036"/>
  <outline>
    <contour>
      <point x="89" y="374" type="qcurve" smooth="yes"/>
      <point x="86" y="336"/>
      <point x="86" y="282" type="qcurve" smooth="yes"/>
      <point x="86" y="174"/>
      <point x="99" y="108" type="qcurve"/>
      <point x="115" y="17"/>
      <point x="152" y="17" type="qcurve" smooth="yes"/>
      <point x="174" y="17"/>
      <point x="191" y="62" type="qcurve"/>
      <point x="211" y="120"/>
      <point x="211" y="232" type="qcurve" smooth="yes"/>
      <point x="211" y="328"/>
      <point x="184" y="405" type="qcurve"/>
      <point x="170" y="441"/>
      <point x="141" y="441" type="qcurve" smooth="yes"/>
      <point x="96" y="441"/>
    </contour>
    <contour>
      <point x="290" y="265" type="qcurve" smooth="yes"/>
      <point x="291" y="146"/>
      <point x="250" y="68" type="qcurve"/>
      <point x="213" y="-5"/>
      <point x="156" y="-5" type="qcurve" smooth="yes"/>
      <point x="95" y="-5"/>
      <point x="52" y="68" type="qcurve"/>
      <point x="0" y="153"/>
      <point x="0" y="303" type="qcurve" smooth="yes"/>
      <point x="0" y="452"/>
      <point x="48" y="535" type="qcurve" smooth="yes"/>
      <point x="88" y="606"/>
      <point x="153" y="613" type="qcurve"/>
      <point x="196" y="619"/>
      <point x="237" y="590" type="qcurve" smooth="yes"/>
      <point x="241" y="586"/>
      <point x="258" y="580" type="qcurve"/>
      <point x="227" y="539" type="line"/>
      <point x="192" y="589"/>
      <point x="170" y="588" type="qcurve"/>
      <point x="113" y="588"/>
      <point x="95" y="441" type="qcurve"/>
      <point x="111" y="472"/>
      <point x="161" y="472" type="qcurve" smooth="yes"/>
      <point x="213" y="472"/>
      <point x="247" y="429" type="qcurve" smooth="yes"/>
      <point x="290" y="374"/>
    </contour>
  </outline>
</glyph>
<glyph name="seven" format="1">
  <advance width="241"/>
  <unicode hex="0037"/>
  <outline>
    <contour>
      <point x="87" y="0" type="line"/>
      <point x="15" y="0" type="line"/>
      <point x="132" y="579" type="line"/>
      <point x="40" y="579" type="line"/>
      <point x="0" y="566" type="line"/>
      <point x="9" y="599" type="line"/>
      <point x="210" y="599" type="line"/>
    </contour>
  </outline>
</glyph>
<glyph name="eight" format="1">
  <advance width="379"/>
  <unicode hex="0038"/>
  <outline>
    <contour>
      <point x="176" y="356" type="qcurve" smooth="yes"/>
      <point x="166" y="356" type="line" smooth="yes"/>
      <point x="125" y="356"/>
      <point x="98" y="300" type="qcurve" smooth="yes"/>
      <point x="74" y="248"/>
      <point x="74" y="177" type="qcurve" smooth="yes"/>
      <point x="74" y="110"/>
      <point x="97" y="66" type="qcurve" smooth="yes"/>
      <point x="124" y="16"/>
      <point x="171" y="16" type="qcurve" smooth="yes"/>
      <point x="218" y="16"/>
      <point x="243" y="67" type="qcurve" smooth="yes"/>
      <point x="266" y="113"/>
      <point x="266" y="180" type="qcurve" smooth="yes"/>
      <point x="266" y="250"/>
      <point x="242" y="301" type="qcurve" smooth="yes"/>
      <point x="217" y="356"/>
    </contour>
    <contour>
      <point x="171" y="584" type="qcurve" smooth="yes"/>
      <point x="139" y="584"/>
      <point x="120" y="556" type="qcurve"/>
      <point x="103" y="525"/>
      <point x="103" y="487" type="qcurve" smooth="yes"/>
      <point x="103" y="445"/>
      <point x="121" y="415" type="qcurve" smooth="yes"/>
      <point x="140" y="382"/>
      <point x="171" y="382" type="qcurve" smooth="yes"/>
      <point x="203" y="382"/>
      <point x="222" y="416" type="qcurve" smooth="yes"/>
      <point x="240" y="448"/>
      <point x="240" y="490" type="qcurve" smooth="yes"/>
      <point x="240" y="530"/>
      <point x="224" y="555" type="qcurve"/>
      <point x="204" y="584"/>
    </contour>
    <contour>
      <point x="128" y="0" type="qcurve"/>
      <point x="73" y="13"/>
      <point x="35" y="77" type="qcurve"/>
      <point x="0" y="138"/>
      <point x="0" y="208" type="qcurve" smooth="yes"/>
      <point x="0" y="335"/>
      <point x="104" y="371" type="qcurve"/>
      <point x="29" y="408"/>
      <point x="29" y="486" type="qcurve" smooth="yes"/>
      <point x="29" y="571"/>
      <point x="117" y="599" type="qcurve" smooth="yes"/>
      <point x="171" y="616"/>
      <point x="225" y="599" type="qcurve" smooth="yes"/>
      <point x="313" y="571"/>
      <point x="313" y="486" type="qcurve" smooth="yes"/>
      <point x="313" y="408"/>
      <point x="238" y="371" type="qcurve"/>
      <point x="293" y="352"/>
      <point x="321" y="306" type="qcurve"/>
      <point x="349" y="262"/>
      <point x="349" y="204" type="qcurve" smooth="yes"/>
      <point x="349" y="137"/>
      <point x="313" y="80" type="qcurve" smooth="yes"/>
      <point x="275" y="19"/>
      <point x="214" y="0" type="qcurve"/>
      <point x="176" y="-14"/>
    </contour>
  </outline>
</glyph>
<glyph name="nine" format="1">
  <advance width="314"/>
  <unicode hex="0039"/>
  <outline>
    <contour>
      <point x="191" y="233" type="qcurve"/>
      <point x="198" y="283"/>
      <point x="198" y="366" type="qcurve" smooth="yes"/>
      <point x="198" y="589"/>
      <point x="140" y="589" type="qcurve" smooth="yes"/>
      <point x="80" y="589"/>
      <point x="74" y="374" type="qcurve" smooth="yes"/>
      <point x="71" y="276"/>
      <point x="96" y="201" type="qcurve" smooth="yes"/>
      <point x="108" y="165"/>
      <point x="138" y="165" type="qcurve" smooth="yes"/>
      <point x="183" y="165"/>
    </contour>
    <contour>
      <point x="0" y="364" type="qcurve"/>
      <point x="-1" y="487"/>
      <point x="41" y="554" type="qcurve" smooth="yes"/>
      <point x="77" y="612"/>
      <point x="136" y="612" type="qcurve" smooth="yes"/>
      <point x="208" y="612"/>
      <point x="246" y="538" type="qcurve"/>
      <point x="288" y="459"/>
      <point x="283" y="303" type="qcurve" smooth="yes"/>
      <point x="278" y="154"/>
      <point x="228" y="72" type="qcurve" smooth="yes"/>
      <point x="186" y="4"/>
      <point x="126" y="-4" type="qcurve" smooth="yes"/>
      <point x="73" y="-12"/>
      <point x="38" y="17" type="qcurve" smooth="yes"/>
      <point x="36" y="18"/>
      <point x="17" y="27" type="qcurve"/>
      <point x="48" y="67" type="line"/>
      <point x="76" y="18"/>
      <point x="104" y="18" type="qcurve" smooth="yes"/>
      <point x="162" y="18"/>
      <point x="184" y="165" type="qcurve"/>
      <point x="171" y="140"/>
      <point x="131" y="140" type="qcurve" smooth="yes"/>
      <point x="81" y="140"/>
      <point x="45" y="188" type="qcurve"/>
      <point x="2" y="248"/>
    </contour>
  </outline>
</glyph>
<glyph name="colon" format="1">
  <advance width="104"/>
  <unicode hex="003A"/>
  <outline>
    <contour>
      <point x="22" y="92" type="line"/>
      <point x="94" y="92" type="line"/>
      <point x="94" y="0" type="line"/>
      <point x="22" y="0" type="line"/>
    </contour>
    <contour>
      <point x="20" y="407" type="line"/>
      <point x="92" y="407" type="line"/>
      <point x="92" y="315" type="line"/>
      <point x="20" y="315" type="line"/>
    </contour>
  </outline>
</glyph>
<glyph name="semicolon" format="1">
  <advance width="105"/>
  <unicode hex="003B"/>
  <outline>
    <contour>
      <point x="19" y="77" type="line"/>
      <point x="89" y="77" type="line"/>
      <point x="89" y="0" type="line" smooth="yes"/>
      <point x="89" y="-29"/>
      <point x="74" y="-56" type="qcurve" smooth="yes"/>
      <point x="58" y="-87"/>
      <point x="33" y="-87" type="qcurve"/>
      <point x="33" y="-81" type="line"/>
      <point x="48" y="-64"/>
      <point x="48" y="-31" type="qcurve" smooth="yes"/>
      <point x="48" y="0"/>
      <point x="29" y="0" type="qcurve" smooth="yes"/>
      <point x="19" y="0" type="line"/>
    </contour>
    <contour>
      <point x="19" y="302" type="line"/>
      <point x="88" y="302" type="line"/>
      <point x="88" y="210" type="line"/>
      <point x="19" y="210" type="line"/>
    </contour>
  </outline>
</glyph>
<glyph name="less" format="1">
  <advance width="222"/>
  <unicode hex="003C"/>
  <outline>
    <contour>
      <point x="56" y="278" type="line"/>
      <point x="192" y="147" type="line"/>
      <point x="190" y="87" type="line"/>
      <point x="0" y="278" type="line"/>
      <point x="192" y="471" type="line"/>
      <point x="192" y="410" type="line"/>
    </contour>
  </outline>
</glyph>
<glyph name="equal" format="1">
  <advance width="246"/>
  <unicode hex="003D"/>
  <outline>
    <contour>
      <point x="0" y="364" type="line"/>
      <point x="215" y="364" type="line"/>
      <point x="215" y="323" type="line"/>
      <point x="0" y="323" type="line"/>
    </contour>
    <contour>
      <point x="0" y="291" type="line"/>
      <point x="215" y="291" type="line"/>
      <point x="215" y="250" type="line"/>
      <point x="0" y="250" type="line"/>
    </contour>
  </outline>
</glyph>
<glyph name="greater" format="1">
  <advance width="222"/>
  <unicode hex="003E"/>
  <outline>
    <contour>
      <point x="136" y="278" type="line"/>
      <point x="0" y="147" type="line"/>
      <point x="1" y="87" type="line"/>
      <point x="192" y="278" type="line"/>
      <point x="0" y="471" type="line"/>
      <point x="0" y="410" type="line"/>
    </contour>
  </outline>
</glyph>
<glyph name="question" format="1">
  <advance width="322"/>
  <unicode hex="003F"/>
  <outline>
    <contour>
      <point x="292" y="476" type="qcurve"/>
      <point x="290" y="428"/>
      <point x="245" y="362" type="qcurve" smooth="yes"/>
      <point x="229" y="339"/>
      <point x="169" y="255"/>
      <point x="163" y="247" type="qcurve" smooth="yes"/>
      <point x="121" y="180"/>
      <point x="127" y="124" type="qcurve"/>
      <point x="103" y="124" type="line"/>
      <point x="96" y="151"/>
      <point x="96" y="180" type="qcurve" smooth="yes"/>
      <point x="96" y="240"/>
      <point x="139" y="319" type="qcurve" smooth="yes"/>
      <point x="193" y="419"/>
      <point x="203" y="461" type="qcurve" smooth="yes"/>
      <point x="207" y="478"/>
      <point x="207" y="497" type="qcurve" smooth="yes"/>
      <point x="207" y="539"/>
      <point x="180" y="563" type="qcurve" smooth="yes"/>
      <point x="154" y="587"/>
      <point x="113" y="587" type="qcurve" smooth="yes"/>
      <point x="98" y="587"/>
      <point x="85" y="584" type="qcurve" smooth="yes"/>
      <point x="49" y="576"/>
      <point x="11" y="535" type="qcurve"/>
      <point x="0" y="578" type="line"/>
      <point x="3" y="577"/>
      <point x="50" y="594" type="qcurve"/>
      <point x="92" y="612"/>
      <point x="136" y="610" type="qcurve" smooth="yes"/>
      <point x="201" y="607"/>
      <point x="242" y="576" type="qcurve" smooth="yes"/>
      <point x="292" y="538"/>
    </contour>
    <contour>
      <point x="67" y="40" type="qcurve" smooth="yes"/>
      <point x="67" y="59"/>
      <point x="80" y="72" type="qcurve" smooth="yes"/>
      <point x="94" y="86"/>
      <point x="132" y="86"/>
      <point x="146" y="72" type="qcurve" smooth="yes"/>
      <point x="159" y="59"/>
      <point x="159" y="21"/>
      <point x="146" y="8" type="qcurve" smooth="yes"/>
      <point x="132" y="-6"/>
      <point x="94" y="-6"/>
      <point x="80" y="8" type="qcurve"/>
      <point x="67" y="23"/>
    </contour>
  </outline>
</glyph>
<glyph name="at" format="1">
  <advance width="651"/>
  <unicode hex="0040"/>
  <outline>
    <contour>
      <point x="189" y="251" type="qcurve" smooth="yes"/>
      <point x="189" y="190"/>
      <point x="241" y="177" type="qcurve" smooth="yes"/>
      <point x="253" y="175"/>
      <point x="259" y="175" type="qcurve" smooth="yes"/>
      <point x="311" y="175"/>
      <point x="347" y="250" type="qcurve" smooth="yes"/>
      <point x="379" y="318"/>
      <point x="372" y="371" type="qcurve" smooth="yes"/>
      <point x="364" y="428"/>
      <point x="311" y="428" type="qcurve" smooth="yes"/>
      <point x="284" y="428"/>
      <point x="261" y="408" type="qcurve" smooth="yes"/>
      <point x="220" y="370"/>
      <point x="204" y="328" type="qcurve"/>
      <point x="189" y="284"/>
    </contour>
    <contour>
      <point x="335" y="463" type="qcurve" smooth="yes"/>
      <point x="360" y="458"/>
      <point x="371" y="442" type="qcurve" smooth="yes"/>
      <point x="376" y="435"/>
      <point x="389" y="402" type="qcurve"/>
      <point x="404" y="457" type="line"/>
      <point x="481" y="457" type="line" smooth="yes"/>
      <point x="480" y="457"/>
      <point x="474" y="445" type="qcurve" smooth="yes"/>
      <point x="464" y="426"/>
      <point x="456" y="394" type="qcurve" smooth="yes"/>
      <point x="415" y="211" type="line"/>
      <point x="410" y="184"/>
      <point x="410" y="183" type="qcurve" smooth="yes"/>
      <point x="410" y="170"/>
      <point x="424" y="170" type="qcurve" smooth="yes"/>
      <point x="472" y="170"/>
      <point x="520" y="233" type="qcurve" smooth="yes"/>
      <point x="561" y="287"/>
      <point x="569" y="339" type="qcurve"/>
      <point x="571" y="363"/>
      <point x="571" y="374" type="qcurve" smooth="yes"/>
      <point x="571" y="459"/>
      <point x="519" y="518" type="qcurve"/>
      <point x="468" y="574"/>
      <point x="381" y="596" type="qcurve"/>
      <point x="352" y="602"/>
      <point x="325" y="602" type="qcurve" smooth="yes"/>
      <point x="210" y="602"/>
      <point x="129" y="512" type="qcurve"/>
      <point x="48" y="424"/>
      <point x="48" y="308" type="qcurve" smooth="yes"/>
      <point x="48" y="196"/>
      <point x="114" y="123" type="qcurve"/>
      <point x="188" y="38"/>
      <point x="324" y="31" type="qcurve" smooth="yes"/>
      <point x="400" y="27"/>
      <point x="471" y="66" type="qcurve"/>
      <point x="543" y="107"/>
      <point x="559" y="164" type="qcurve"/>
      <point x="606" y="164" type="line"/>
      <point x="594" y="119"/>
      <point x="543" y="74" type="qcurve" smooth="yes"/>
      <point x="461" y="1"/>
      <point x="324" y="1" type="qcurve" smooth="yes"/>
      <point x="185" y="1"/>
      <point x="94" y="86" type="qcurve" smooth="yes"/>
      <point x="0" y="174"/>
      <point x="0" y="314" type="qcurve" smooth="yes"/>
      <point x="0" y="442"/>
      <point x="96" y="538" type="qcurve"/>
      <point x="194" y="634"/>
      <point x="320" y="634" type="qcurve" smooth="yes"/>
      <point x="413" y="634"/>
      <point x="493" y="589" type="qcurve" smooth="yes"/>
      <point x="572" y="544"/>
      <point x="604" y="466" type="qcurve" smooth="yes"/>
      <point x="620" y="427"/>
      <point x="620" y="379" type="qcurve" smooth="yes"/>
      <point x="620" y="283"/>
      <point x="561" y="209" type="qcurve" smooth="yes"/>
      <point x="498" y="130"/>
      <point x="406" y="130" type="qcurve" smooth="yes"/>
      <point x="376" y="130"/>
      <point x="356" y="146" type="qcurve"/>
      <point x="333" y="161"/>
      <point x="335" y="181" type="qcurve"/>
      <point x="313" y="153"/>
      <point x="294" y="142" type="qcurve"/>
      <point x="276" y="133"/>
      <point x="238" y="133" type="qcurve" smooth="yes"/>
      <point x="184" y="133"/>
      <point x="149" y="175" type="qcurve" smooth="yes"/>
      <point x="118" y="212"/>
      <point x="118" y="269" type="qcurve" smooth="yes"/>
      <point x="118" y="286"/>
      <point x="121" y="303" type="qcurve" smooth="yes"/>
      <point x="134" y="364"/>
      <point x="246" y="466"/>
      <point x="308" y="466" type="qcurve" smooth="yes"/>
      <point x="322" y="466"/>
    </contour>
  </outline>
</glyph>
<glyph name="A" format="1">
  <advance width="355"/>
  <unicode hex="0041"/>
  <outline>
    <contour>
      <point x="223" y="127" type="line"/>
      <point x="146" y="438" type="line"/>
      <point x="68" y="127" type="line"/>
    </contour>
    <contour>
      <point x="41" y="21" type="line"/>
      <point x="47" y="0" type="line"/>
      <point x="0" y="0" type="line"/>
      <point x="14" y="21" type="line"/>
      <point x="169" y="643" type="line"/>
      <point x="323" y="21" type="line"/>
      <point x="337" y="0" type="line"/>
      <point x="242" y="0" type="line"/>
      <point x="250" y="21" type="line"/>
      <point x="228" y="106" type="line"/>
      <point x="63" y="106" type="line"/>
    </contour>
  </outline>
</glyph>
<glyph name="B" format="1">
  <advance width="338"/>
  <unicode hex="0042"/>
  <outline>
    <contour>
      <point x="85" y="355" type="line"/>
      <point x="85" y="24" type="line"/>
      <point x="99" y="24" type="line" smooth="yes"/>
      <point x="140" y="24"/>
      <point x="173" y="60" type="qcurve" smooth="yes"/>
      <point x="217" y="107"/>
      <point x="215" y="191" type="qcurve" smooth="yes"/>
      <point x="213" y="268"/>
      <point x="186" y="313" type="qcurve" smooth="yes"/>
      <point x="160" y="355"/>
      <point x="123" y="355" type="qcurve" smooth="yes"/>
    </contour>
    <contour>
      <point x="0" y="0" type="line"/>
      <point x="13" y="20" type="line"/>
      <point x="13" y="578" type="line"/>
      <point x="0" y="599" type="line"/>
      <point x="113" y="599" type="line" smooth="yes"/>
      <point x="178" y="599"/>
      <point x="226" y="568" type="qcurve"/>
      <point x="272" y="535"/>
      <point x="272" y="486" type="qcurve" smooth="yes"/>
      <point x="272" y="454"/>
      <point x="251" y="422" type="qcurve" smooth="yes"/>
      <point x="228" y="386"/>
      <point x="190" y="369" type="qcurve"/>
      <point x="308" y="332"/>
      <point x="308" y="191" type="qcurve" smooth="yes"/>
      <point x="308" y="118"/>
      <point x="250" y="58" type="qcurve"/>
      <point x="189" y="0"/>
      <point x="116" y="0" type="qcurve" smooth="yes"/>
    </contour>
    <contour>
      <point x="85" y="577" type="line"/>
      <point x="85" y="380" type="line"/>
      <point x="110" y="380" type="line" smooth="yes"/>
      <point x="143" y="380"/>
      <point x="168" y="411" type="qcurve" smooth="yes"/>
      <point x="192" y="442"/>
      <point x="192" y="494" type="qcurve" smooth="yes"/>
      <point x="192" y="530"/>
      <point x="168" y="554" type="qcurve"/>
      <point x="143" y="577"/>
      <point x="109" y="577" type="qcurve" smooth="yes"/>
    </contour>
  </outline>
</glyph>
<glyph name="C" format="1">
  <advance width="298"/>
  <unicode hex="0043"/>
  <outline>
    <contour>
      <point x="86" y="305" type="qcurve" smooth="yes"/>
      <point x="86" y="212"/>
      <point x="99" y="144" type="qcurve" smooth="yes"/>
      <point x="121" y="23"/>
      <point x="174" y="23" type="qcurve" smooth="yes"/>
      <point x="221" y="23"/>
      <point x="238" y="77" type="qcurve"/>
      <point x="268" y="37" type="line"/>
      <point x="258" y="34"/>
      <point x="247" y="27" type="qcurve" smooth="yes"/>
      <point x="200" y="-6"/>
      <point x="165" y="-6" type="qcurve" smooth="yes"/>
      <point x="78" y="-6"/>
      <point x="33" y="113" type="qcurve" smooth="yes"/>
      <point x="0" y="200"/>
      <point x="0" y="305" type="qcurve" smooth="yes"/>
      <point x="0" y="470"/>
      <point x="62" y="553" type="qcurve" smooth="yes"/>
      <point x="104" y="609"/>
      <point x="169" y="609" type="qcurve" smooth="yes"/>
      <point x="196" y="609"/>
      <point x="215" y="598" type="qcurve" smooth="yes"/>
      <point x="244" y="581"/>
      <point x="250" y="580" type="qcurve" smooth="yes"/>
      <point x="252" y="580"/>
      <point x="258" y="577" type="line"/>
      <point x="227" y="538" type="line"/>
      <point x="216" y="586"/>
      <point x="170" y="586" type="qcurve" smooth="yes"/>
      <point x="119" y="586"/>
      <point x="98" y="465" type="qcurve" smooth="yes"/>
      <point x="86" y="396"/>
    </contour>
  </outline>
</glyph>
<glyph name="D" format="1">
  <advance width="307"/>
  <unicode hex="0044"/>
  <outline>
    <contour>
      <point x="85" y="579" type="qcurve"/>
      <point x="85" y="19" type="line"/>
      <point x="127" y="20"/>
      <point x="160" y="103" type="qcurve"/>
      <point x="191" y="188"/>
      <point x="191" y="298" type="qcurve" smooth="yes"/>
      <point x="191" y="454"/>
      <point x="163" y="519" type="qcurve"/>
      <point x="139" y="578"/>
    </contour>
    <contour>
      <point x="0" y="599" type="line"/>
      <point x="109" y="599" type="line" smooth="yes"/>
      <point x="176" y="599"/>
      <point x="219" y="541" type="qcurve"/>
      <point x="277" y="465"/>
      <point x="277" y="299" type="qcurve" smooth="yes"/>
      <point x="277" y="153"/>
      <point x="216" y="71" type="qcurve" smooth="yes"/>
      <point x="164" y="1"/>
      <point x="91" y="0" type="qcurve"/>
      <point x="0" y="0" type="line"/>
      <point x="13" y="20" type="line"/>
      <point x="13" y="579" type="line"/>
    </contour>
  </outline>
</glyph>
<glyph name="F" format="1">
  <advance width="232"/>
  <unicode hex="0046"/>
  <outline>
    <contour>
      <point x="85" y="409" type="line"/>
      <point x="85" y="21" type="line"/>
      <point x="98" y="0" type="line"/>
      <point x="0" y="0" type="line"/>
      <point x="13" y="21" type="line"/>
      <point x="13" y="578" type="line"/>
      <point x="0" y="599" type="line"/>
      <point x="190" y="599" type="line"/>
      <point x="199" y="565" type="line"/>
      <point x="159" y="577" type="line"/>
      <point x="85" y="577" type="line"/>
      <point x="85" y="431" type="line"/>
      <point x="150" y="431" type="line"/>
      <point x="178" y="438" type="line"/>
      <point x="178" y="403" type="line"/>
      <point x="150" y="409" type="line"/>
    </contour>
  </outline>
</glyph>
<glyph name="G" format="1">
  <advance width="311"/>
  <unicode hex="0047"/>
  <outline>
    <contour>
      <point x="258" y="377" type="line"/>
      <point x="258" y="73" type="line" smooth="yes"/>
      <point x="258" y="63"/>
      <point x="249" y="48" type="qcurve" smooth="yes"/>
      <point x="214" y="-11"/>
      <point x="156" y="-11" type="qcurve" smooth="yes"/>
      <point x="124" y="-11"/>
      <point x="94" y="13" type="qcurve" smooth="yes"/>
      <point x="0" y="86"/>
      <point x="0" y="297" type="qcurve" smooth="yes"/>
      <point x="0" y="496"/>
      <point x="84" y="572" type="qcurve"/>
      <point x="104" y="592"/>
      <point x="124" y="599" type="qcurve"/>
      <point x="143" y="607"/>
      <point x="167" y="607" type="qcurve" smooth="yes"/>
      <point x="201" y="607"/>
      <point x="221" y="594" type="qcurve" smooth="yes"/>
      <point x="249" y="575"/>
      <point x="258" y="574" type="qcurve"/>
      <point x="227" y="533" type="line"/>
      <point x="216" y="583"/>
      <point x="170" y="583" type="qcurve" smooth="yes"/>
      <point x="86" y="583"/>
      <point x="86" y="253" type="qcurve" smooth="yes"/>
      <point x="86" y="157"/>
      <point x="92" y="115" type="qcurve" smooth="yes"/>
      <point x="106" y="11"/>
      <point x="152" y="11" type="qcurve" smooth="yes"/>
      <point x="186" y="11"/>
      <point x="186" y="62" type="qcurve" smooth="yes"/>
      <point x="186" y="377" type="line"/>
      <point x="173" y="398" type="line"/>
      <point x="271" y="398" type="line"/>
    </contour>
  </outline>
</glyph>
<glyph name="H" format="1">
  <advance width="307"/>
  <unicode hex="0048"/>
  <outline>
    <contour>
      <point x="163" y="599" type="line"/>
      <point x="261" y="599" type="line"/>
      <point x="248" y="578" type="line"/>
      <point x="248" y="20" type="line"/>
      <point x="261" y="0" type="line"/>
      <point x="163" y="0" type="line"/>
      <point x="176" y="20" type="line"/>
      <point x="176" y="409" type="line"/>
      <point x="85" y="409" type="line"/>
      <point x="85" y="20" type="line"/>
      <point x="98" y="0" type="line"/>
      <point x="0" y="0" type="line"/>
      <point x="13" y="20" type="line"/>
      <point x="13" y="578" type="line"/>
      <point x="0" y="599" type="line"/>
      <point x="98" y="599" type="line"/>
      <point x="85" y="578" type="line"/>
      <point x="85" y="431" type="line"/>
      <point x="176" y="431" type="line"/>
      <point x="176" y="578" type="line"/>
    </contour>
  </outline>
</glyph>
<glyph name="I" format="1">
  <advance width="168"/>
  <unicode hex="0049"/>
  <outline>
    <contour>
      <point x="20" y="599" type="line"/>
      <point x="118" y="599" type="line"/>
      <point x="105" y="579" type="line"/>
      <point x="105" y="20" type="line"/>
      <point x="118" y="0" type="line"/>
      <point x="20" y="0" type="line"/>
      <point x="33" y="20" type="line"/>
      <point x="33" y="579" type="line"/>
    </contour>
  </outline>
</glyph>
<glyph name="J" format="1">
  <advance width="248"/>
  <unicode hex="004A"/>
  <outline>
    <contour>
      <point x="83" y="-13" type="qcurve" smooth="yes"/>
      <point x="54" y="-13"/>
      <point x="31" y="5" type="qcurve" smooth="yes"/>
      <point x="11" y="21"/>
      <point x="0" y="30" type="qcurve"/>
      <point x="28" y="64" type="line"/>
      <point x="44" y="9"/>
      <point x="79" y="9" type="qcurve" smooth="yes"/>
      <point x="113" y="9"/>
      <point x="113" y="60" type="qcurve" smooth="yes"/>
      <point x="113" y="578" type="line"/>
      <point x="100" y="599" type="line"/>
      <point x="198" y="599" type="line"/>
      <point x="185" y="578" type="line"/>
      <point x="185" y="71" type="line" smooth="yes"/>
      <point x="185" y="49"/>
      <point x="157" y="21" type="qcurve" smooth="yes"/>
      <point x="124" y="-13"/>
    </contour>
  </outline>
</glyph>
<glyph name="K" format="1">
  <advance width="303"/>
  <unicode hex="004B"/>
  <outline>
    <contour>
      <point x="185" y="20" type="line"/>
      <point x="112" y="396" type="line"/>
      <point x="85" y="350" type="line"/>
      <point x="85" y="20" type="line"/>
      <point x="98" y="0" type="line"/>
      <point x="0" y="0" type="line"/>
      <point x="13" y="20" type="line"/>
      <point x="13" y="579" type="line"/>
      <point x="0" y="599" type="line"/>
      <point x="98" y="599" type="line"/>
      <point x="85" y="579" type="line"/>
      <point x="85" y="392" type="line"/>
      <point x="190" y="578" type="line"/>
      <point x="185" y="599" type="line"/>
      <point x="238" y="599" type="line"/>
      <point x="218" y="578" type="line"/>
      <point x="160" y="479" type="line"/>
      <point x="259" y="20" type="line"/>
      <point x="273" y="0" type="line"/>
      <point x="178" y="0" type="line"/>
    </contour>
  </outline>
</glyph>
<glyph name="L" format="1">
  <advance width="248"/>
  <unicode hex="004C"/>
  <outline>
    <contour>
      <point x="13" y="20" type="line"/>
      <point x="13" y="579" type="line"/>
      <point x="0" y="599" type="line"/>
      <point x="98" y="599" type="line"/>
      <point x="85" y="579" type="line"/>
      <point x="85" y="21" type="line"/>
      <point x="176" y="21" type="line"/>
      <point x="217" y="34" type="line"/>
      <point x="207" y="0" type="line"/>
      <point x="0" y="0" type="line"/>
    </contour>
  </outline>
</glyph>
<glyph name="M" format="1">
  <advance width="410"/>
  <unicode hex="004D"/>
  <outline>
    <contour>
      <point x="185" y="159" type="line"/>
      <point x="283" y="599" type="line"/>
      <point x="370" y="599" type="line"/>
      <point x="359" y="579" type="line"/>
      <point x="359" y="21" type="line"/>
      <point x="370" y="0" type="line"/>
      <point x="276" y="0" type="line"/>
      <point x="287" y="21" type="line"/>
      <point x="287" y="482" type="line"/>
      <point x="179" y="0" type="line"/>
      <point x="139" y="0" type="line"/>
      <point x="40" y="479" type="line"/>
      <point x="40" y="21" type="line"/>
      <point x="51" y="0" type="line"/>
      <point x="0" y="0" type="line"/>
      <point x="11" y="21" type="line"/>
      <point x="11" y="579" type="line"/>
      <point x="0" y="599" type="line"/>
      <point x="93" y="599" type="line"/>
    </contour>
  </outline>
</glyph>
<glyph name="N" format="1">
  <advance width="302"/>
  <unicode hex="004E"/>
  <outline>
    <contour>
      <point x="13" y="21" type="line"/>
      <point x="13" y="579" type="line"/>
      <point x="0" y="599" type="line"/>
      <point x="88" y="599" type="line"/>
      <point x="210" y="245" type="line"/>
      <point x="210" y="579" type="line"/>
      <point x="197" y="599" type="line"/>
      <point x="252" y="599" type="line"/>
      <point x="239" y="579" type="line"/>
      <point x="239" y="0" type="line"/>
      <point x="210" y="0" type="line"/>
      <point x="42" y="480" type="line"/>
      <point x="42" y="21" type="line"/>
      <point x="55" y="0" type="line"/>
      <point x="0" y="0" type="line"/>
    </contour>
  </outline>
</glyph>
<glyph name="O" format="1">
  <advance width="352"/>
  <unicode hex="004F"/>
  <outline>
    <contour>
      <point x="312" y="150"/>
      <point x="260" y="65" type="qcurve" smooth="yes"/>
      <point x="216" y="-7"/>
      <point x="156" y="-7" type="qcurve" smooth="yes"/>
      <point x="95" y="-7"/>
      <point x="52" y="66" type="qcurve"/>
      <point x="0" y="151"/>
      <point x="0" y="300" type="qcurve" smooth="yes"/>
      <point x="0" y="450"/>
      <point x="52" y="535" type="qcurve" smooth="yes"/>
      <point x="96" y="607"/>
      <point x="216" y="607"/>
      <point x="260" y="535" type="qcurve" smooth="yes"/>
      <point x="312" y="450"/>
    </contour>
    <contour>
      <point x="224" y="585"/>
      <point x="156" y="585" type="qcurve" smooth="yes"/>
      <point x="87" y="585"/>
      <point x="87" y="13"/>
      <point x="156" y="13" type="qcurve" smooth="yes"/>
      <point x="224" y="13"/>
    </contour>
  </outline>
</glyph>
<glyph name="P" format="1">
  <advance width="288"/>
  <unicode hex="0050"/>
  <outline>
    <contour>
      <point x="120" y="355" type="qcurve" smooth="yes"/>
      <point x="85" y="355" type="line"/>
      <point x="85" y="21" type="line"/>
      <point x="98" y="0" type="line"/>
      <point x="0" y="0" type="line"/>
      <point x="13" y="21" type="line"/>
      <point x="13" y="579" type="line"/>
      <point x="0" y="599" type="line"/>
      <point x="112" y="599" type="line" smooth="yes"/>
      <point x="178" y="599"/>
      <point x="226" y="568" type="qcurve"/>
      <point x="272" y="535"/>
      <point x="272" y="486" type="qcurve" smooth="yes"/>
      <point x="272" y="440"/>
      <point x="234" y="400" type="qcurve" smooth="yes"/>
      <point x="190" y="355"/>
    </contour>
    <contour>
      <point x="85" y="577" type="line"/>
      <point x="85" y="380" type="line"/>
      <point x="109" y="380" type="line" smooth="yes"/>
      <point x="143" y="380"/>
      <point x="168" y="411" type="qcurve" smooth="yes"/>
      <point x="192" y="442"/>
      <point x="192" y="494" type="qcurve" smooth="yes"/>
      <point x="192" y="530"/>
      <point x="168" y="554" type="qcurve"/>
      <point x="143" y="577"/>
      <point x="109" y="577" type="qcurve" smooth="yes"/>
    </contour>
  </outline>
</glyph>
<glyph name="Q" format="1">
  <advance width="352"/>
  <unicode hex="0051"/>
  <outline>
    <contour>
      <point x="87" y="298" type="qcurve" smooth="yes"/>
      <point x="87" y="29"/>
      <point x="148" y="16" type="qcurve"/>
      <point x="147" y="24"/>
      <point x="147" y="40" type="qcurve"/>
      <point x="164" y="51" type="line"/>
      <point x="168" y="34"/>
      <point x="176" y="21" type="qcurve"/>
      <point x="224" y="56"/>
      <point x="224" y="298" type="qcurve" smooth="yes"/>
      <point x="224" y="581"/>
      <point x="156" y="581" type="qcurve" smooth="yes"/>
      <point x="87" y="581"/>
    </contour>
    <contour>
      <point x="216" y="604"/>
      <point x="260" y="532" type="qcurve" smooth="yes"/>
      <point x="312" y="449"/>
      <point x="312" y="300" type="qcurve" smooth="yes"/>
      <point x="312" y="174"/>
      <point x="274" y="92" type="qcurve" smooth="yes"/>
      <point x="241" y="23"/>
      <point x="190" y="2" type="qcurve"/>
      <point x="215" y="-26"/>
      <point x="255" y="-39" type="qcurve"/>
      <point x="186" y="-75" type="line"/>
      <point x="177" y="-68"/>
      <point x="172" y="-59" type="qcurve" smooth="yes"/>
      <point x="157" y="-36"/>
      <point x="151" y="-5" type="qcurve"/>
      <point x="92" y="0"/>
      <point x="50" y="71" type="qcurve" smooth="yes"/>
      <point x="0" y="157"/>
      <point x="0" y="300" type="qcurve" smooth="yes"/>
      <point x="0" y="447"/>
      <point x="52" y="532" type="qcurve" smooth="yes"/>
      <point x="96" y="604"/>
    </contour>
  </outline>
</glyph>
<glyph name="R" format="1">
  <advance width="341"/>
  <unicode hex="0052"/>
  <outline>
    <contour>
      <point x="85" y="577" type="line"/>
      <point x="85" y="433" type="line"/>
      <point x="129" y="433" type="line" smooth="yes"/>
      <point x="158" y="433"/>
      <point x="204" y="475"/>
      <point x="204" y="500" type="qcurve" smooth="yes"/>
      <point x="204" y="535"/>
      <point x="180" y="556" type="qcurve"/>
      <point x="158" y="577"/>
      <point x="121" y="577" type="qcurve" smooth="yes"/>
    </contour>
    <contour>
      <point x="0" y="599" type="line"/>
      <point x="143" y="599" type="line" smooth="yes"/>
      <point x="183" y="599"/>
      <point x="219" y="584" type="qcurve" smooth="yes"/>
      <point x="284" y="558"/>
      <point x="284" y="499" type="qcurve" smooth="yes"/>
      <point x="284" y="470"/>
      <point x="259" y="446" type="qcurve" smooth="yes"/>
      <point x="232" y="421"/>
      <point x="203" y="414" type="qcurve"/>
      <point x="205" y="338"/>
      <point x="211" y="296" type="qcurve" smooth="yes"/>
      <point x="238" y="96"/>
      <point x="267" y="47" type="qcurve" smooth="yes"/>
      <point x="285" y="16"/>
      <point x="313" y="10"/>
      <point x="310" y="4" type="qcurve" smooth="yes"/>
      <point x="309" y="0"/>
      <point x="302" y="0" type="qcurve" smooth="yes"/>
      <point x="255" y="0"/>
      <point x="225" y="46" type="qcurve" smooth="yes"/>
      <point x="207" y="72"/>
      <point x="178" y="160" type="qcurve" smooth="yes"/>
      <point x="155" y="228"/>
      <point x="133" y="408" type="qcurve"/>
      <point x="85" y="408" type="line"/>
      <point x="85" y="21" type="line"/>
      <point x="98" y="0" type="line"/>
      <point x="0" y="0" type="line"/>
      <point x="13" y="21" type="line"/>
      <point x="13" y="579" type="line"/>
    </contour>
  </outline>
</glyph>
<glyph name="S" format="1">
  <advance width="274"/>
  <unicode hex="0053"/>
  <outline>
    <contour>
      <point x="139" y="587" type="qcurve" smooth="yes"/>
      <point x="106" y="592"/>
      <point x="84" y="572" type="qcurve"/>
      <point x="61" y="554"/>
      <point x="61" y="515" type="qcurve" smooth="yes"/>
      <point x="61" y="487"/>
      <point x="74" y="457" type="qcurve" smooth="yes"/>
      <point x="93" y="410"/>
      <point x="140" y="348" type="qcurve" smooth="yes"/>
      <point x="196" y="276"/>
      <point x="211" y="252" type="qcurve" smooth="yes"/>
      <point x="244" y="196"/>
      <point x="244" y="145" type="qcurve" smooth="yes"/>
      <point x="244" y="84"/>
      <point x="199" y="36" type="qcurve"/>
      <point x="155" y="-14"/>
      <point x="91" y="-14" type="qcurve" smooth="yes"/>
      <point x="63" y="-14"/>
      <point x="42" y="-4" type="qcurve" smooth="yes"/>
      <point x="11" y="12"/>
      <point x="4" y="14" type="qcurve" smooth="yes"/>
      <point x="-4" y="16"/>
      <point x="-14" y="17" type="qcurve"/>
      <point x="2" y="95" type="line"/>
      <point x="27" y="19"/>
      <point x="94" y="19" type="qcurve" smooth="yes"/>
      <point x="129" y="19"/>
      <point x="152" y="48" type="qcurve"/>
      <point x="176" y="76"/>
      <point x="176" y="114" type="qcurve" smooth="yes"/>
      <point x="176" y="168"/>
      <point x="131" y="233" type="qcurve"/>
      <point x="102" y="270"/>
      <point x="46" y="344" type="qcurve"/>
      <point x="-2" y="410"/>
      <point x="-8" y="465" type="qcurve" smooth="yes"/>
      <point x="-14" y="531"/>
      <point x="28" y="573" type="qcurve"/>
      <point x="68" y="611"/>
      <point x="125" y="611" type="qcurve" smooth="yes"/>
      <point x="164" y="611"/>
      <point x="199" y="591" type="qcurve" smooth="yes"/>
      <point x="205" y="587"/>
      <point x="222" y="583" type="qcurve"/>
      <point x="191" y="541" type="line"/>
      <point x="184" y="554"/>
      <point x="178" y="562" type="qcurve" smooth="yes"/>
      <point x="162" y="584"/>
    </contour>
  </outline>
</glyph>
<glyph name="T" format="1">
  <advance width="268"/>
  <unicode hex="0054"/>
  <outline>
    <contour>
      <point x="155" y="21" type="line"/>
      <point x="168" y="0" type="line"/>
      <point x="70" y="0" type="line"/>
      <point x="83" y="21" type="line"/>
      <point x="83" y="578" type="line"/>
      <point x="40" y="578" type="line"/>
      <point x="0" y="565" type="line"/>
      <point x="9" y="599" type="line"/>
      <point x="229" y="599" type="line"/>
      <point x="238" y="565" type="line"/>
      <point x="198" y="578" type="line"/>
      <point x="155" y="578" type="line"/>
    </contour>
  </outline>
</glyph>
<glyph name="U" format="1">
  <advance width="288"/>
  <unicode hex="0055"/>
  <outline>
    <contour>
      <point x="127" y="-10" type="qcurve" smooth="yes"/>
      <point x="180" y="-10"/>
      <point x="212" y="25" type="qcurve" smooth="yes"/>
      <point x="234" y="50"/>
      <point x="234" y="74" type="qcurve" smooth="yes"/>
      <point x="234" y="578" type="line"/>
      <point x="248" y="599" type="line"/>
      <point x="188" y="599" type="line"/>
      <point x="201" y="578" type="line"/>
      <point x="201" y="78" type="line" smooth="yes"/>
      <point x="201" y="54"/>
      <point x="185" y="39" type="qcurve" smooth="yes"/>
      <point x="168" y="24"/>
      <point x="144" y="24" type="qcurve" smooth="yes"/>
      <point x="116" y="24"/>
      <point x="100" y="43" type="qcurve" smooth="yes"/>
      <point x="85" y="60"/>
      <point x="85" y="78" type="qcurve" smooth="yes"/>
      <point x="85" y="578" type="line"/>
      <point x="98" y="599" type="line"/>
      <point x="0" y="599" type="line"/>
      <point x="13" y="578" type="line"/>
      <point x="13" y="73" type="line" smooth="yes"/>
      <point x="13" y="50"/>
      <point x="37" y="25" type="qcurve" smooth="yes"/>
      <point x="69" y="-10"/>
    </contour>
  </outline>
</glyph>
<glyph name="V" format="1">
  <advance width="332"/>
  <unicode hex="0056"/>
  <outline>
    <contour>
      <point x="180" y="173" type="line"/>
      <point x="259" y="578" type="line"/>
      <point x="254" y="599" type="line"/>
      <point x="301" y="599" type="line"/>
      <point x="287" y="578" type="line"/>
      <point x="174" y="0" type="line"/>
      <point x="129" y="0" type="line"/>
      <point x="14" y="578" type="line"/>
      <point x="0" y="599" type="line"/>
      <point x="107" y="599" type="line"/>
      <point x="100" y="578" type="line"/>
    </contour>
  </outline>
</glyph>
<glyph name="W" format="1">
  <advance width="580"/>
  <unicode hex="0057"/>
  <outline>
    <contour>
      <point x="180" y="173" type="line"/>
      <point x="259" y="578" type="line"/>
      <point x="253" y="599" type="line"/>
      <point x="355" y="599" type="line"/>
      <point x="348" y="578" type="line"/>
      <point x="428" y="173" type="line"/>
      <point x="507" y="578" type="line"/>
      <point x="501" y="599" type="line"/>
      <point x="549" y="599" type="line"/>
      <point x="535" y="578" type="line"/>
      <point x="421" y="0" type="line"/>
      <point x="377" y="0" type="line"/>
      <point x="275" y="514" type="line"/>
      <point x="174" y="0" type="line"/>
      <point x="129" y="0" type="line"/>
      <point x="14" y="578" type="line"/>
      <point x="0" y="599" type="line"/>
      <point x="107" y="599" type="line"/>
      <point x="100" y="578" type="line"/>
    </contour>
  </outline>
</glyph>
<glyph name="X" format="1">
  <advance width="318"/>
  <unicode hex="0058"/>
  <outline>
    <contour>
      <point x="13" y="21" type="line"/>
      <point x="105" y="342" type="line"/>
      <point x="37" y="579" type="line"/>
      <point x="25" y="599" type="line"/>
      <point x="120" y="599" type="line"/>
      <point x="113" y="578" type="line"/>
      <point x="165" y="400" type="line"/>
      <point x="216" y="578" type="line"/>
      <point x="211" y="599" type="line"/>
      <point x="255" y="599" type="line"/>
      <point x="243" y="579" type="line"/>
      <point x="178" y="354" type="line"/>
      <point x="274" y="20" type="line"/>
      <point x="287" y="0" type="line"/>
      <point x="188" y="0" type="line"/>
      <point x="198" y="20" type="line"/>
      <point x="118" y="296" type="line"/>
      <point x="38" y="21" type="line"/>
      <point x="43" y="0" type="line"/>
      <point x="0" y="0" type="line"/>
    </contour>
  </outline>
</glyph>
<glyph name="Y" format="1">
  <advance width="292"/>
  <unicode hex="0059"/>
  <outline>
    <contour>
      <point x="96" y="309" type="line"/>
      <point x="13" y="578" type="line"/>
      <point x="0" y="599" type="line"/>
      <point x="103" y="599" type="line"/>
      <point x="96" y="578" type="line"/>
      <point x="152" y="400" type="line"/>
      <point x="208" y="578" type="line"/>
      <point x="203" y="599" type="line"/>
      <point x="251" y="599" type="line"/>
      <point x="237" y="578" type="line"/>
      <point x="168" y="361" type="line"/>
      <point x="168" y="21" type="line"/>
      <point x="181" y="1" type="line"/>
      <point x="83" y="1" type="line"/>
      <point x="96" y="21" type="line"/>
    </contour>
  </outline>
</glyph>
<glyph name="Z" format="1">
  <advance width="276"/>
  <unicode hex="005A"/>
  <outline>
    <contour>
      <point x="78" y="22" type="line"/>
      <point x="204" y="22" type="line"/>
      <point x="245" y="34" type="line"/>
      <point x="235" y="0" type="line"/>
      <point x="0" y="0" type="line"/>
      <point x="152" y="578" type="line"/>
      <point x="78" y="578" type="line"/>
      <point x="38" y="566" type="line"/>
      <point x="47" y="599" type="line"/>
      <point x="230" y="599" type="line"/>
    </contour>
  </outline>
</glyph>
<glyph name="bracketleft" format="1">
  <advance width="188"/>
  <unicode hex="005B"/>
  <outline>
    <contour>
      <point x="61" y="629" type="line"/>
      <point x="138" y="629" type="line"/>
      <point x="138" y="649" type="line"/>
      <point x="0" y="649" type="line"/>
      <point x="0" y="-50" type="line"/>
      <point x="138" y="-50" type="line"/>
      <point x="138" y="-32" type="line"/>
      <point x="61" y="-32" type="line"/>
    </contour>
  </outline>
</glyph>
<glyph name="backslash" format="1">
  <advance width="467"/>
  <unicode hex="005C"/>
  <outline>
    <contour>
      <point x="38" y="654" type="line"/>
      <point x="0" y="654" type="line"/>
      <point x="400" y="-63" type="line"/>
      <point x="437" y="-63" type="line"/>
    </contour>
  </outline>
</glyph>
<glyph name="bracketright" format="1">
  <advance width="168"/>
  <unicode hex="005D"/>
  <outline>
    <contour>
      <point x="97" y="629" type="line"/>
      <point x="20" y="629" type="line"/>
      <point x="20" y="649" type="line"/>
      <point x="158" y="649" type="line"/>
      <point x="158" y="-50" type="line"/>
      <point x="20" y="-50" type="line"/>
      <point x="20" y="-32" type="line"/>
      <point x="97" y="-32" type="line"/>
    </contour>
  </outline>
</glyph>
<glyph name="asciicircum" format="1">
  <advance width="203"/>
  <unicode hex="005E"/>
  <outline>
    <contour>
      <point x="86" y="691" type="line"/>
      <point x="27" y="642" type="line"/>
      <point x="0" y="642" type="line"/>
      <point x="86" y="728" type="line"/>
      <point x="173" y="642" type="line"/>
      <point x="146" y="642" type="line"/>
    </contour>
  </outline>
</glyph>
<glyph name="grave" format="1">
  <advance width="142"/>
  <unicode hex="0060"/>
  <outline>
    <contour>
      <point x="0" y="742" type="line"/>
      <point x="73" y="742" type="line"/>
      <point x="112" y="649" type="line"/>
      <point x="77" y="649" type="line"/>
    </contour>
  </outline>
</glyph>
<glyph name="a" format="1">
  <advance width="333"/>
  <unicode hex="0061"/>
  <outline>
    <contour>
      <point x="226" y="0" type="line"/>
      <point x="233" y="19" type="line"/>
      <point x="214" y="93" type="line"/>
      <point x="60" y="93" type="line"/>
      <point x="40" y="19" type="line"/>
      <point x="45" y="0" type="line"/>
      <point x="-2" y="0" type="line"/>
      <point x="12" y="20" type="line"/>
      <point x="158" y="571" type="line"/>
      <point x="305" y="20" type="line"/>
      <point x="319" y="0" type="line"/>
    </contour>
    <contour>
      <point x="137" y="382" type="line"/>
      <point x="65" y="114" type="line"/>
      <point x="208" y="114" type="line"/>
    </contour>
  </outline>
</glyph>
<glyph name="b" format="1">
  <advance width="317"/>
  <unicode hex="0062"/>
  <outline>
    <contour>
      <point x="109" y="0" type="qcurve" smooth="yes"/>
      <point x="-2" y="0" type="line"/>
      <point x="11" y="19" type="line"/>
      <point x="11" y="510" type="line"/>
      <point x="-2" y="529" type="line"/>
      <point x="106" y="529" type="line" smooth="yes"/>
      <point x="171" y="529"/>
      <point x="212" y="501" type="qcurve"/>
      <point x="256" y="473"/>
      <point x="256" y="428" type="qcurve" smooth="yes"/>
      <point x="256" y="400"/>
      <point x="238" y="372" type="qcurve"/>
      <point x="218" y="343"/>
      <point x="181" y="326" type="qcurve"/>
      <point x="290" y="293"/>
      <point x="290" y="169" type="qcurve" smooth="yes"/>
      <point x="290" y="104"/>
      <point x="180" y="0"/>
    </contour>
    <contour>
      <point x="102" y="508" type="qcurve" smooth="yes"/>
      <point x="81" y="508" type="line"/>
      <point x="81" y="336" type="line"/>
      <point x="103" y="336" type="line" smooth="yes"/>
      <point x="135" y="336"/>
      <point x="156" y="364" type="qcurve"/>
      <point x="179" y="390"/>
      <point x="179" y="436" type="qcurve" smooth="yes"/>
      <point x="179" y="467"/>
      <point x="157" y="488" type="qcurve"/>
      <point x="134" y="508"/>
    </contour>
    <contour>
      <point x="115" y="313" type="qcurve" smooth="yes"/>
      <point x="81" y="313" type="line"/>
      <point x="81" y="23" type="line"/>
      <point x="93" y="23" type="line" smooth="yes"/>
      <point x="130" y="23"/>
      <point x="162" y="55" type="qcurve"/>
      <point x="201" y="96"/>
      <point x="201" y="169" type="qcurve"/>
      <point x="200" y="236"/>
      <point x="173" y="276" type="qcurve" smooth="yes"/>
      <point x="149" y="313"/>
    </contour>
  </outline>
</glyph>
<glyph name="c" format="1">
  <advance width="280"/>
  <unicode hex="0063"/>
  <outline>
    <contour>
      <point x="155" y="-6" type="qcurve" smooth="yes"/>
      <point x="74" y="-6"/>
      <point x="31" y="96" type="qcurve" smooth="yes"/>
      <point x="-1" y="174"/>
      <point x="-1" y="268" type="qcurve" smooth="yes"/>
      <point x="-1" y="368"/>
      <point x="30" y="439" type="qcurve"/>
      <point x="70" y="536"/>
      <point x="157" y="536" type="qcurve" smooth="yes"/>
      <point x="186" y="536"/>
      <point x="210" y="522" type="qcurve"/>
      <point x="238" y="509"/>
      <point x="244" y="509" type="qcurve"/>
      <point x="213" y="471" type="line"/>
      <point x="204" y="515"/>
      <point x="160" y="515" type="qcurve" smooth="yes"/>
      <point x="114" y="515"/>
      <point x="94" y="410" type="qcurve" smooth="yes"/>
      <point x="82" y="348"/>
      <point x="82" y="268" type="qcurve" smooth="yes"/>
      <point x="82" y="188"/>
      <point x="94" y="127" type="qcurve" smooth="yes"/>
      <point x="113" y="22"/>
      <point x="164" y="22" type="qcurve" smooth="yes"/>
      <point x="208" y="22"/>
      <point x="223" y="69" type="qcurve"/>
      <point x="254" y="32" type="line"/>
      <point x="240" y="28"/>
      <point x="233" y="23" type="qcurve" smooth="yes"/>
      <point x="189" y="-6"/>
    </contour>
  </outline>
</glyph>
<glyph name="d" format="1">
  <advance width="298"/>
  <unicode hex="0064"/>
  <outline>
    <contour>
      <point x="85" y="0" type="qcurve" smooth="yes"/>
      <point x="-2" y="0" type="line"/>
      <point x="11" y="19" type="line"/>
      <point x="11" y="510" type="line"/>
      <point x="-2" y="529" type="line"/>
      <point x="102" y="529" type="line" smooth="yes"/>
      <point x="165" y="529"/>
      <point x="207" y="478" type="qcurve" smooth="yes"/>
      <point x="261" y="411"/>
      <point x="261" y="264" type="qcurve" smooth="yes"/>
      <point x="261" y="135"/>
      <point x="204" y="63" type="qcurve" smooth="yes"/>
      <point x="154" y="0"/>
    </contour>
    <contour>
      <point x="81" y="509" type="qcurve"/>
      <point x="81" y="19" type="line"/>
      <point x="121" y="22"/>
      <point x="149" y="94" type="qcurve" smooth="yes"/>
      <point x="178" y="166"/>
      <point x="178" y="263" type="qcurve" smooth="yes"/>
      <point x="178" y="400"/>
      <point x="153" y="457" type="qcurve" smooth="yes"/>
      <point x="131" y="507"/>
    </contour>
  </outline>
</glyph>
<glyph name="e" format="1">
  <advance width="232"/>
  <unicode hex="0065"/>
  <outline>
    <contour>
      <point x="195" y="0" type="line"/>
      <point x="-2" y="0" type="line"/>
      <point x="11" y="19" type="line"/>
      <point x="11" y="510" type="line"/>
      <point x="-2" y="529" type="line"/>
      <point x="179" y="529" type="line"/>
      <point x="189" y="497" type="line"/>
      <point x="149" y="508" type="line"/>
      <point x="81" y="508" type="line"/>
      <point x="81" y="380" type="line"/>
      <point x="141" y="380" type="line"/>
      <point x="168" y="386" type="line"/>
      <point x="168" y="353" type="line"/>
      <point x="141" y="359" type="line"/>
      <point x="81" y="359" type="line"/>
      <point x="81" y="21" type="line"/>
      <point x="165" y="21" type="line"/>
      <point x="206" y="32" type="line"/>
    </contour>
  </outline>
</glyph>
<glyph name="f" format="1">
  <advance width="218"/>
  <unicode hex="0066"/>
  <outline>
    <contour>
      <point x="149" y="508" type="line"/>
      <point x="81" y="508" type="line"/>
      <point x="81" y="381" type="line"/>
      <point x="141" y="381" type="line"/>
      <point x="168" y="387" type="line"/>
      <point x="168" y="354" type="line"/>
      <point x="141" y="360" type="line"/>
      <point x="81" y="360" type="line"/>
      <point x="81" y="20" type="line"/>
      <point x="94" y="0" type="line"/>
      <point x="-2" y="0" type="line"/>
      <point x="11" y="20" type="line"/>
      <point x="11" y="510" type="line"/>
      <point x="-2" y="529" type="line"/>
      <point x="179" y="529" type="line"/>
      <point x="189" y="497" type="line"/>
    </contour>
  </outline>
</glyph>
<glyph name="g" format="1">
  <advance width="292"/>
  <unicode hex="0067"/>
  <outline>
    <contour>
      <point x="243" y="332" type="line"/>
      <point x="243" y="65" type="line" smooth="yes"/>
      <point x="243" y="57"/>
      <point x="235" y="43" type="qcurve" smooth="yes"/>
      <point x="202" y="-10"/>
      <point x="147" y="-10" type="qcurve" smooth="yes"/>
      <point x="115" y="-10"/>
      <point x="87" y="12" type="qcurve" smooth="yes"/>
      <point x="-1" y="78"/>
      <point x="-1" y="263" type="qcurve" smooth="yes"/>
      <point x="-1" y="447"/>
      <point x="87" y="514" type="qcurve" smooth="yes"/>
      <point x="115" y="535"/>
      <point x="152" y="535" type="qcurve" smooth="yes"/>
      <point x="182" y="535"/>
      <point x="202" y="522" type="qcurve" smooth="yes"/>
      <point x="228" y="506"/>
      <point x="241" y="503" type="qcurve"/>
      <point x="213" y="468" type="line"/>
      <point x="204" y="513"/>
      <point x="160" y="513" type="qcurve" smooth="yes"/>
      <point x="82" y="513"/>
      <point x="82" y="198" type="qcurve" smooth="yes"/>
      <point x="82" y="12"/>
      <point x="143" y="12" type="qcurve" smooth="yes"/>
      <point x="174" y="12"/>
      <point x="174" y="55" type="qcurve" smooth="yes"/>
      <point x="174" y="332" type="line"/>
      <point x="160" y="352" type="line"/>
      <point x="257" y="352" type="line"/>
    </contour>
  </outline>
</glyph>
<glyph name="h" format="1">
  <advance width="288"/>
  <unicode hex="0068"/>
  <outline>
    <contour>
      <point x="151" y="0" type="line"/>
      <point x="164" y="19" type="line"/>
      <point x="164" y="360" type="line"/>
      <point x="81" y="360" type="line"/>
      <point x="81" y="19" type="line"/>
      <point x="94" y="0" type="line"/>
      <point x="-2" y="0" type="line"/>
      <point x="11" y="19" type="line"/>
      <point x="11" y="510" type="line"/>
      <point x="-2" y="529" type="line"/>
      <point x="94" y="529" type="line"/>
      <point x="81" y="510" type="line"/>
      <point x="81" y="381" type="line"/>
      <point x="164" y="381" type="line"/>
      <point x="164" y="510" type="line"/>
      <point x="151" y="529" type="line"/>
      <point x="247" y="529" type="line"/>
      <point x="234" y="510" type="line"/>
      <point x="234" y="19" type="line"/>
      <point x="247" y="0" type="line"/>
    </contour>
  </outline>
</glyph>
<glyph name="i" format="1">
  <advance width="158"/>
  <unicode hex="0069"/>
  <outline>
    <contour>
      <point x="17" y="0" type="line"/>
      <point x="30" y="19" type="line"/>
      <point x="30" y="510" type="line"/>
      <point x="17" y="529" type="line"/>
      <point x="113" y="529" type="line"/>
      <point x="100" y="510" type="line"/>
      <point x="100" y="19" type="line"/>
      <point x="113" y="0" type="line"/>
    </contour>
  </outline>
</glyph>
<glyph name="j" format="1">
  <advance width="233"/>
  <unicode hex="006A"/>
  <outline>
    <contour>
      <point x="174" y="510" type="line"/>
      <point x="174" y="63" type="line" smooth="yes"/>
      <point x="174" y="45"/>
      <point x="148" y="19" type="qcurve" smooth="yes"/>
      <point x="117" y="-12"/>
      <point x="77" y="-12" type="qcurve" smooth="yes"/>
      <point x="48" y="-12"/>
      <point x="13" y="17" type="qcurve" smooth="yes"/>
      <point x="6" y="24"/>
      <point x="-2" y="27" type="qcurve"/>
      <point x="27" y="59" type="line"/>
      <point x="42" y="10"/>
      <point x="104" y="10"/>
      <point x="104" y="53" type="qcurve" smooth="yes"/>
      <point x="104" y="510" type="line"/>
      <point x="91" y="529" type="line"/>
      <point x="187" y="529" type="line"/>
    </contour>
  </outline>
</glyph>
<glyph name="k" format="1">
  <advance width="285"/>
  <unicode hex="006B"/>
  <outline>
    <contour>
      <point x="166" y="0" type="line"/>
      <point x="173" y="19" type="line"/>
      <point x="105" y="347" type="line"/>
      <point x="81" y="309" type="line"/>
      <point x="81" y="19" type="line"/>
      <point x="94" y="0" type="line"/>
      <point x="-2" y="0" type="line"/>
      <point x="11" y="19" type="line"/>
      <point x="11" y="510" type="line"/>
      <point x="-2" y="529" type="line"/>
      <point x="94" y="529" type="line"/>
      <point x="81" y="510" type="line"/>
      <point x="81" y="350" type="line"/>
      <point x="177" y="510" type="line"/>
      <point x="172" y="529" type="line"/>
      <point x="226" y="529" type="line"/>
      <point x="206" y="509" type="line"/>
      <point x="152" y="422" type="line"/>
      <point x="244" y="19" type="line"/>
      <point x="259" y="0" type="line"/>
    </contour>
  </outline>
</glyph>
<glyph name="l" format="1">
  <advance width="232"/>
  <unicode hex="006C"/>
  <outline>
    <contour>
      <point x="195" y="0" type="line"/>
      <point x="-2" y="0" type="line"/>
      <point x="11" y="19" type="line"/>
      <point x="11" y="510" type="line"/>
      <point x="-2" y="529" type="line"/>
      <point x="94" y="529" type="line"/>
      <point x="81" y="510" type="line"/>
      <point x="81" y="21" type="line"/>
      <point x="165" y="21" type="line"/>
      <point x="206" y="32" type="line"/>
    </contour>
  </outline>
</glyph>
<glyph name="m" format="1">
  <advance width="385"/>
  <unicode hex="006D"/>
  <outline>
    <contour>
      <point x="257" y="0" type="line"/>
      <point x="268" y="19" type="line"/>
      <point x="268" y="417" type="line"/>
      <point x="167" y="0" type="line"/>
      <point x="128" y="0" type="line"/>
      <point x="38" y="412" type="line"/>
      <point x="38" y="19" type="line"/>
      <point x="49" y="0" type="line"/>
      <point x="-2" y="0" type="line"/>
      <point x="9" y="19" type="line"/>
      <point x="9" y="510" type="line"/>
      <point x="-2" y="529" type="line"/>
      <point x="88" y="529" type="line"/>
      <point x="172" y="146" type="line"/>
      <point x="265" y="529" type="line"/>
      <point x="349" y="529" type="line"/>
      <point x="338" y="510" type="line"/>
      <point x="338" y="19" type="line"/>
      <point x="349" y="0" type="line"/>
    </contour>
  </outline>
</glyph>
<glyph name="o" format="1">
  <advance width="331"/>
  <unicode hex="006F"/>
  <outline>
    <contour>
      <point x="147" y="-6" type="qcurve" smooth="yes"/>
      <point x="90" y="-6"/>
      <point x="48" y="58" type="qcurve" smooth="yes"/>
      <point x="-1" y="134"/>
      <point x="-1" y="265" type="qcurve" smooth="yes"/>
      <point x="-1" y="398"/>
      <point x="48" y="472" type="qcurve" smooth="yes"/>
      <point x="90" y="537"/>
      <point x="204" y="537"/>
      <point x="245" y="472" type="qcurve"/>
      <point x="294" y="398"/>
      <point x="294" y="132"/>
      <point x="245" y="58" type="qcurve"/>
      <point x="205" y="-6"/>
    </contour>
    <contour>
      <point x="83" y="514"/>
      <point x="83" y="264" type="qcurve" smooth="yes"/>
      <point x="83" y="13"/>
      <point x="209" y="13"/>
      <point x="209" y="264" type="qcurve" smooth="yes"/>
      <point x="209" y="514"/>
    </contour>
  </outline>
</glyph>
<glyph name="p" format="1">
  <advance width="280"/>
  <unicode hex="0070"/>
  <outline>
    <contour>
      <point x="113" y="313" type="qcurve" smooth="yes"/>
      <point x="81" y="313" type="line"/>
      <point x="81" y="19" type="line"/>
      <point x="94" y="0" type="line"/>
      <point x="-2" y="0" type="line"/>
      <point x="11" y="19" type="line"/>
      <point x="11" y="510" type="line"/>
      <point x="-2" y="529" type="line"/>
      <point x="106" y="529" type="line" smooth="yes"/>
      <point x="170" y="529"/>
      <point x="212" y="502" type="qcurve" smooth="yes"/>
      <point x="256" y="474"/>
      <point x="256" y="428" type="qcurve" smooth="yes"/>
      <point x="256" y="386"/>
      <point x="220" y="352" type="qcurve" smooth="yes"/>
      <point x="180" y="313"/>
    </contour>
    <contour>
      <point x="102" y="508" type="qcurve" smooth="yes"/>
      <point x="81" y="508" type="line"/>
      <point x="81" y="336" type="line"/>
      <point x="103" y="336" type="line" smooth="yes"/>
      <point x="135" y="336"/>
      <point x="156" y="364" type="qcurve"/>
      <point x="179" y="390"/>
      <point x="179" y="436" type="qcurve" smooth="yes"/>
      <point x="179" y="467"/>
      <point x="157" y="488" type="qcurve"/>
      <point x="134" y="508"/>
    </contour>
  </outline>
</glyph>
<glyph name="q" format="1">
  <advance width="331"/>
  <unicode hex="0071"/>
  <outline>
    <contour>
      <point x="180" y="2" type="qcurve"/>
      <point x="205" y="-21"/>
      <point x="242" y="-33" type="qcurve"/>
      <point x="175" y="-66" type="line"/>
      <point x="167" y="-60"/>
      <point x="161" y="-52" type="qcurve" smooth="yes"/>
      <point x="147" y="-31"/>
      <point x="141" y="-4" type="qcurve"/>
      <point x="85" y="1"/>
      <point x="45" y="64" type="qcurve" smooth="yes"/>
      <point x="-1" y="137"/>
      <point x="-1" y="265" type="qcurve" smooth="yes"/>
      <point x="-1" y="396"/>
      <point x="48" y="470" type="qcurve" smooth="yes"/>
      <point x="90" y="534"/>
      <point x="147" y="534" type="qcurve" smooth="yes"/>
      <point x="205" y="534"/>
      <point x="245" y="470" type="qcurve"/>
      <point x="294" y="396"/>
      <point x="294" y="265" type="qcurve" smooth="yes"/>
      <point x="294" y="155"/>
      <point x="259" y="83" type="qcurve"/>
      <point x="227" y="21"/>
    </contour>
    <contour>
      <point x="83" y="512"/>
      <point x="83" y="263" type="qcurve" smooth="yes"/>
      <point x="83" y="29"/>
      <point x="138" y="16" type="qcurve"/>
      <point x="137" y="23"/>
      <point x="137" y="37" type="qcurve"/>
      <point x="155" y="47" type="line"/>
      <point x="158" y="31"/>
      <point x="165" y="21" type="qcurve"/>
      <point x="209" y="53"/>
      <point x="209" y="263" type="qcurve" smooth="yes"/>
      <point x="209" y="512"/>
    </contour>
  </outline>
</glyph>
<glyph name="r" format="1">
  <advance width="320"/>
  <unicode hex="0072"/>
  <outline>
    <contour>
      <point x="284" y="0" type="qcurve" smooth="yes"/>
      <point x="239" y="0"/>
      <point x="210" y="41" type="qcurve"/>
      <point x="192" y="69"/>
      <point x="166" y="142" type="qcurve" smooth="yes"/>
      <point x="145" y="201"/>
      <point x="124" y="359" type="qcurve"/>
      <point x="81" y="359" type="line"/>
      <point x="81" y="19" type="line"/>
      <point x="94" y="0" type="line"/>
      <point x="-2" y="0" type="line"/>
      <point x="11" y="19" type="line"/>
      <point x="11" y="510" type="line"/>
      <point x="-2" y="529" type="line"/>
      <point x="135" y="529" type="line" smooth="yes"/>
      <point x="173" y="529"/>
      <point x="206" y="516" type="qcurve" smooth="yes"/>
      <point x="266" y="494"/>
      <point x="268" y="440" type="qcurve" smooth="yes"/>
      <point x="268" y="414"/>
      <point x="244" y="393" type="qcurve" smooth="yes"/>
      <point x="222" y="373"/>
      <point x="191" y="365" type="qcurve"/>
      <point x="192" y="310"/>
      <point x="199" y="262" type="qcurve" smooth="yes"/>
      <point x="224" y="87"/>
      <point x="251" y="43" type="qcurve" smooth="yes"/>
      <point x="268" y="16"/>
      <point x="280" y="14" type="qcurve" smooth="yes"/>
      <point x="293" y="11"/>
      <point x="293" y="6" type="qcurve" smooth="yes"/>
      <point x="293" y="0"/>
    </contour>
    <contour>
      <point x="114" y="508" type="qcurve" smooth="yes"/>
      <point x="81" y="508" type="line"/>
      <point x="81" y="383" type="line"/>
      <point x="121" y="383" type="line" smooth="yes"/>
      <point x="146" y="383"/>
      <point x="169" y="401" type="qcurve" smooth="yes"/>
      <point x="191" y="419"/>
      <point x="191" y="441" type="qcurve" smooth="yes"/>
      <point x="191" y="471"/>
      <point x="169" y="490" type="qcurve" smooth="yes"/>
      <point x="147" y="508"/>
    </contour>
  </outline>
</glyph>
<glyph name="s" format="1">
  <advance width="250"/>
  <unicode hex="0073"/>
  <outline>
    <contour>
      <point x="-14" y="15" type="qcurve"/>
      <point x="1" y="89" type="line"/>
      <point x="25" y="19"/>
      <point x="86" y="19" type="qcurve" smooth="yes"/>
      <point x="117" y="19"/>
      <point x="138" y="44" type="qcurve" smooth="yes"/>
      <point x="159" y="70"/>
      <point x="159" y="101" type="qcurve" smooth="yes"/>
      <point x="159" y="159"/>
      <point x="70" y="266" type="qcurve" smooth="yes"/>
      <point x="-2" y="353"/>
      <point x="-8" y="410" type="qcurve" smooth="yes"/>
      <point x="-14" y="468"/>
      <point x="25" y="506" type="qcurve" smooth="yes"/>
      <point x="60" y="540"/>
      <point x="114" y="540" type="qcurve" smooth="yes"/>
      <point x="150" y="540"/>
      <point x="182" y="522" type="qcurve" smooth="yes"/>
      <point x="188" y="519"/>
      <point x="203" y="514" type="qcurve"/>
      <point x="174" y="475" type="line"/>
      <point x="157" y="513"/>
      <point x="127" y="517" type="qcurve" smooth="yes"/>
      <point x="100" y="521"/>
      <point x="78" y="504" type="qcurve" smooth="yes"/>
      <point x="57" y="488"/>
      <point x="57" y="454" type="qcurve" smooth="yes"/>
      <point x="57" y="432"/>
      <point x="68" y="404" type="qcurve" smooth="yes"/>
      <point x="85" y="363"/>
      <point x="163" y="265" type="qcurve"/>
      <point x="223" y="188"/>
      <point x="223" y="128" type="qcurve" smooth="yes"/>
      <point x="223" y="75"/>
      <point x="183" y="32" type="qcurve" smooth="yes"/>
      <point x="140" y="-13"/>
      <point x="83" y="-13" type="qcurve" smooth="yes"/>
      <point x="59" y="-13"/>
      <point x="37" y="-2" type="qcurve" smooth="yes"/>
      <point x="7" y="12"/>
      <point x="2" y="12" type="qcurve"/>
      <point x="0" y="13"/>
    </contour>
  </outline>
</glyph>
<glyph name="t" format="1">
  <advance width="252"/>
  <unicode hex="0074"/>
  <outline>
    <contour>
      <point x="185" y="508" type="line"/>
      <point x="146" y="508" type="line"/>
      <point x="146" y="19" type="line"/>
      <point x="159" y="0" type="line"/>
      <point x="63" y="0" type="line"/>
      <point x="76" y="19" type="line"/>
      <point x="76" y="508" type="line"/>
      <point x="37" y="508" type="line"/>
      <point x="-2" y="497" type="line"/>
      <point x="7" y="529" type="line"/>
      <point x="216" y="529" type="line"/>
      <point x="225" y="497" type="line"/>
    </contour>
  </outline>
</glyph>
<glyph name="v" format="1">
  <advance width="312"/>
  <unicode hex="0076"/>
  <outline>
    <contour>
      <point x="271" y="510" type="line"/>
      <point x="164" y="0" type="line"/>
      <point x="120" y="0" type="line"/>
      <point x="12" y="510" type="line"/>
      <point x="-2" y="529" type="line"/>
      <point x="102" y="529" type="line"/>
      <point x="95" y="510" type="line"/>
      <point x="169" y="158" type="line"/>
      <point x="242" y="510" type="line"/>
      <point x="237" y="529" type="line"/>
      <point x="285" y="529" type="line"/>
    </contour>
  </outline>
</glyph>
<glyph name="w" format="1">
  <advance width="544"/>
  <unicode hex="0077"/>
  <outline>
    <contour>
      <point x="503" y="510" type="line"/>
      <point x="397" y="0" type="line"/>
      <point x="353" y="0" type="line"/>
      <point x="258" y="449" type="line"/>
      <point x="164" y="0" type="line"/>
      <point x="120" y="0" type="line"/>
      <point x="12" y="510" type="line"/>
      <point x="-2" y="529" type="line"/>
      <point x="102" y="529" type="line"/>
      <point x="95" y="510" type="line"/>
      <point x="169" y="158" type="line"/>
      <point x="242" y="510" type="line"/>
      <point x="236" y="529" type="line"/>
      <point x="335" y="529" type="line"/>
      <point x="328" y="510" type="line"/>
      <point x="402" y="158" type="line"/>
      <point x="475" y="510" type="line"/>
      <point x="469" y="529" type="line"/>
      <point x="518" y="529" type="line"/>
    </contour>
  </outline>
</glyph>
<glyph name="x" format="1">
  <advance width="298"/>
  <unicode hex="0078"/>
  <outline>
    <contour>
      <point x="175" y="0" type="line"/>
      <point x="184" y="19" type="line"/>
      <point x="111" y="258" type="line"/>
      <point x="36" y="19" type="line"/>
      <point x="41" y="0" type="line"/>
      <point x="-2" y="0" type="line"/>
      <point x="11" y="20" type="line"/>
      <point x="97" y="302" type="line"/>
      <point x="34" y="510" type="line"/>
      <point x="21" y="529" type="line"/>
      <point x="114" y="529" type="line"/>
      <point x="107" y="510" type="line"/>
      <point x="155" y="356" type="line"/>
      <point x="202" y="510" type="line"/>
      <point x="197" y="529" type="line"/>
      <point x="242" y="529" type="line"/>
      <point x="229" y="510" type="line"/>
      <point x="168" y="313" type="line"/>
      <point x="258" y="20" type="line"/>
      <point x="272" y="0" type="line"/>
    </contour>
  </outline>
</glyph>
<glyph name="z" format="1">
  <advance width="259"/>
  <unicode hex="007A"/>
  <outline>
    <contour>
      <point x="222" y="0" type="line"/>
      <point x="-1" y="0" type="line"/>
      <point x="141" y="509" type="line"/>
      <point x="74" y="509" type="line"/>
      <point x="34" y="497" type="line"/>
      <point x="43" y="529" type="line"/>
      <point x="218" y="529" type="line"/>
      <point x="75" y="21" type="line"/>
      <point x="192" y="21" type="line"/>
      <point x="232" y="32" type="line"/>
    </contour>
  </outline>
</glyph>
<glyph name="braceleft" format="1">
  <advance width="261"/>
  <unicode hex="007B"/>
  <outline>
    <contour>
      <point x="66" y="297" type="qcurve"/>
      <point x="70" y="299"/>
      <point x="85" y="305"/>
      <point x="97" y="310"/>
      <point x="102" y="312" type="qcurve" smooth="yes"/>
      <point x="122" y="322"/>
      <point x="128" y="333" type="qcurve" smooth="yes"/>
      <point x="140" y="352"/>
      <point x="140" y="389" type="qcurve" smooth="yes"/>
      <point x="140" y="418"/>
      <point x="128" y="481" type="qcurve"/>
      <point x="117" y="547"/>
      <point x="117" y="570" type="qcurve" smooth="yes"/>
      <point x="117" y="606"/>
      <point x="132" y="622" type="qcurve" smooth="yes"/>
      <point x="152" y="642"/>
      <point x="186" y="642" type="qcurve" smooth="yes"/>
      <point x="209" y="642"/>
      <point x="231" y="628" type="qcurve"/>
      <point x="231" y="675" type="line"/>
      <point x="132" y="675"/>
      <point x="106" y="646" type="qcurve" smooth="yes"/>
      <point x="80" y="618"/>
      <point x="80" y="566" type="qcurve" smooth="yes"/>
      <point x="80" y="539"/>
      <point x="87" y="490" type="qcurve" smooth="yes"/>
      <point x="94" y="442"/>
      <point x="94" y="415" type="qcurve" smooth="yes"/>
      <point x="94" y="368"/>
      <point x="50" y="318"/>
      <point x="22" y="306" type="qcurve" smooth="yes"/>
      <point x="10" y="301"/>
      <point x="0" y="296"/>
      <point x="0" y="297" type="qcurve" smooth="yes"/>
      <point x="24" y="288" type="line"/>
      <point x="53" y="273"/>
      <point x="74" y="250" type="qcurve"/>
      <point x="94" y="225"/>
      <point x="94" y="181" type="qcurve" smooth="yes"/>
      <point x="94" y="153"/>
      <point x="86" y="106" type="qcurve"/>
      <point x="79" y="47"/>
      <point x="79" y="30" type="qcurve" smooth="yes"/>
      <point x="79" y="-21"/>
      <point x="105" y="-49" type="qcurve" smooth="yes"/>
      <point x="134" y="-79"/>
      <point x="231" y="-79" type="qcurve"/>
      <point x="231" y="-33" type="line"/>
      <point x="209" y="-47"/>
      <point x="186" y="-47" type="qcurve" smooth="yes"/>
      <point x="150" y="-47"/>
      <point x="132" y="-27" type="qcurve" smooth="yes"/>
      <point x="117" y="-11"/>
      <point x="117" y="26" type="qcurve" smooth="yes"/>
      <point x="117" y="48"/>
      <point x="128" y="114" type="qcurve"/>
      <point x="140" y="178"/>
      <point x="140" y="207" type="qcurve" smooth="yes"/>
      <point x="140" y="241"/>
      <point x="128" y="262" type="qcurve"/>
      <point x="116" y="280"/>
    </contour>
  </outline>
</glyph>
<glyph name="bar" format="1">
  <advance width="68"/>
  <unicode hex="007C"/>
  <outline>
    <contour>
      <point x="38" y="654" type="line"/>
      <point x="0" y="654" type="line"/>
      <point x="1" y="-63" type="line"/>
      <point x="38" y="-63" type="line"/>
    </contour>
  </outline>
</glyph>
<glyph name="braceright" format="1">
  <advance width="262"/>
  <unicode hex="007D"/>
  <outline>
    <contour>
      <point x="166" y="297" type="qcurve"/>
      <point x="162" y="299"/>
      <point x="147" y="305"/>
      <point x="135" y="310"/>
      <point x="130" y="312" type="qcurve" smooth="yes"/>
      <point x="111" y="321"/>
      <point x="104" y="333" type="qcurve" smooth="yes"/>
      <point x="92" y="353"/>
      <point x="92" y="389" type="qcurve" smooth="yes"/>
      <point x="92" y="415"/>
      <point x="114" y="547"/>
      <point x="114" y="570" type="qcurve" smooth="yes"/>
      <point x="114" y="606"/>
      <point x="99" y="622" type="qcurve" smooth="yes"/>
      <point x="79" y="642"/>
      <point x="46" y="642" type="qcurve" smooth="yes"/>
      <point x="21" y="642"/>
      <point x="1" y="628" type="qcurve"/>
      <point x="1" y="675" type="line"/>
      <point x="98" y="675"/>
      <point x="127" y="645" type="qcurve" smooth="yes"/>
      <point x="152" y="619"/>
      <point x="152" y="566" type="qcurve" smooth="yes"/>
      <point x="152" y="539"/>
      <point x="145" y="490" type="qcurve" smooth="yes"/>
      <point x="138" y="442"/>
      <point x="138" y="415" type="qcurve" smooth="yes"/>
      <point x="138" y="368"/>
      <point x="182" y="318"/>
      <point x="209" y="306" type="qcurve" smooth="yes"/>
      <point x="216" y="303"/>
      <point x="227" y="298"/>
      <point x="232" y="296"/>
      <point x="232" y="297" type="qcurve" smooth="yes"/>
      <point x="208" y="288" type="line"/>
      <point x="180" y="275"/>
      <point x="158" y="250" type="qcurve" smooth="yes"/>
      <point x="137" y="226"/>
      <point x="137" y="181" type="qcurve" smooth="yes"/>
      <point x="137" y="167"/>
      <point x="144" y="106" type="qcurve"/>
      <point x="152" y="61"/>
      <point x="152" y="30" type="qcurve" smooth="yes"/>
      <point x="152" y="-23"/>
      <point x="127" y="-49" type="qcurve" smooth="yes"/>
      <point x="98" y="-79"/>
      <point x="1" y="-79" type="qcurve"/>
      <point x="1" y="-33" type="line"/>
      <point x="21" y="-47"/>
      <point x="46" y="-47" type="qcurve" smooth="yes"/>
      <point x="81" y="-47"/>
      <point x="99" y="-27" type="qcurve"/>
      <point x="115" y="-11"/>
      <point x="115" y="26" type="qcurve" smooth="yes"/>
      <point x="115" y="48"/>
      <point x="104" y="114" type="qcurve"/>
      <point x="92" y="178"/>
      <point x="92" y="207" type="qcurve" smooth="yes"/>
      <point x="92" y="241"/>
      <point x="104" y="262" type="qcurve"/>
      <point x="116" y="280"/>
    </contour>
  </outline>
</glyph>
<glyph name="asciitilde" format="1">
  <advance width="214"/>
  <unicode hex="007E"/>
  <outline>
    <contour>
      <point x="184" y="708" type="qcurve"/>
      <point x="184" y="678" type="line"/>
      <point x="158" y="656"/>
      <point x="131" y="656" type="qcurve" smooth="yes"/>
      <point x="119" y="656"/>
      <point x="65" y="678"/>
      <point x="53" y="678" type="qcurve" smooth="yes"/>
      <point x="34" y="678"/>
      <point x="0" y="652" type="qcurve"/>
      <point x="0" y="681" type="line"/>
      <point x="29" y="704"/>
      <point x="55" y="704" type="qcurve" smooth="yes"/>
      <point x="68" y="704"/>
      <point x="122" y="682"/>
      <point x="132" y="682" type="qcurve" smooth="yes"/>
      <point x="155" y="682"/>
    </contour>
  </outline>
</glyph>
<glyph name="exclamdown" format="1">
  <advance width="122"/>
  <unicode hex="00A1"/>
  <outline>
    <contour>
      <point x="2" y="38" type="qcurve" smooth="yes"/>
      <point x="34" y="489" type="line"/>
      <point x="36" y="500"/>
      <point x="44" y="500" type="qcurve" smooth="yes"/>
      <point x="53" y="500"/>
      <point x="55" y="489" type="qcurve"/>
      <point x="87" y="38" type="line" smooth="yes"/>
      <point x="90" y="0"/>
      <point x="43" y="0" type="qcurve" smooth="yes"/>
      <point x="-1" y="0"/>
    </contour>
    <contour>
      <point x="92" y="555"/>
      <point x="78" y="544" type="qcurve"/>
      <point x="67" y="530"/>
      <point x="25" y="530"/>
      <point x="14" y="544" type="qcurve"/>
      <point x="0" y="555"/>
      <point x="0" y="597"/>
      <point x="14" y="608" type="qcurve"/>
      <point x="27" y="622"/>
      <point x="46" y="622" type="qcurve" smooth="yes"/>
      <point x="67" y="622"/>
      <point x="78" y="608" type="qcurve"/>
      <point x="92" y="597"/>
    </contour>
  </outline>
</glyph>
<glyph name="cent" format="1">
  <advance width="234"/>
  <unicode hex="00A2"/>
  <outline>
    <contour>
      <point x="131" y="240" type="line"/>
      <point x="158" y="241"/>
      <point x="172" y="271" type="qcurve"/>
      <point x="174" y="277" type="line"/>
      <point x="203" y="243" type="line"/>
      <point x="198" y="242" type="line" smooth="yes"/>
      <point x="191" y="240"/>
      <point x="184" y="236" type="qcurve"/>
      <point x="162" y="218"/>
      <point x="131" y="215" type="qcurve"/>
      <point x="131" y="182" type="line"/>
      <point x="104" y="182" type="line"/>
      <point x="104" y="217" type="line"/>
      <point x="46" y="229"/>
      <point x="18" y="305" type="qcurve" smooth="yes"/>
      <point x="0" y="353"/>
      <point x="0" y="412" type="qcurve" smooth="yes"/>
      <point x="0" y="498"/>
      <point x="32" y="550" type="qcurve"/>
      <point x="61" y="594"/>
      <point x="104" y="603" type="qcurve"/>
      <point x="104" y="633" type="line"/>
      <point x="131" y="633" type="line"/>
      <point x="131" y="605" type="line"/>
      <point x="155" y="605"/>
      <point x="176" y="590" type="qcurve"/>
      <point x="181" y="588"/>
      <point x="191" y="585" type="qcurve" smooth="yes"/>
      <point x="196" y="583" type="line"/>
      <point x="166" y="549" type="line"/>
      <point x="164" y="555"/>
      <point x="163" y="560" type="qcurve"/>
      <point x="154" y="581"/>
      <point x="131" y="583" type="qcurve"/>
    </contour>
    <contour>
      <point x="104" y="253" type="qcurve"/>
      <point x="104" y="573" type="line"/>
      <point x="69" y="536"/>
      <point x="69" y="412" type="qcurve" smooth="yes"/>
      <point x="69" y="291"/>
    </contour>
  </outline>
</glyph>
<glyph name="sterling" format="1">
  <advance width="325"/>
  <unicode hex="00A3"/>
  <outline>
    <contour>
      <point x="39" y="471" type="qcurve"/>
      <point x="32" y="535"/>
      <point x="76" y="576" type="qcurve" smooth="yes"/>
      <point x="117" y="614"/>
      <point x="179" y="614" type="qcurve" smooth="yes"/>
      <point x="224" y="614"/>
      <point x="264" y="591" type="qcurve" smooth="yes"/>
      <point x="270" y="587"/>
      <point x="289" y="583" type="qcurve"/>
      <point x="255" y="541" type="line"/>
      <point x="250" y="552"/>
      <point x="241" y="562" type="qcurve" smooth="yes"/>
      <point x="222" y="584"/>
      <point x="197" y="587" type="qcurve" smooth="yes"/>
      <point x="192" y="588"/>
      <point x="181" y="588" type="qcurve" smooth="yes"/>
      <point x="108" y="588"/>
      <point x="108" y="506" type="qcurve" smooth="yes"/>
      <point x="108" y="482"/>
      <point x="133" y="392" type="qcurve"/>
      <point x="212" y="392" type="line"/>
      <point x="239" y="399" type="line"/>
      <point x="239" y="364" type="line"/>
      <point x="211" y="370" type="line"/>
      <point x="138" y="370" type="line"/>
      <point x="154" y="302"/>
      <point x="154" y="219" type="qcurve" smooth="yes"/>
      <point x="154" y="107"/>
      <point x="128" y="23" type="qcurve"/>
      <point x="253" y="23" type="line"/>
      <point x="294" y="35" type="line"/>
      <point x="284" y="1" type="line"/>
      <point x="30" y="1" type="line"/>
      <point x="47" y="23" type="line"/>
      <point x="83" y="96"/>
      <point x="83" y="192" type="qcurve" smooth="yes"/>
      <point x="83" y="264"/>
      <point x="59" y="370" type="qcurve"/>
      <point x="0" y="370" type="line"/>
      <point x="0" y="392" type="line"/>
      <point x="54" y="392" type="line"/>
      <point x="49" y="414"/>
    </contour>
  </outline>
</glyph>
<glyph name="currency" format="1">
  <advance width="344"/>
  <unicode hex="00A4"/>
  <outline>
    <contour>
      <point x="133" y="302" type="qcurve" smooth="yes"/>
      <point x="133" y="182"/>
      <point x="153" y="105" type="qcurve" smooth="yes"/>
      <point x="175" y="20"/>
      <point x="221" y="20" type="qcurve" smooth="yes"/>
      <point x="264" y="20"/>
      <point x="284" y="74" type="qcurve"/>
      <point x="314" y="34" type="line"/>
      <point x="303" y="30"/>
      <point x="293" y="24" type="qcurve"/>
      <point x="257" y="-9"/>
      <point x="211" y="-9" type="qcurve" smooth="yes"/>
      <point x="118" y="-9"/>
      <point x="72" y="130" type="qcurve" smooth="yes"/>
      <point x="46" y="208"/>
      <point x="46" y="302" type="qcurve" smooth="yes"/>
      <point x="46" y="336"/>
      <point x="49" y="366" type="qcurve"/>
      <point x="0" y="366" type="line"/>
      <point x="0" y="388" type="line"/>
      <point x="51" y="388" type="line"/>
      <point x="65" y="495"/>
      <point x="110" y="552" type="qcurve" smooth="yes"/>
      <point x="149" y="601"/>
      <point x="202" y="606" type="qcurve"/>
      <point x="251" y="609"/>
      <point x="283" y="584" type="qcurve" smooth="yes"/>
      <point x="285" y="583"/>
      <point x="304" y="574" type="qcurve"/>
      <point x="274" y="535" type="line"/>
      <point x="240" y="583"/>
      <point x="216" y="583" type="qcurve" smooth="yes"/>
      <point x="149" y="583"/>
      <point x="136" y="388" type="qcurve"/>
      <point x="200" y="388" type="line"/>
      <point x="227" y="394" type="line"/>
      <point x="227" y="359" type="line"/>
      <point x="200" y="366" type="line"/>
      <point x="134" y="366" type="line"/>
      <point x="133" y="345"/>
    </contour>
  </outline>
</glyph>
<glyph name="yen" format="1">
  <advance width="281"/>
  <unicode hex="00A5"/>
  <outline>
    <contour>
      <point x="94" y="318" type="line"/>
      <point x="13" y="579" type="line"/>
      <point x="0" y="599" type="line"/>
      <point x="103" y="599" type="line"/>
      <point x="96" y="579" type="line"/>
      <point x="147" y="382" type="line"/>
      <point x="208" y="579" type="line"/>
      <point x="203" y="599" type="line"/>
      <point x="251" y="599" type="line"/>
      <point x="237" y="579" type="line"/>
      <point x="168" y="361" type="line"/>
      <point x="168" y="318" type="line"/>
      <point x="219" y="318" type="line"/>
      <point x="247" y="325" type="line"/>
      <point x="247" y="290" type="line"/>
      <point x="219" y="296" type="line"/>
      <point x="168" y="296" type="line"/>
      <point x="168" y="21" type="line"/>
      <point x="182" y="0" type="line"/>
      <point x="83" y="0" type="line"/>
      <point x="96" y="21" type="line"/>
      <point x="96" y="296" type="line"/>
      <point x="44" y="296" type="line"/>
      <point x="16" y="290" type="line"/>
      <point x="16" y="325" type="line"/>
      <point x="44" y="318" type="line"/>
    </contour>
  </outline>
</glyph>
<glyph name="dieresis" format="1">
  <advance width="183"/>
  <unicode hex="00A8"/>
  <outline>
    <contour>
      <point x="0" y="708" type="line"/>
      <point x="53" y="708" type="line"/>
      <point x="53" y="655" type="line"/>
      <point x="0" y="655" type="line"/>
    </contour>
    <contour>
      <point x="100" y="708" type="line"/>
      <point x="152" y="708" type="line"/>
      <point x="152" y="655" type="line"/>
      <point x="100" y="655" type="line"/>
    </contour>
  </outline>
</glyph>
<glyph name="copyright" format="1">
  <advance width="663"/>
  <unicode hex="00A9"/>
  <outline>
    <contour>
      <point x="317" y="612" type="qcurve" smooth="yes"/>
      <point x="448" y="612"/>
      <point x="540" y="520" type="qcurve" smooth="yes"/>
      <point x="633" y="427"/>
      <point x="633" y="167"/>
      <point x="447" y="-19"/>
      <point x="187" y="-19"/>
      <point x="94" y="74" type="qcurve" smooth="yes"/>
      <point x="0" y="167"/>
      <point x="0" y="427"/>
      <point x="93" y="520" type="qcurve"/>
      <point x="187" y="612"/>
    </contour>
    <contour>
      <point x="202" y="574"/>
      <point x="38" y="412"/>
      <point x="38" y="182"/>
      <point x="120" y="100" type="qcurve" smooth="yes"/>
      <point x="202" y="19"/>
      <point x="432" y="19"/>
      <point x="514" y="100" type="qcurve" smooth="yes"/>
      <point x="596" y="182"/>
      <point x="596" y="412"/>
      <point x="432" y="574"/>
    </contour>
    <contour>
      <point x="272" y="299" type="qcurve" smooth="yes"/>
      <point x="272" y="96"/>
      <point x="335" y="96" type="qcurve" smooth="yes"/>
      <point x="367" y="96"/>
      <point x="381" y="134" type="qcurve"/>
      <point x="403" y="105" type="line"/>
      <point x="401" y="104"/>
      <point x="388" y="98" type="qcurve"/>
      <point x="362" y="75"/>
      <point x="328" y="75" type="qcurve" smooth="yes"/>
      <point x="265" y="75"/>
      <point x="230" y="170" type="qcurve"/>
      <point x="210" y="228"/>
      <point x="210" y="299" type="qcurve" smooth="yes"/>
      <point x="210" y="406"/>
      <point x="246" y="464" type="qcurve" smooth="yes"/>
      <point x="276" y="514"/>
      <point x="322" y="517" type="qcurve" smooth="yes"/>
      <point x="357" y="520"/>
      <point x="380" y="502" type="qcurve" smooth="yes"/>
      <point x="383" y="500"/>
      <point x="396" y="495" type="qcurve"/>
      <point x="374" y="466" type="line"/>
      <point x="348" y="501"/>
      <point x="332" y="501" type="qcurve" smooth="yes"/>
      <point x="272" y="500"/>
    </contour>
  </outline>
</glyph>
<glyph name="guillemotleft" format="1">
  <advance width="329"/>
  <unicode hex="00AB"/>
  <outline>
    <contour>
      <point x="57" y="278" type="line"/>
      <point x="192" y="148" type="line"/>
      <point x="192" y="87" type="line"/>
      <point x="0" y="278" type="line"/>
      <point x="192" y="471" type="line"/>
      <point x="192" y="409" type="line"/>
    </contour>
    <contour>
      <point x="164" y="278" type="line"/>
      <point x="299" y="409" type="line"/>
      <point x="299" y="470" type="line"/>
      <point x="107" y="278" type="line"/>
      <point x="299" y="87" type="line"/>
      <point x="299" y="148" type="line"/>
    </contour>
  </outline>
</glyph>
<glyph name="registered" format="1">
  <advance width="287"/>
  <unicode hex="00AE"/>
  <outline>
    <contour>
      <point x="257" y="409"/>
      <point x="220" y="372" type="qcurve"/>
      <point x="184" y="333"/>
      <point x="74" y="333"/>
      <point x="37" y="372" type="qcurve"/>
      <point x="0" y="409"/>
      <point x="0" y="521"/>
      <point x="37" y="558" type="qcurve"/>
      <point x="74" y="597"/>
      <point x="129" y="597" type="qcurve" smooth="yes"/>
      <point x="182" y="597"/>
      <point x="220" y="558" type="qcurve" smooth="yes"/>
      <point x="257" y="521"/>
    </contour>
    <contour>
      <point x="243" y="512"/>
      <point x="210" y="548" type="qcurve"/>
      <point x="175" y="583"/>
      <point x="83" y="583"/>
      <point x="48" y="548" type="qcurve" smooth="yes"/>
      <point x="14" y="514"/>
      <point x="14" y="416"/>
      <point x="48" y="382" type="qcurve" smooth="yes"/>
      <point x="83" y="347"/>
      <point x="175" y="347"/>
      <point x="210" y="382" type="qcurve"/>
      <point x="243" y="418"/>
    </contour>
    <contour>
      <point x="116" y="543" type="line"/>
      <point x="116" y="501" type="line"/>
      <point x="129" y="501" type="line" smooth="yes"/>
      <point x="151" y="501"/>
      <point x="151" y="520" type="qcurve" smooth="yes"/>
      <point x="151" y="543"/>
      <point x="127" y="543" type="qcurve" smooth="yes"/>
    </contour>
    <contour>
      <point x="92" y="549" type="line"/>
      <point x="133" y="549" type="line" smooth="yes"/>
      <point x="174" y="549"/>
      <point x="174" y="520" type="qcurve"/>
      <point x="175" y="501"/>
      <point x="151" y="495" type="qcurve"/>
      <point x="151" y="479"/>
      <point x="153" y="461" type="qcurve" smooth="yes"/>
      <point x="160" y="406"/>
      <point x="169" y="388" type="qcurve"/>
      <point x="175" y="379"/>
      <point x="179" y="378" type="qcurve" smooth="yes"/>
      <point x="182" y="377"/>
      <point x="182" y="376" type="qcurve" smooth="yes"/>
      <point x="182" y="375"/>
      <point x="180" y="375" type="qcurve" smooth="yes"/>
      <point x="159" y="375"/>
      <point x="143" y="421" type="qcurve" smooth="yes"/>
      <point x="138" y="437"/>
      <point x="130" y="494" type="qcurve"/>
      <point x="116" y="494" type="line"/>
      <point x="116" y="381" type="line"/>
      <point x="120" y="375" type="line"/>
      <point x="92" y="375" type="line"/>
      <point x="95" y="381" type="line"/>
      <point x="95" y="543" type="line"/>
    </contour>
  </outline>
</glyph>
<glyph name="degree" format="1">
  <advance width="189"/>
  <unicode hex="00B0"/>
  <outline>
    <contour>
      <point x="80" y="772" type="qcurve" smooth="yes"/>
      <point x="112" y="772"/>
      <point x="136" y="748" type="qcurve" smooth="yes"/>
      <point x="159" y="725"/>
      <point x="159" y="659"/>
      <point x="136" y="636" type="qcurve"/>
      <point x="111" y="613"/>
      <point x="80" y="613" type="qcurve" smooth="yes"/>
      <point x="47" y="613"/>
      <point x="24" y="636" type="qcurve"/>
      <point x="0" y="658"/>
      <point x="0" y="726"/>
      <point x="24" y="748" type="qcurve"/>
      <point x="46" y="772"/>
    </contour>
    <contour>
      <point x="80" y="735" type="qcurve" smooth="yes"/>
      <point x="62" y="735"/>
      <point x="50" y="722" type="qcurve"/>
      <point x="37" y="710"/>
      <point x="37" y="692" type="qcurve" smooth="yes"/>
      <point x="37" y="675"/>
      <point x="50" y="662" type="qcurve" smooth="yes"/>
      <point x="62" y="650"/>
      <point x="80" y="650" type="qcurve" smooth="yes"/>
      <point x="96" y="650"/>
      <point x="110" y="662" type="qcurve"/>
      <point x="122" y="676"/>
      <point x="122" y="692" type="qcurve" smooth="yes"/>
      <point x="122" y="710"/>
      <point x="110" y="722" type="qcurve" smooth="yes"/>
      <point x="97" y="735"/>
    </contour>
  </outline>
</glyph>
<glyph name="acute" format="1">
  <advance width="168"/>
  <unicode hex="00B4"/>
  <outline>
    <contour>
      <point x="138" y="749" type="line"/>
      <point x="48" y="749" type="line"/>
      <point x="0" y="634" type="line"/>
      <point x="43" y="634" type="line"/>
    </contour>
  </outline>
</glyph>
<glyph name="cedilla" format="1">
  <advance width="174"/>
  <unicode hex="00B8"/>
  <outline>
    <contour>
      <point x="73" y="-4" type="line"/>
      <point x="73" y="-19" type="line"/>
      <point x="98" y="-15"/>
      <point x="122" y="-28" type="qcurve" smooth="yes"/>
      <point x="144" y="-41"/>
      <point x="144" y="-64" type="qcurve" smooth="yes"/>
      <point x="146" y="-120"/>
      <point x="57" y="-121" type="qcurve" smooth="yes"/>
      <point x="36" y="-121"/>
      <point x="0" y="-112" type="qcurve"/>
      <point x="0" y="-91" type="line"/>
      <point x="31" y="-103"/>
      <point x="54" y="-102" type="qcurve" smooth="yes"/>
      <point x="114" y="-99"/>
      <point x="112" y="-64" type="qcurve" smooth="yes"/>
      <point x="111" y="-39"/>
      <point x="69" y="-39" type="qcurve" smooth="yes"/>
      <point x="55" y="-39"/>
      <point x="40" y="-44" type="qcurve"/>
      <point x="40" y="-4" type="line"/>
    </contour>
  </outline>
</glyph>
<glyph name="ordmasculine" format="1">
  <advance width="145"/>
  <unicode hex="00BA"/>
  <outline>
    <contour>
      <point x="79" y="750"/>
      <point x="98" y="734" type="qcurve"/>
      <point x="114" y="715"/>
      <point x="114" y="671"/>
      <point x="98" y="652" type="qcurve"/>
      <point x="79" y="636"/>
      <point x="35" y="636"/>
      <point x="17" y="652" type="qcurve"/>
      <point x="0" y="671"/>
      <point x="0" y="715"/>
      <point x="17" y="734" type="qcurve"/>
      <point x="35" y="750"/>
    </contour>
    <contour>
      <point x="26" y="724"/>
      <point x="26" y="662"/>
      <point x="88" y="662"/>
      <point x="88" y="724"/>
    </contour>
  </outline>
</glyph>
<glyph name="guillemotright" format="1">
  <advance width="329"/>
  <unicode hex="00BB"/>
  <outline>
    <contour>
      <point x="242" y="278" type="line"/>
      <point x="107" y="147" type="line"/>
      <point x="107" y="86" type="line"/>
      <point x="299" y="278" type="line"/>
      <point x="107" y="471" type="line"/>
      <point x="107" y="409" type="line"/>
    </contour>
    <contour>
      <point x="134" y="278" type="line"/>
      <point x="0" y="409" type="line"/>
      <point x="0" y="469" type="line"/>
      <point x="192" y="278" type="line"/>
      <point x="0" y="86" type="line"/>
      <point x="0" y="147" type="line"/>
    </contour>
  </outline>
</glyph>
<glyph name="questiondown" format="1">
  <advance width="322"/>
  <unicode hex="00BF"/>
  <outline>
    <contour>
      <point x="0" y="134" type="qcurve"/>
      <point x="2" y="181"/>
      <point x="46" y="248" type="qcurve" smooth="yes"/>
      <point x="57" y="263"/>
      <point x="114" y="342"/>
      <point x="129" y="363" type="qcurve"/>
      <point x="171" y="431"/>
      <point x="164" y="486" type="qcurve"/>
      <point x="188" y="486" type="line"/>
      <point x="196" y="456"/>
      <point x="196" y="430" type="qcurve" smooth="yes"/>
      <point x="196" y="371"/>
      <point x="152" y="291" type="qcurve" smooth="yes"/>
      <point x="100" y="194"/>
      <point x="89" y="149" type="qcurve" smooth="yes"/>
      <point x="85" y="132"/>
      <point x="85" y="113" type="qcurve" smooth="yes"/>
      <point x="85" y="71"/>
      <point x="112" y="47" type="qcurve" smooth="yes"/>
      <point x="138" y="23"/>
      <point x="179" y="23" type="qcurve" smooth="yes"/>
      <point x="192" y="23"/>
      <point x="207" y="26" type="qcurve" smooth="yes"/>
      <point x="243" y="34"/>
      <point x="280" y="75" type="qcurve"/>
      <point x="292" y="32" type="line"/>
      <point x="287" y="33"/>
      <point x="242" y="16" type="qcurve"/>
      <point x="200" y="-2"/>
      <point x="156" y="0" type="qcurve" smooth="yes"/>
      <point x="92" y="3"/>
      <point x="49" y="34" type="qcurve"/>
      <point x="-1" y="72"/>
    </contour>
    <contour>
      <point x="225" y="551"/>
      <point x="212" y="538" type="qcurve" smooth="yes"/>
      <point x="198" y="524"/>
      <point x="160" y="524"/>
      <point x="146" y="538" type="qcurve" smooth="yes"/>
      <point x="133" y="551"/>
      <point x="133" y="589"/>
      <point x="146" y="602" type="qcurve" smooth="yes"/>
      <point x="160" y="616"/>
      <point x="198" y="616"/>
      <point x="212" y="602" type="qcurve" smooth="yes"/>
      <point x="225" y="589"/>
    </contour>
  </outline>
</glyph>
<glyph name="Aacute" format="1">
  <advance width="333"/>
  <unicode hex="00C1"/>
  <outline>
    <contour>
      <point x="83" y="300" type="line"/>
      <point x="43" y="20" type="line"/>
      <point x="49" y="0" type="line"/>
      <point x="0" y="0" type="line"/>
      <point x="14" y="20" type="line"/>
      <point x="94" y="578" type="line"/>
      <point x="90" y="599" type="line"/>
      <point x="210" y="599" type="line"/>
      <point x="206" y="578" type="line"/>
      <point x="289" y="20" type="line"/>
      <point x="303" y="0" type="line"/>
      <point x="198" y="0" type="line"/>
      <point x="205" y="20" type="line"/>
      <point x="163" y="300" type="line"/>
    </contour>
    <contour>
      <point x="123" y="578" type="line"/>
      <point x="86" y="322" type="line"/>
      <point x="160" y="322" type="line"/>
    </contour>
    <contour>
      <point x="241" y="741" type="line"/>
      <point x="168" y="741" type="line"/>
      <point x="129" y="647" type="line"/>
      <point x="164" y="647" type="line"/>
    </contour>
  </outline>
</glyph>
<glyph name="Acircumflex" format="1">
  <advance width="333"/>
  <unicode hex="00C2"/>
  <outline>
    <contour>
      <point x="83" y="300" type="line"/>
      <point x="43" y="20" type="line"/>
      <point x="49" y="0" type="line"/>
      <point x="0" y="0" type="line"/>
      <point x="14" y="20" type="line"/>
      <point x="94" y="578" type="line"/>
      <point x="90" y="599" type="line"/>
      <point x="210" y="599" type="line"/>
      <point x="206" y="578" type="line"/>
      <point x="289" y="20" type="line"/>
      <point x="303" y="0" type="line"/>
      <point x="198" y="0" type="line"/>
      <point x="205" y="20" type="line"/>
      <point x="163" y="300" type="line"/>
    </contour>
    <contour>
      <point x="123" y="578" type="line"/>
      <point x="86" y="322" type="line"/>
      <point x="160" y="322" type="line"/>
    </contour>
    <contour>
      <point x="144" y="691" type="line"/>
      <point x="85" y="642" type="line"/>
      <point x="58" y="642" type="line"/>
      <point x="144" y="728" type="line"/>
      <point x="230" y="642" type="line"/>
      <point x="204" y="642" type="line"/>
    </contour>
  </outline>
</glyph>
<glyph name="Atilde" format="1">
  <advance width="333"/>
  <unicode hex="00C3"/>
  <outline>
    <contour>
      <point x="83" y="300" type="line"/>
      <point x="43" y="20" type="line"/>
      <point x="49" y="0" type="line"/>
      <point x="0" y="0" type="line"/>
      <point x="14" y="20" type="line"/>
      <point x="94" y="578" type="line"/>
      <point x="90" y="599" type="line"/>
      <point x="210" y="599" type="line"/>
      <point x="206" y="578" type="line"/>
      <point x="289" y="20" type="line"/>
      <point x="303" y="0" type="line"/>
      <point x="198" y="0" type="line"/>
      <point x="205" y="20" type="line"/>
      <point x="163" y="300" type="line"/>
    </contour>
    <contour>
      <point x="123" y="578" type="line"/>
      <point x="86" y="322" type="line"/>
      <point x="160" y="322" type="line"/>
    </contour>
    <contour>
      <point x="243" y="691" type="qcurve"/>
      <point x="243" y="661" type="line"/>
      <point x="217" y="639"/>
      <point x="190" y="639" type="qcurve" smooth="yes"/>
      <point x="178" y="639"/>
      <point x="124" y="661"/>
      <point x="112" y="661" type="qcurve" smooth="yes"/>
      <point x="93" y="661"/>
      <point x="59" y="635" type="qcurve"/>
      <point x="59" y="664" type="line"/>
      <point x="88" y="687"/>
      <point x="113" y="687" type="qcurve" smooth="yes"/>
      <point x="127" y="687"/>
      <point x="181" y="665"/>
      <point x="191" y="665" type="qcurve" smooth="yes"/>
      <point x="214" y="665"/>
    </contour>
  </outline>
</glyph>
<glyph name="Aring" format="1">
  <advance width="333"/>
  <unicode hex="00C5"/>
  <outline>
    <contour>
      <point x="83" y="300" type="line"/>
      <point x="43" y="20" type="line"/>
      <point x="49" y="0" type="line"/>
      <point x="0" y="0" type="line"/>
      <point x="14" y="20" type="line"/>
      <point x="94" y="578" type="line"/>
      <point x="90" y="599" type="line"/>
      <point x="210" y="599" type="line"/>
      <point x="206" y="578" type="line"/>
      <point x="289" y="20" type="line"/>
      <point x="303" y="0" type="line"/>
      <point x="198" y="0" type="line"/>
      <point x="205" y="20" type="line"/>
      <point x="163" y="300" type="line"/>
    </contour>
    <contour>
      <point x="123" y="578" type="line"/>
      <point x="86" y="322" type="line"/>
      <point x="160" y="322" type="line"/>
    </contour>
    <contour>
      <point x="148" y="750" type="qcurve" smooth="yes"/>
      <point x="170" y="750"/>
      <point x="188" y="734" type="qcurve"/>
      <point x="205" y="715"/>
      <point x="205" y="671"/>
      <point x="188" y="652" type="qcurve"/>
      <point x="170" y="636"/>
      <point x="148" y="636" type="qcurve" smooth="yes"/>
      <point x="125" y="636"/>
      <point x="107" y="652" type="qcurve"/>
      <point x="90" y="671"/>
      <point x="90" y="715"/>
      <point x="107" y="734" type="qcurve"/>
      <point x="125" y="750"/>
    </contour>
    <contour>
      <point x="117" y="724"/>
      <point x="117" y="662"/>
      <point x="179" y="662"/>
      <point x="179" y="724"/>
    </contour>
  </outline>
</glyph>
<glyph name="AE" format="1">
  <advance width="434"/>
  <unicode hex="00C6"/>
  <outline>
    <contour>
      <point x="385" y="565" type="line"/>
      <point x="345" y="577" type="line"/>
      <point x="271" y="577" type="line"/>
      <point x="271" y="431" type="line"/>
      <point x="337" y="431" type="line"/>
      <point x="364" y="438" type="line"/>
      <point x="364" y="403" type="line"/>
      <point x="336" y="409" type="line"/>
      <point x="271" y="409" type="line"/>
      <point x="271" y="22" type="line"/>
      <point x="362" y="22" type="line"/>
      <point x="403" y="34" type="line"/>
      <point x="393" y="0" type="line"/>
      <point x="186" y="0" type="line"/>
      <point x="199" y="21" type="line"/>
      <point x="199" y="301" type="line"/>
      <point x="119" y="301" type="line"/>
      <point x="40" y="21" type="line"/>
      <point x="43" y="0" type="line"/>
      <point x="0" y="0" type="line"/>
      <point x="11" y="21" type="line"/>
      <point x="169" y="578" type="line"/>
      <point x="168" y="599" type="line"/>
      <point x="376" y="599" type="line"/>
    </contour>
    <contour>
      <point x="199" y="583" type="line"/>
      <point x="125" y="322" type="line"/>
      <point x="199" y="322" type="line"/>
    </contour>
  </outline>
</glyph>
<glyph name="Ccedilla" format="1">
  <advance width="298"/>
  <unicode hex="00C7"/>
  <outline>
    <contour>
      <point x="183" y="-5" type="line"/>
      <point x="183" y="-20" type="line"/>
      <point x="211" y="-15"/>
      <point x="253" y="-41"/>
      <point x="255" y="-64" type="qcurve"/>
      <point x="256" y="-120"/>
      <point x="168" y="-121" type="qcurve" smooth="yes"/>
      <point x="146" y="-121"/>
      <point x="110" y="-112" type="qcurve"/>
      <point x="110" y="-91" type="line"/>
      <point x="138" y="-104"/>
      <point x="165" y="-102" type="qcurve" smooth="yes"/>
      <point x="224" y="-99"/>
      <point x="222" y="-64" type="qcurve" smooth="yes"/>
      <point x="220" y="-40"/>
      <point x="180" y="-40" type="qcurve" smooth="yes"/>
      <point x="162" y="-40"/>
      <point x="150" y="-44" type="qcurve"/>
      <point x="150" y="-5" type="line"/>
      <point x="71" y="5"/>
      <point x="29" y="124" type="qcurve" smooth="yes"/>
      <point x="0" y="205"/>
      <point x="0" y="305" type="qcurve" smooth="yes"/>
      <point x="0" y="452"/>
      <point x="50" y="535" type="qcurve" smooth="yes"/>
      <point x="91" y="604"/>
      <point x="156" y="609" type="qcurve" smooth="yes"/>
      <point x="205" y="612"/>
      <point x="237" y="587" type="qcurve" smooth="yes"/>
      <point x="241" y="583"/>
      <point x="258" y="577" type="qcurve"/>
      <point x="227" y="538" type="line"/>
      <point x="192" y="586"/>
      <point x="170" y="586" type="qcurve" smooth="yes"/>
      <point x="124" y="586"/>
      <point x="103" y="488" type="qcurve" smooth="yes"/>
      <point x="86" y="412"/>
      <point x="86" y="305" type="qcurve" smooth="yes"/>
      <point x="86" y="183"/>
      <point x="107" y="108" type="qcurve"/>
      <point x="129" y="23"/>
      <point x="219" y="23"/>
      <point x="238" y="77" type="qcurve"/>
      <point x="268" y="37" type="line"/>
      <point x="257" y="33"/>
      <point x="247" y="27" type="qcurve"/>
      <point x="218" y="1"/>
      <point x="182" y="-5" type="qcurve"/>
    </contour>
  </outline>
</glyph>
<glyph name="Egrave" format="1">
  <advance width="248"/>
  <unicode hex="00C8"/>
  <outline>
    <contour>
      <point x="199" y="565" type="line"/>
      <point x="159" y="577" type="line"/>
      <point x="85" y="577" type="line"/>
      <point x="85" y="431" type="line"/>
      <point x="151" y="431" type="line"/>
      <point x="178" y="438" type="line"/>
      <point x="178" y="403" type="line"/>
      <point x="150" y="409" type="line"/>
      <point x="85" y="409" type="line"/>
      <point x="85" y="21" type="line"/>
      <point x="176" y="21" type="line"/>
      <point x="217" y="34" type="line"/>
      <point x="207" y="0" type="line"/>
      <point x="0" y="0" type="line"/>
      <point x="13" y="20" type="line"/>
      <point x="13" y="579" type="line"/>
      <point x="0" y="599" type="line"/>
      <point x="190" y="599" type="line"/>
    </contour>
    <contour>
      <point x="4" y="741" type="line"/>
      <point x="78" y="741" type="line"/>
      <point x="116" y="647" type="line"/>
      <point x="81" y="647" type="line"/>
    </contour>
  </outline>
</glyph>
<glyph name="Ecircumflex" format="1">
  <advance width="248"/>
  <unicode hex="00CA"/>
  <outline>
    <contour>
      <point x="199" y="565" type="line"/>
      <point x="159" y="577" type="line"/>
      <point x="85" y="577" type="line"/>
      <point x="85" y="431" type="line"/>
      <point x="151" y="431" type="line"/>
      <point x="178" y="438" type="line"/>
      <point x="178" y="403" type="line"/>
      <point x="150" y="409" type="line"/>
      <point x="85" y="409" type="line"/>
      <point x="85" y="21" type="line"/>
      <point x="176" y="21" type="line"/>
      <point x="217" y="34" type="line"/>
      <point x="207" y="0" type="line"/>
      <point x="0" y="0" type="line"/>
      <point x="13" y="20" type="line"/>
      <point x="13" y="579" type="line"/>
      <point x="0" y="599" type="line"/>
      <point x="190" y="599" type="line"/>
    </contour>
    <contour>
      <point x="94" y="691" type="line"/>
      <point x="35" y="642" type="line"/>
      <point x="8" y="642" type="line"/>
      <point x="94" y="728" type="line"/>
      <point x="180" y="642" type="line"/>
      <point x="154" y="642" type="line"/>
    </contour>
  </outline>
</glyph>
<glyph name="Edieresis" format="1">
  <advance width="248"/>
  <unicode hex="00CB"/>
  <outline>
    <contour>
      <point x="199" y="565" type="line"/>
      <point x="159" y="577" type="line"/>
      <point x="85" y="577" type="line"/>
      <point x="85" y="431" type="line"/>
      <point x="151" y="431" type="line"/>
      <point x="178" y="438" type="line"/>
      <point x="178" y="403" type="line"/>
      <point x="150" y="409" type="line"/>
      <point x="85" y="409" type="line"/>
      <point x="85" y="21" type="line"/>
      <point x="176" y="21" type="line"/>
      <point x="217" y="34" type="line"/>
      <point x="207" y="0" type="line"/>
      <point x="0" y="0" type="line"/>
      <point x="13" y="20" type="line"/>
      <point x="13" y="579" type="line"/>
      <point x="0" y="599" type="line"/>
      <point x="190" y="599" type="line"/>
    </contour>
    <contour>
      <point x="22" y="708" type="line"/>
      <point x="75" y="708" type="line"/>
      <point x="75" y="655" type="line"/>
      <point x="22" y="655" type="line"/>
    </contour>
    <contour>
      <point x="122" y="708" type="line"/>
      <point x="174" y="708" type="line"/>
      <point x="174" y="655" type="line"/>
      <point x="122" y="655" type="line"/>
    </contour>
  </outline>
</glyph>
<glyph name="Igrave" format="1">
  <advance width="178"/>
  <unicode hex="00CC"/>
  <outline>
    <contour>
      <point x="49" y="599" type="line"/>
      <point x="148" y="599" type="line"/>
      <point x="134" y="579" type="line"/>
      <point x="134" y="20" type="line"/>
      <point x="148" y="0" type="line"/>
      <point x="49" y="0" type="line"/>
      <point x="62" y="20" type="line"/>
      <point x="62" y="579" type="line"/>
    </contour>
    <contour>
      <point x="0" y="741" type="line"/>
      <point x="73" y="741" type="line"/>
      <point x="112" y="647" type="line"/>
      <point x="77" y="647" type="line"/>
    </contour>
  </outline>
</glyph>
<glyph name="Iacute" format="1">
  <advance width="171"/>
  <unicode hex="00CD"/>
  <outline>
    <contour>
      <point x="0" y="599" type="line"/>
      <point x="98" y="599" type="line"/>
      <point x="85" y="579" type="line"/>
      <point x="85" y="20" type="line"/>
      <point x="98" y="0" type="line"/>
      <point x="0" y="0" type="line"/>
      <point x="13" y="20" type="line"/>
      <point x="13" y="579" type="line"/>
    </contour>
    <contour>
      <point x="141" y="741" type="line"/>
      <point x="68" y="741" type="line"/>
      <point x="29" y="647" type="line"/>
      <point x="64" y="647" type="line"/>
    </contour>
  </outline>
</glyph>
<glyph name="Icircumflex" format="1">
  <advance width="203"/>
  <unicode hex="00CE"/>
  <outline>
    <contour>
      <point x="35" y="599" type="line"/>
      <point x="133" y="599" type="line"/>
      <point x="120" y="579" type="line"/>
      <point x="120" y="20" type="line"/>
      <point x="133" y="0" type="line"/>
      <point x="35" y="0" type="line"/>
      <point x="48" y="20" type="line"/>
      <point x="48" y="579" type="line"/>
    </contour>
    <contour>
      <point x="86" y="691" type="line"/>
      <point x="27" y="642" type="line"/>
      <point x="0" y="642" type="line"/>
      <point x="86" y="728" type="line"/>
      <point x="173" y="642" type="line"/>
      <point x="146" y="642" type="line"/>
    </contour>
  </outline>
</glyph>
<glyph name="Idieresis" format="1">
  <advance width="183"/>
  <unicode hex="00CF"/>
  <outline>
    <contour>
      <point x="28" y="599" type="line"/>
      <point x="126" y="599" type="line"/>
      <point x="113" y="579" type="line"/>
      <point x="113" y="20" type="line"/>
      <point x="126" y="0" type="line"/>
      <point x="28" y="0" type="line"/>
      <point x="41" y="20" type="line"/>
      <point x="41" y="579" type="line"/>
    </contour>
    <contour>
      <point x="0" y="708" type="line"/>
      <point x="53" y="708" type="line"/>
      <point x="53" y="655" type="line"/>
      <point x="0" y="655" type="line"/>
    </contour>
    <contour>
      <point x="100" y="708" type="line"/>
      <point x="152" y="708" type="line"/>
      <point x="152" y="655" type="line"/>
      <point x="100" y="655" type="line"/>
    </contour>
  </outline>
</glyph>
<glyph name="Eth" format="1">
  <advance width="340"/>
  <unicode hex="00D0"/>
  <outline>
    <contour>
      <point x="118" y="315" type="line"/>
      <point x="164" y="315" type="line"/>
      <point x="164" y="284" type="line"/>
      <point x="118" y="284" type="line"/>
      <point x="118" y="19" type="line"/>
      <point x="162" y="21"/>
      <point x="192" y="103" type="qcurve"/>
      <point x="224" y="183"/>
      <point x="224" y="298" type="qcurve" smooth="yes"/>
      <point x="224" y="454"/>
      <point x="196" y="519" type="qcurve"/>
      <point x="172" y="578"/>
      <point x="118" y="579" type="qcurve"/>
    </contour>
    <contour>
      <point x="0" y="315" type="line"/>
      <point x="46" y="315" type="line"/>
      <point x="46" y="579" type="line"/>
      <point x="33" y="599" type="line"/>
      <point x="142" y="599" type="line" smooth="yes"/>
      <point x="209" y="599"/>
      <point x="252" y="541" type="qcurve"/>
      <point x="310" y="465"/>
      <point x="310" y="299" type="qcurve" smooth="yes"/>
      <point x="310" y="153"/>
      <point x="249" y="71" type="qcurve" smooth="yes"/>
      <point x="197" y="1"/>
      <point x="124" y="0" type="qcurve"/>
      <point x="33" y="0" type="line"/>
      <point x="46" y="20" type="line"/>
      <point x="46" y="284" type="line"/>
      <point x="0" y="284" type="line"/>
    </contour>
  </outline>
</glyph>
<glyph name="Ntilde" format="1">
  <advance width="283"/>
  <unicode hex="00D1"/>
  <outline>
    <contour>
      <point x="201" y="691" type="qcurve"/>
      <point x="201" y="661" type="line"/>
      <point x="175" y="639"/>
      <point x="161" y="639" type="qcurve" smooth="yes"/>
      <point x="151" y="639"/>
      <point x="124" y="650" type="qcurve" smooth="yes"/>
      <point x="99" y="661"/>
      <point x="86" y="661" type="qcurve" smooth="yes"/>
      <point x="74" y="661"/>
      <point x="66" y="652" type="qcurve"/>
      <point x="48" y="635" type="line"/>
      <point x="48" y="664" type="line"/>
      <point x="77" y="687"/>
      <point x="101" y="687"/>
      <point x="155" y="665"/>
      <point x="165" y="665" type="qcurve" smooth="yes"/>
      <point x="178" y="665"/>
      <point x="185" y="674" type="qcurve"/>
      <point x="196" y="685"/>
    </contour>
    <contour>
      <point x="13" y="21" type="line"/>
      <point x="13" y="579" type="line"/>
      <point x="0" y="599" type="line"/>
      <point x="88" y="599" type="line"/>
      <point x="210" y="245" type="line"/>
      <point x="210" y="579" type="line"/>
      <point x="197" y="599" type="line"/>
      <point x="252" y="599" type="line"/>
      <point x="239" y="579" type="line"/>
      <point x="239" y="0" type="line"/>
      <point x="210" y="0" type="line"/>
      <point x="42" y="480" type="line"/>
      <point x="42" y="21" type="line"/>
      <point x="55" y="0" type="line"/>
      <point x="0" y="0" type="line"/>
    </contour>
  </outline>
</glyph>
<glyph name="Ocircumflex" format="1">
  <advance width="342"/>
  <unicode hex="00D4"/>
  <outline>
    <contour>
      <point x="87" y="585"/>
      <point x="156" y="585" type="qcurve" smooth="yes"/>
      <point x="224" y="585"/>
      <point x="224" y="13"/>
      <point x="156" y="13" type="qcurve" smooth="yes"/>
      <point x="87" y="13"/>
    </contour>
    <contour>
      <point x="216" y="607"/>
      <point x="260" y="535" type="qcurve" smooth="yes"/>
      <point x="312" y="450"/>
      <point x="312" y="150"/>
      <point x="260" y="65" type="qcurve" smooth="yes"/>
      <point x="216" y="-7"/>
      <point x="156" y="-7" type="qcurve" smooth="yes"/>
      <point x="95" y="-7"/>
      <point x="52" y="66" type="qcurve"/>
      <point x="0" y="151"/>
      <point x="0" y="300" type="qcurve" smooth="yes"/>
      <point x="0" y="450"/>
      <point x="52" y="535" type="qcurve" smooth="yes"/>
      <point x="96" y="607"/>
    </contour>
    <contour>
      <point x="158" y="691" type="line"/>
      <point x="99" y="642" type="line"/>
      <point x="72" y="642" type="line"/>
      <point x="158" y="728" type="line"/>
      <point x="244" y="642" type="line"/>
      <point x="218" y="642" type="line"/>
    </contour>
  </outline>
</glyph>
<glyph name="Otilde" format="1">
  <advance width="342"/>
  <unicode hex="00D5"/>
  <outline>
    <contour>
      <point x="87" y="585"/>
      <point x="156" y="585" type="qcurve" smooth="yes"/>
      <point x="224" y="585"/>
      <point x="224" y="13"/>
      <point x="156" y="13" type="qcurve" smooth="yes"/>
      <point x="87" y="13"/>
    </contour>
    <contour>
      <point x="216" y="607"/>
      <point x="260" y="535" type="qcurve" smooth="yes"/>
      <point x="312" y="450"/>
      <point x="312" y="150"/>
      <point x="260" y="65" type="qcurve" smooth="yes"/>
      <point x="216" y="-7"/>
      <point x="156" y="-7" type="qcurve" smooth="yes"/>
      <point x="95" y="-7"/>
      <point x="52" y="66" type="qcurve"/>
      <point x="0" y="151"/>
      <point x="0" y="300" type="qcurve" smooth="yes"/>
      <point x="0" y="450"/>
      <point x="52" y="535" type="qcurve" smooth="yes"/>
      <point x="96" y="607"/>
    </contour>
    <contour>
      <point x="246" y="691" type="qcurve"/>
      <point x="246" y="661" type="line"/>
      <point x="220" y="639"/>
      <point x="206" y="639" type="qcurve" smooth="yes"/>
      <point x="195" y="639"/>
      <point x="170" y="650" type="qcurve" smooth="yes"/>
      <point x="143" y="661"/>
      <point x="119" y="661"/>
      <point x="110" y="652" type="qcurve" smooth="yes"/>
      <point x="93" y="635" type="line"/>
      <point x="93" y="664" type="line"/>
      <point x="122" y="687"/>
      <point x="146" y="687"/>
      <point x="200" y="665"/>
      <point x="210" y="665" type="qcurve" smooth="yes"/>
      <point x="222" y="665"/>
      <point x="230" y="674" type="qcurve" smooth="yes"/>
      <point x="241" y="685"/>
    </contour>
  </outline>
</glyph>
<glyph name="Oslash" format="1">
  <advance width="342"/>
  <unicode hex="00D8"/>
  <outline>
    <contour>
      <point x="87" y="585"/>
      <point x="156" y="585" type="qcurve" smooth="yes"/>
      <point x="224" y="585"/>
      <point x="224" y="13"/>
      <point x="156" y="13" type="qcurve" smooth="yes"/>
      <point x="87" y="13"/>
    </contour>
    <contour>
      <point x="216" y="607"/>
      <point x="260" y="535" type="qcurve" smooth="yes"/>
      <point x="312" y="450"/>
      <point x="312" y="150"/>
      <point x="260" y="65" type="qcurve" smooth="yes"/>
      <point x="216" y="-7"/>
      <point x="156" y="-7" type="qcurve" smooth="yes"/>
      <point x="95" y="-7"/>
      <point x="52" y="66" type="qcurve"/>
      <point x="0" y="151"/>
      <point x="0" y="300" type="qcurve" smooth="yes"/>
      <point x="0" y="450"/>
      <point x="52" y="535" type="qcurve" smooth="yes"/>
      <point x="96" y="607"/>
    </contour>
    <contour>
      <point x="259" y="654" type="line"/>
      <point x="293" y="654" type="line"/>
      <point x="56" y="-63" type="line"/>
      <point x="24" y="-63" type="line"/>
    </contour>
  </outline>
</glyph>
<glyph name="Udieresis" format="1">
  <advance width="278"/>
  <unicode hex="00DC"/>
  <outline>
    <contour>
      <point x="48" y="708" type="line"/>
      <point x="101" y="708" type="line"/>
      <point x="101" y="655" type="line"/>
      <point x="48" y="655" type="line"/>
    </contour>
    <contour>
      <point x="148" y="708" type="line"/>
      <point x="200" y="708" type="line"/>
      <point x="200" y="655" type="line"/>
      <point x="148" y="655" type="line"/>
    </contour>
    <contour>
      <point x="127" y="-10" type="qcurve" smooth="yes"/>
      <point x="180" y="-10"/>
      <point x="212" y="25" type="qcurve" smooth="yes"/>
      <point x="234" y="50"/>
      <point x="234" y="74" type="qcurve" smooth="yes"/>
      <point x="234" y="578" type="line"/>
      <point x="248" y="599" type="line"/>
      <point x="188" y="599" type="line"/>
      <point x="201" y="578" type="line"/>
      <point x="201" y="78" type="line" smooth="yes"/>
      <point x="201" y="54"/>
      <point x="185" y="39" type="qcurve" smooth="yes"/>
      <point x="168" y="24"/>
      <point x="144" y="24" type="qcurve" smooth="yes"/>
      <point x="116" y="24"/>
      <point x="100" y="43" type="qcurve" smooth="yes"/>
      <point x="85" y="60"/>
      <point x="85" y="78" type="qcurve" smooth="yes"/>
      <point x="85" y="578" type="line"/>
      <point x="98" y="599" type="line"/>
      <point x="0" y="599" type="line"/>
      <point x="13" y="578" type="line"/>
      <point x="13" y="73" type="line" smooth="yes"/>
      <point x="13" y="50"/>
      <point x="37" y="25" type="qcurve" smooth="yes"/>
      <point x="69" y="-10"/>
    </contour>
  </outline>
</glyph>
<glyph name="Yacute" format="1">
  <advance width="281"/>
  <unicode hex="00DD"/>
  <outline>
    <contour>
      <point x="96" y="308" type="line"/>
      <point x="13" y="578" type="line"/>
      <point x="0" y="599" type="line"/>
      <point x="103" y="599" type="line"/>
      <point x="96" y="578" type="line"/>
      <point x="153" y="399" type="line"/>
      <point x="208" y="578" type="line"/>
      <point x="203" y="599" type="line"/>
      <point x="251" y="599" type="line"/>
      <point x="237" y="578" type="line"/>
      <point x="168" y="361" type="line"/>
      <point x="168" y="21" type="line"/>
      <point x="182" y="0" type="line"/>
      <point x="83" y="0" type="line"/>
      <point x="96" y="21" type="line"/>
    </contour>
    <contour>
      <point x="230" y="741" type="line"/>
      <point x="156" y="741" type="line"/>
      <point x="118" y="647" type="line"/>
      <point x="153" y="647" type="line"/>
    </contour>
  </outline>
</glyph>
<glyph name="Thorn" format="1">
  <advance width="302"/>
  <unicode hex="00DE"/>
  <outline>
    <contour>
      <point x="121" y="205" type="qcurve" smooth="yes"/>
      <point x="85" y="205" type="line"/>
      <point x="85" y="21" type="line"/>
      <point x="98" y="0" type="line"/>
      <point x="0" y="0" type="line"/>
      <point x="13" y="21" type="line"/>
      <point x="13" y="578" type="line"/>
      <point x="0" y="599" type="line"/>
      <point x="83" y="599" type="line"/>
      <point x="83" y="449" type="line"/>
      <point x="113" y="449" type="line" smooth="yes"/>
      <point x="180" y="449"/>
      <point x="272" y="387"/>
      <point x="272" y="336" type="qcurve" smooth="yes"/>
      <point x="272" y="290"/>
      <point x="234" y="250" type="qcurve" smooth="yes"/>
      <point x="190" y="205"/>
    </contour>
    <contour>
      <point x="85" y="427" type="line"/>
      <point x="85" y="230" type="line"/>
      <point x="110" y="230" type="line" smooth="yes"/>
      <point x="143" y="230"/>
      <point x="168" y="262" type="qcurve" smooth="yes"/>
      <point x="192" y="292"/>
      <point x="192" y="344" type="qcurve" smooth="yes"/>
      <point x="192" y="382"/>
      <point x="168" y="404" type="qcurve"/>
      <point x="144" y="428"/>
      <point x="109" y="428" type="qcurve"/>
    </contour>
  </outline>
</glyph>
<glyph name="germandbls" format="1">
  <advance width="478"/>
  <unicode hex="00DF"/>
  <outline>
    <contour>
      <point x="349" y="587" type="qcurve" smooth="yes"/>
      <point x="316" y="592"/>
      <point x="294" y="572" type="qcurve"/>
      <point x="271" y="554"/>
      <point x="271" y="515" type="qcurve" smooth="yes"/>
      <point x="271" y="487"/>
      <point x="284" y="457" type="qcurve" smooth="yes"/>
      <point x="303" y="410"/>
      <point x="350" y="348" type="qcurve" smooth="yes"/>
      <point x="406" y="276"/>
      <point x="421" y="252" type="qcurve" smooth="yes"/>
      <point x="454" y="196"/>
      <point x="454" y="145" type="qcurve" smooth="yes"/>
      <point x="454" y="84"/>
      <point x="409" y="36" type="qcurve"/>
      <point x="365" y="-14"/>
      <point x="301" y="-14" type="qcurve" smooth="yes"/>
      <point x="273" y="-14"/>
      <point x="252" y="-4" type="qcurve" smooth="yes"/>
      <point x="221" y="12"/>
      <point x="214" y="14" type="qcurve" smooth="yes"/>
      <point x="206" y="16"/>
      <point x="196" y="17" type="qcurve"/>
      <point x="200" y="36" type="line"/>
      <point x="153" y="-14"/>
      <point x="91" y="-14" type="qcurve" smooth="yes"/>
      <point x="63" y="-14"/>
      <point x="42" y="-4" type="qcurve" smooth="yes"/>
      <point x="11" y="12"/>
      <point x="4" y="14" type="qcurve" smooth="yes"/>
      <point x="-4" y="16"/>
      <point x="-14" y="17" type="qcurve"/>
      <point x="2" y="95" type="line"/>
      <point x="27" y="19"/>
      <point x="94" y="19" type="qcurve" smooth="yes"/>
      <point x="129" y="19"/>
      <point x="152" y="48" type="qcurve"/>
      <point x="176" y="76"/>
      <point x="176" y="114" type="qcurve" smooth="yes"/>
      <point x="176" y="168"/>
      <point x="131" y="233" type="qcurve"/>
      <point x="102" y="270"/>
      <point x="46" y="344" type="qcurve"/>
      <point x="-2" y="410"/>
      <point x="-8" y="465" type="qcurve" smooth="yes"/>
      <point x="-14" y="531"/>
      <point x="28" y="573" type="qcurve"/>
      <point x="68" y="611"/>
      <point x="125" y="611" type="qcurve" smooth="yes"/>
      <point x="164" y="611"/>
      <point x="199" y="591" type="qcurve" smooth="yes"/>
      <point x="205" y="587"/>
      <point x="222" y="583" type="qcurve"/>
      <point x="191" y="541" type="line"/>
      <point x="184" y="554"/>
      <point x="178" y="562" type="qcurve" smooth="yes"/>
      <point x="162" y="584"/>
      <point x="139" y="587" type="qcurve" smooth="yes"/>
      <point x="106" y="592"/>
      <point x="84" y="572" type="qcurve"/>
      <point x="61" y="554"/>
      <point x="61" y="515" type="qcurve" smooth="yes"/>
      <point x="61" y="487"/>
      <point x="74" y="457" type="qcurve" smooth="yes"/>
      <point x="93" y="410"/>
      <point x="140" y="348" type="qcurve" smooth="yes"/>
      <point x="196" y="276"/>
      <point x="211" y="252" type="qcurve" smooth="yes"/>
      <point x="244" y="196"/>
      <point x="244" y="145" type="qcurve" smooth="yes"/>
      <point x="244" y="106"/>
      <point x="223" y="69" type="qcurve"/>
      <point x="253" y="19"/>
      <point x="304" y="19" type="qcurve" smooth="yes"/>
      <point x="339" y="19"/>
      <point x="362" y="48" type="qcurve"/>
      <point x="386" y="76"/>
      <point x="386" y="114" type="qcurve" smooth="yes"/>
      <point x="386" y="168"/>
      <point x="341" y="233" type="qcurve"/>
      <point x="312" y="270"/>
      <point x="256" y="344" type="qcurve"/>
      <point x="208" y="410"/>
      <point x="202" y="465" type="qcurve" smooth="yes"/>
      <point x="196" y="531"/>
      <point x="238" y="573" type="qcurve"/>
      <point x="278" y="611"/>
      <point x="335" y="611" type="qcurve" smooth="yes"/>
      <point x="374" y="611"/>
      <point x="409" y="591" type="qcurve" smooth="yes"/>
      <point x="415" y="587"/>
      <point x="432" y="583" type="qcurve"/>
      <point x="401" y="541" type="line"/>
      <point x="394" y="554"/>
      <point x="388" y="562" type="qcurve" smooth="yes"/>
      <point x="372" y="584"/>
    </contour>
  </outline>
</glyph>
<glyph name="agrave" format="1">
  <advance width="317"/>
  <unicode hex="00E0"/>
  <outline>
    <contour>
      <point x="79" y="265" type="line"/>
      <point x="41" y="18" type="line"/>
      <point x="46" y="0" type="line"/>
      <point x="0" y="0" type="line"/>
      <point x="14" y="18" type="line"/>
      <point x="90" y="511" type="line"/>
      <point x="86" y="529" type="line"/>
      <point x="200" y="529" type="line"/>
      <point x="196" y="511" type="line"/>
      <point x="275" y="18" type="line"/>
      <point x="289" y="0" type="line"/>
      <point x="188" y="0" type="line"/>
      <point x="195" y="18" type="line"/>
      <point x="156" y="265" type="line"/>
    </contour>
    <contour>
      <point x="117" y="510" type="line"/>
      <point x="82" y="284" type="line"/>
      <point x="152" y="284" type="line"/>
    </contour>
    <contour>
      <point x="53" y="654" type="line"/>
      <point x="123" y="654" type="line"/>
      <point x="160" y="571" type="line"/>
      <point x="127" y="571" type="line"/>
    </contour>
  </outline>
</glyph>
<glyph name="acircumflex" format="1">
  <advance width="317"/>
  <unicode hex="00E2"/>
  <outline>
    <contour>
      <point x="79" y="265" type="line"/>
      <point x="41" y="18" type="line"/>
      <point x="46" y="0" type="line"/>
      <point x="0" y="0" type="line"/>
      <point x="14" y="18" type="line"/>
      <point x="90" y="511" type="line"/>
      <point x="86" y="529" type="line"/>
      <point x="200" y="529" type="line"/>
      <point x="196" y="511" type="line"/>
      <point x="275" y="18" type="line"/>
      <point x="289" y="0" type="line"/>
      <point x="188" y="0" type="line"/>
      <point x="195" y="18" type="line"/>
      <point x="156" y="265" type="line"/>
    </contour>
    <contour>
      <point x="117" y="510" type="line"/>
      <point x="82" y="284" type="line"/>
      <point x="152" y="284" type="line"/>
    </contour>
    <contour>
      <point x="138" y="610" type="line"/>
      <point x="81" y="567" type="line"/>
      <point x="55" y="567" type="line"/>
      <point x="138" y="643" type="line"/>
      <point x="220" y="567" type="line"/>
      <point x="194" y="567" type="line"/>
    </contour>
  </outline>
</glyph>
<glyph name="atilde" format="1">
  <advance width="317"/>
  <unicode hex="00E3"/>
  <outline>
    <contour>
      <point x="79" y="265" type="line"/>
      <point x="41" y="18" type="line"/>
      <point x="46" y="0" type="line"/>
      <point x="0" y="0" type="line"/>
      <point x="14" y="18" type="line"/>
      <point x="90" y="511" type="line"/>
      <point x="86" y="529" type="line"/>
      <point x="200" y="529" type="line"/>
      <point x="196" y="511" type="line"/>
      <point x="275" y="18" type="line"/>
      <point x="289" y="0" type="line"/>
      <point x="188" y="0" type="line"/>
      <point x="195" y="18" type="line"/>
      <point x="156" y="265" type="line"/>
    </contour>
    <contour>
      <point x="117" y="510" type="line"/>
      <point x="82" y="284" type="line"/>
      <point x="152" y="284" type="line"/>
    </contour>
    <contour>
      <point x="231" y="610" type="qcurve"/>
      <point x="231" y="583" type="line"/>
      <point x="206" y="564"/>
      <point x="181" y="564" type="qcurve" smooth="yes"/>
      <point x="167" y="564"/>
      <point x="144" y="574" type="qcurve"/>
      <point x="120" y="583"/>
      <point x="106" y="583" type="qcurve" smooth="yes"/>
      <point x="87" y="583"/>
      <point x="56" y="561" type="qcurve"/>
      <point x="56" y="586" type="line"/>
      <point x="85" y="607"/>
      <point x="108" y="607" type="qcurve" smooth="yes"/>
      <point x="123" y="607"/>
      <point x="146" y="597" type="qcurve" smooth="yes"/>
      <point x="170" y="587"/>
      <point x="182" y="587" type="qcurve" smooth="yes"/>
      <point x="205" y="587"/>
    </contour>
  </outline>
</glyph>
<glyph name="adieresis" format="1">
  <advance width="317"/>
  <unicode hex="00E4"/>
  <outline>
    <contour>
      <point x="79" y="265" type="line"/>
      <point x="41" y="18" type="line"/>
      <point x="46" y="0" type="line"/>
      <point x="0" y="0" type="line"/>
      <point x="14" y="18" type="line"/>
      <point x="90" y="511" type="line"/>
      <point x="86" y="529" type="line"/>
      <point x="200" y="529" type="line"/>
      <point x="196" y="511" type="line"/>
      <point x="275" y="18" type="line"/>
      <point x="289" y="0" type="line"/>
      <point x="188" y="0" type="line"/>
      <point x="195" y="18" type="line"/>
      <point x="156" y="265" type="line"/>
    </contour>
    <contour>
      <point x="117" y="510" type="line"/>
      <point x="82" y="284" type="line"/>
      <point x="152" y="284" type="line"/>
    </contour>
    <contour>
      <point x="69" y="625" type="line"/>
      <point x="119" y="625" type="line"/>
      <point x="119" y="578" type="line"/>
      <point x="69" y="578" type="line"/>
    </contour>
    <contour>
      <point x="164" y="625" type="line"/>
      <point x="214" y="625" type="line"/>
      <point x="214" y="578" type="line"/>
      <point x="164" y="578" type="line"/>
    </contour>
  </outline>
</glyph>
<glyph name="aring" format="1">
  <advance width="317"/>
  <unicode hex="00E5"/>
  <outline>
    <contour>
      <point x="79" y="265" type="line"/>
      <point x="41" y="18" type="line"/>
      <point x="46" y="0" type="line"/>
      <point x="0" y="0" type="line"/>
      <point x="14" y="18" type="line"/>
      <point x="90" y="511" type="line"/>
      <point x="86" y="529" type="line"/>
      <point x="200" y="529" type="line"/>
      <point x="196" y="511" type="line"/>
      <point x="275" y="18" type="line"/>
      <point x="289" y="0" type="line"/>
      <point x="188" y="0" type="line"/>
      <point x="195" y="18" type="line"/>
      <point x="156" y="265" type="line"/>
    </contour>
    <contour>
      <point x="117" y="510" type="line"/>
      <point x="82" y="284" type="line"/>
      <point x="152" y="284" type="line"/>
    </contour>
    <contour>
      <point x="141" y="662" type="qcurve" smooth="yes"/>
      <point x="162" y="662"/>
      <point x="179" y="648" type="qcurve"/>
      <point x="195" y="633"/>
      <point x="195" y="591"/>
      <point x="163" y="561"/>
      <point x="141" y="561" type="qcurve" smooth="yes"/>
      <point x="118" y="561"/>
      <point x="102" y="576" type="qcurve" smooth="yes"/>
      <point x="86" y="591"/>
      <point x="86" y="633"/>
      <point x="102" y="648" type="qcurve"/>
      <point x="119" y="662"/>
    </contour>
    <contour>
      <point x="141" y="639" type="qcurve" smooth="yes"/>
      <point x="111" y="639"/>
      <point x="111" y="585"/>
      <point x="141" y="585" type="qcurve" smooth="yes"/>
      <point x="170" y="585"/>
      <point x="170" y="639"/>
    </contour>
  </outline>
</glyph>
<glyph name="ae" format="1">
  <advance width="434"/>
  <unicode hex="00E6"/>
  <outline>
    <contour>
      <point x="367" y="499" type="line"/>
      <point x="329" y="510" type="line"/>
      <point x="259" y="510" type="line"/>
      <point x="259" y="381" type="line"/>
      <point x="321" y="381" type="line"/>
      <point x="347" y="387" type="line"/>
      <point x="347" y="356" type="line"/>
      <point x="321" y="362" type="line"/>
      <point x="259" y="362" type="line"/>
      <point x="259" y="19" type="line"/>
      <point x="345" y="19" type="line"/>
      <point x="385" y="30" type="line"/>
      <point x="375" y="0" type="line"/>
      <point x="178" y="0" type="line"/>
      <point x="190" y="18" type="line"/>
      <point x="190" y="265" type="line"/>
      <point x="114" y="265" type="line"/>
      <point x="38" y="18" type="line"/>
      <point x="41" y="0" type="line"/>
      <point x="0" y="0" type="line"/>
      <point x="11" y="18" type="line"/>
      <point x="161" y="511" type="line"/>
      <point x="160" y="529" type="line"/>
      <point x="359" y="529" type="line"/>
    </contour>
    <contour>
      <point x="190" y="515" type="line"/>
      <point x="120" y="284" type="line"/>
      <point x="190" y="284" type="line"/>
    </contour>
  </outline>
</glyph>
<glyph name="ecircumflex" format="1">
  <advance width="248"/>
  <unicode hex="00EA"/>
  <outline>
    <contour>
      <point x="88" y="615" type="line"/>
      <point x="36" y="572" type="line"/>
      <point x="12" y="572" type="line"/>
      <point x="88" y="648" type="line"/>
      <point x="164" y="572" type="line"/>
      <point x="141" y="572" type="line"/>
    </contour>
    <contour>
      <point x="195" y="0" type="line"/>
      <point x="-2" y="0" type="line"/>
      <point x="11" y="19" type="line"/>
      <point x="11" y="510" type="line"/>
      <point x="-2" y="529" type="line"/>
      <point x="179" y="529" type="line"/>
      <point x="189" y="497" type="line"/>
      <point x="149" y="508" type="line"/>
      <point x="81" y="508" type="line"/>
      <point x="81" y="380" type="line"/>
      <point x="141" y="380" type="line"/>
      <point x="168" y="386" type="line"/>
      <point x="168" y="353" type="line"/>
      <point x="141" y="359" type="line"/>
      <point x="81" y="359" type="line"/>
      <point x="81" y="21" type="line"/>
      <point x="165" y="21" type="line"/>
      <point x="206" y="32" type="line"/>
    </contour>
  </outline>
</glyph>
<glyph name="edieresis" format="1">
  <advance width="248"/>
  <unicode hex="00EB"/>
  <outline>
    <contour>
      <point x="19" y="625" type="line"/>
      <point x="66" y="625" type="line"/>
      <point x="66" y="578" type="line"/>
      <point x="19" y="578" type="line"/>
    </contour>
    <contour>
      <point x="108" y="625" type="line"/>
      <point x="154" y="625" type="line"/>
      <point x="154" y="578" type="line"/>
      <point x="108" y="578" type="line"/>
    </contour>
    <contour>
      <point x="195" y="0" type="line"/>
      <point x="-2" y="0" type="line"/>
      <point x="11" y="19" type="line"/>
      <point x="11" y="510" type="line"/>
      <point x="-2" y="529" type="line"/>
      <point x="179" y="529" type="line"/>
      <point x="189" y="497" type="line"/>
      <point x="149" y="508" type="line"/>
      <point x="81" y="508" type="line"/>
      <point x="81" y="380" type="line"/>
      <point x="141" y="380" type="line"/>
      <point x="168" y="386" type="line"/>
      <point x="168" y="353" type="line"/>
      <point x="141" y="359" type="line"/>
      <point x="81" y="359" type="line"/>
      <point x="81" y="21" type="line"/>
      <point x="165" y="21" type="line"/>
      <point x="206" y="32" type="line"/>
    </contour>
  </outline>
</glyph>
<glyph name="igrave" format="1">
  <advance width="158"/>
  <unicode hex="00EC"/>
  <outline>
    <contour>
      <point x="17" y="0" type="line"/>
      <point x="30" y="19" type="line"/>
      <point x="30" y="510" type="line"/>
      <point x="17" y="529" type="line"/>
      <point x="113" y="529" type="line"/>
      <point x="100" y="510" type="line"/>
      <point x="100" y="19" type="line"/>
      <point x="113" y="0" type="line"/>
    </contour>
    <contour>
      <point x="52" y="573" type="line"/>
      <point x="-23" y="657" type="line"/>
      <point x="50" y="657" type="line"/>
      <point x="87" y="573" type="line"/>
    </contour>
  </outline>
</glyph>
<glyph name="iacute" format="1">
  <advance width="158"/>
  <unicode hex="00ED"/>
  <outline>
    <contour>
      <point x="17" y="0" type="line"/>
      <point x="30" y="19" type="line"/>
      <point x="30" y="510" type="line"/>
      <point x="17" y="529" type="line"/>
      <point x="113" y="529" type="line"/>
      <point x="100" y="510" type="line"/>
      <point x="100" y="19" type="line"/>
      <point x="113" y="0" type="line"/>
    </contour>
    <contour>
      <point x="162" y="663" type="line"/>
      <point x="89" y="663" type="line"/>
      <point x="50" y="570" type="line"/>
      <point x="85" y="570" type="line"/>
    </contour>
  </outline>
</glyph>
<glyph name="icircumflex" format="1">
  <advance width="158"/>
  <unicode hex="00EE"/>
  <outline>
    <contour>
      <point x="17" y="0" type="line"/>
      <point x="30" y="19" type="line"/>
      <point x="30" y="510" type="line"/>
      <point x="17" y="529" type="line"/>
      <point x="113" y="529" type="line"/>
      <point x="100" y="510" type="line"/>
      <point x="100" y="19" type="line"/>
      <point x="113" y="0" type="line"/>
    </contour>
    <contour>
      <point x="67" y="610" type="line"/>
      <point x="14" y="567" type="line"/>
      <point x="-9" y="567" type="line"/>
      <point x="67" y="643" type="line"/>
      <point x="143" y="567" type="line"/>
      <point x="119" y="567" type="line"/>
    </contour>
  </outline>
</glyph>
<glyph name="idieresis" format="1">
  <advance width="158"/>
  <unicode hex="00EF"/>
  <outline>
    <contour>
      <point x="17" y="0" type="line"/>
      <point x="30" y="19" type="line"/>
      <point x="30" y="510" type="line"/>
      <point x="17" y="529" type="line"/>
      <point x="113" y="529" type="line"/>
      <point x="100" y="510" type="line"/>
      <point x="100" y="19" type="line"/>
      <point x="113" y="0" type="line"/>
    </contour>
    <contour>
      <point x="-1" y="625" type="line"/>
      <point x="46" y="625" type="line"/>
      <point x="46" y="578" type="line"/>
      <point x="-1" y="578" type="line"/>
    </contour>
    <contour>
      <point x="88" y="625" type="line"/>
      <point x="134" y="625" type="line"/>
      <point x="134" y="578" type="line"/>
      <point x="88" y="578" type="line"/>
    </contour>
  </outline>
</glyph>
<glyph name="ntilde" format="1">
  <advance width="284"/>
  <unicode hex="00F1"/>
  <outline>
    <contour>
      <point x="226" y="510" type="line"/>
      <point x="226" y="0" type="line"/>
      <point x="197" y="0" type="line"/>
      <point x="41" y="417" type="line"/>
      <point x="41" y="19" type="line"/>
      <point x="54" y="0" type="line"/>
      <point x="-2" y="0" type="line"/>
      <point x="11" y="19" type="line"/>
      <point x="11" y="510" type="line"/>
      <point x="-2" y="529" type="line"/>
      <point x="83" y="529" type="line"/>
      <point x="196" y="223" type="line"/>
      <point x="196" y="510" type="line"/>
      <point x="183" y="529" type="line"/>
      <point x="239" y="529" type="line"/>
    </contour>
  </outline>
</glyph>
<glyph name="ocircumflex" format="1">
  <advance width="331"/>
  <unicode hex="00F4"/>
  <outline>
    <contour>
      <point x="147" y="-6" type="qcurve" smooth="yes"/>
      <point x="90" y="-6"/>
      <point x="48" y="58" type="qcurve" smooth="yes"/>
      <point x="-1" y="134"/>
      <point x="-1" y="265" type="qcurve" smooth="yes"/>
      <point x="-1" y="398"/>
      <point x="48" y="472" type="qcurve" smooth="yes"/>
      <point x="90" y="537"/>
      <point x="204" y="537"/>
      <point x="245" y="472" type="qcurve"/>
      <point x="294" y="398"/>
      <point x="294" y="132"/>
      <point x="245" y="58" type="qcurve"/>
      <point x="205" y="-6"/>
    </contour>
    <contour>
      <point x="83" y="514"/>
      <point x="83" y="264" type="qcurve" smooth="yes"/>
      <point x="83" y="13"/>
      <point x="209" y="13"/>
      <point x="209" y="264" type="qcurve" smooth="yes"/>
      <point x="209" y="514"/>
    </contour>
    <contour>
      <point x="143" y="616" type="line"/>
      <point x="90" y="572" type="line"/>
      <point x="66" y="572" type="line"/>
      <point x="143" y="648" type="line"/>
      <point x="219" y="572" type="line"/>
      <point x="195" y="572" type="line"/>
    </contour>
  </outline>
</glyph>
<glyph name="otilde" format="1">
  <advance width="331"/>
  <unicode hex="00F5"/>
  <outline>
    <contour>
      <point x="147" y="-6" type="qcurve" smooth="yes"/>
      <point x="90" y="-6"/>
      <point x="48" y="58" type="qcurve" smooth="yes"/>
      <point x="-1" y="134"/>
      <point x="-1" y="265" type="qcurve" smooth="yes"/>
      <point x="-1" y="398"/>
      <point x="48" y="472" type="qcurve" smooth="yes"/>
      <point x="90" y="537"/>
      <point x="204" y="537"/>
      <point x="245" y="472" type="qcurve"/>
      <point x="294" y="398"/>
      <point x="294" y="132"/>
      <point x="245" y="58" type="qcurve"/>
      <point x="205" y="-6"/>
    </contour>
    <contour>
      <point x="83" y="514"/>
      <point x="83" y="264" type="qcurve" smooth="yes"/>
      <point x="83" y="13"/>
      <point x="209" y="13"/>
      <point x="209" y="264" type="qcurve" smooth="yes"/>
      <point x="209" y="514"/>
    </contour>
    <contour>
      <point x="231" y="610" type="qcurve"/>
      <point x="231" y="583" type="line"/>
      <point x="206" y="564"/>
      <point x="181" y="564" type="qcurve" smooth="yes"/>
      <point x="167" y="564"/>
      <point x="144" y="574" type="qcurve"/>
      <point x="120" y="583"/>
      <point x="106" y="583" type="qcurve" smooth="yes"/>
      <point x="87" y="583"/>
      <point x="56" y="561" type="qcurve"/>
      <point x="56" y="586" type="line"/>
      <point x="85" y="607"/>
      <point x="108" y="607" type="qcurve" smooth="yes"/>
      <point x="123" y="607"/>
      <point x="146" y="597" type="qcurve" smooth="yes"/>
      <point x="170" y="587"/>
      <point x="182" y="587" type="qcurve" smooth="yes"/>
      <point x="205" y="587"/>
    </contour>
  </outline>
</glyph>
<glyph name="odieresis" format="1">
  <advance width="331"/>
  <unicode hex="00F6"/>
  <outline>
    <contour>
      <point x="147" y="-6" type="qcurve" smooth="yes"/>
      <point x="90" y="-6"/>
      <point x="48" y="58" type="qcurve" smooth="yes"/>
      <point x="-1" y="134"/>
      <point x="-1" y="265" type="qcurve" smooth="yes"/>
      <point x="-1" y="398"/>
      <point x="48" y="472" type="qcurve" smooth="yes"/>
      <point x="90" y="537"/>
      <point x="204" y="537"/>
      <point x="245" y="472" type="qcurve"/>
      <point x="294" y="398"/>
      <point x="294" y="132"/>
      <point x="245" y="58" type="qcurve"/>
      <point x="205" y="-6"/>
    </contour>
    <contour>
      <point x="83" y="514"/>
      <point x="83" y="264" type="qcurve" smooth="yes"/>
      <point x="83" y="13"/>
      <point x="209" y="13"/>
      <point x="209" y="264" type="qcurve" smooth="yes"/>
      <point x="209" y="514"/>
    </contour>
    <contour>
      <point x="69" y="625" type="line"/>
      <point x="119" y="625" type="line"/>
      <point x="119" y="578" type="line"/>
      <point x="69" y="578" type="line"/>
    </contour>
    <contour>
      <point x="164" y="625" type="line"/>
      <point x="214" y="625" type="line"/>
      <point x="214" y="578" type="line"/>
      <point x="164" y="578" type="line"/>
    </contour>
  </outline>
</glyph>
<glyph name="oslash" format="1">
  <advance width="331"/>
  <unicode hex="00F8"/>
  <outline>
    <contour>
      <point x="90" y="120" type="qcurve"/>
      <point x="170" y="505" type="line"/>
      <point x="160" y="514"/>
      <point x="146" y="514" type="qcurve" smooth="yes"/>
      <point x="83" y="514"/>
      <point x="83" y="264" type="qcurve" smooth="yes"/>
      <point x="83" y="172"/>
    </contour>
    <contour>
      <point x="191" y="466" type="qcurve"/>
      <point x="105" y="53" type="line"/>
      <point x="120" y="13"/>
      <point x="146" y="13" type="qcurve" smooth="yes"/>
      <point x="209" y="13"/>
      <point x="209" y="264" type="qcurve" smooth="yes"/>
      <point x="209" y="408"/>
    </contour>
    <contour>
      <point x="190" y="600" type="line"/>
      <point x="219" y="600" type="line"/>
      <point x="202" y="518" type="line"/>
      <point x="294" y="456"/>
      <point x="294" y="265" type="qcurve" smooth="yes"/>
      <point x="294" y="132"/>
      <point x="245" y="58" type="qcurve"/>
      <point x="205" y="-6"/>
      <point x="147" y="-6" type="qcurve" smooth="yes"/>
      <point x="122" y="-6"/>
      <point x="96" y="9" type="qcurve"/>
      <point x="84" y="-48" type="line"/>
      <point x="55" y="-48" type="line"/>
      <point x="71" y="30" type="line"/>
      <point x="-1" y="102"/>
      <point x="-1" y="265" type="qcurve" smooth="yes"/>
      <point x="-1" y="398"/>
      <point x="48" y="472" type="qcurve" smooth="yes"/>
      <point x="90" y="537"/>
      <point x="147" y="537" type="qcurve" smooth="yes"/>
      <point x="160" y="537"/>
      <point x="175" y="532" type="qcurve"/>
    </contour>
  </outline>
</glyph>
<glyph name="ucircumflex" format="1">
  <advance width="270"/>
  <unicode hex="00FB"/>
  <outline>
    <contour>
      <point x="221" y="510" type="line"/>
      <point x="221" y="66" type="line" smooth="yes"/>
      <point x="221" y="44"/>
      <point x="200" y="22" type="qcurve" smooth="yes"/>
      <point x="172" y="-9"/>
      <point x="119" y="-9" type="qcurve" smooth="yes"/>
      <point x="65" y="-9"/>
      <point x="34" y="22" type="qcurve" smooth="yes"/>
      <point x="11" y="45"/>
      <point x="11" y="66" type="qcurve" smooth="yes"/>
      <point x="11" y="510" type="line"/>
      <point x="-2" y="529" type="line"/>
      <point x="94" y="529" type="line"/>
      <point x="81" y="510" type="line"/>
      <point x="81" y="70" type="line" smooth="yes"/>
      <point x="81" y="54"/>
      <point x="96" y="38" type="qcurve" smooth="yes"/>
      <point x="111" y="23"/>
      <point x="159" y="23"/>
      <point x="173" y="36" type="qcurve"/>
      <point x="188" y="48"/>
      <point x="188" y="70" type="qcurve" smooth="yes"/>
      <point x="188" y="510" type="line"/>
      <point x="175" y="529" type="line"/>
      <point x="234" y="529" type="line"/>
    </contour>
    <contour>
      <point x="123" y="624" type="line"/>
      <point x="71" y="581" type="line"/>
      <point x="47" y="581" type="line"/>
      <point x="123" y="657" type="line"/>
      <point x="199" y="581" type="line"/>
      <point x="175" y="581" type="line"/>
    </contour>
  </outline>
</glyph>
<glyph name="thorn" format="1">
  <advance width="302"/>
  <unicode hex="00FE"/>
  <outline>
    <contour>
      <point x="106" y="181" type="qcurve" smooth="yes"/>
      <point x="75" y="181" type="line"/>
      <point x="75" y="18" type="line"/>
      <point x="87" y="0" type="line"/>
      <point x="0" y="0" type="line"/>
      <point x="12" y="18" type="line"/>
      <point x="12" y="511" type="line"/>
      <point x="0" y="529" type="line"/>
      <point x="73" y="529" type="line"/>
      <point x="73" y="397" type="line"/>
      <point x="99" y="397" type="line" smooth="yes"/>
      <point x="159" y="397"/>
      <point x="200" y="369" type="qcurve"/>
      <point x="240" y="340"/>
      <point x="240" y="297" type="qcurve" smooth="yes"/>
      <point x="240" y="256"/>
      <point x="207" y="221" type="qcurve" smooth="yes"/>
      <point x="168" y="181"/>
    </contour>
    <contour>
      <point x="75" y="377" type="line"/>
      <point x="75" y="203" type="line"/>
      <point x="97" y="203" type="line" smooth="yes"/>
      <point x="126" y="203"/>
      <point x="148" y="230" type="qcurve" smooth="yes"/>
      <point x="170" y="258"/>
      <point x="170" y="304" type="qcurve" smooth="yes"/>
      <point x="170" y="337"/>
      <point x="148" y="356" type="qcurve"/>
      <point x="127" y="377"/>
      <point x="96" y="377" type="qcurve" smooth="yes"/>
    </contour>
  </outline>
</glyph>
<glyph name="ydieresis" format="1">
  <advance width="264"/>
  <unicode hex="00FF"/>
  <outline>
    <contour>
      <point x="223" y="509" type="line"/>
      <point x="159" y="319" type="line"/>
      <point x="159" y="20" type="line"/>
      <point x="172" y="1" type="line"/>
      <point x="76" y="1" type="line"/>
      <point x="89" y="20" type="line"/>
      <point x="89" y="273" type="line"/>
      <point x="12" y="509" type="line"/>
      <point x="-2" y="529" type="line"/>
      <point x="98" y="529" type="line"/>
      <point x="92" y="510" type="line"/>
      <point x="143" y="356" type="line"/>
      <point x="194" y="510" type="line"/>
      <point x="189" y="529" type="line"/>
      <point x="237" y="529" type="line"/>
    </contour>
    <contour>
      <point x="54" y="625" type="line"/>
      <point x="104" y="625" type="line"/>
      <point x="104" y="578" type="line"/>
      <point x="54" y="578" type="line"/>
    </contour>
    <contour>
      <point x="149" y="625" type="line"/>
      <point x="199" y="625" type="line"/>
      <point x="199" y="578" type="line"/>
      <point x="149" y="578" type="line"/>
    </contour>
  </outline>
</glyph>
<glyph name="OE" format="1">
  <advance width="475"/>
  <unicode hex="0152"/>
  <outline>
    <contour>
      <point x="87" y="298" type="qcurve" smooth="yes"/>
      <point x="87" y="12"/>
      <point x="155" y="12" type="qcurve" smooth="yes"/>
      <point x="224" y="12"/>
      <point x="224" y="298" type="qcurve" smooth="yes"/>
      <point x="224" y="583"/>
      <point x="155" y="583" type="qcurve" smooth="yes"/>
      <point x="87" y="583"/>
    </contour>
    <contour>
      <point x="156" y="606" type="qcurve" smooth="yes"/>
      <point x="202" y="606"/>
      <point x="240" y="562" type="qcurve"/>
      <point x="240" y="599" type="line"/>
      <point x="417" y="599" type="line"/>
      <point x="426" y="565" type="line"/>
      <point x="386" y="578" type="line"/>
      <point x="312" y="578" type="line"/>
      <point x="312" y="431" type="line"/>
      <point x="378" y="431" type="line"/>
      <point x="405" y="438" type="line"/>
      <point x="405" y="403" type="line"/>
      <point x="377" y="410" type="line"/>
      <point x="312" y="410" type="line"/>
      <point x="312" y="22" type="line"/>
      <point x="403" y="22" type="line"/>
      <point x="444" y="34" type="line"/>
      <point x="434" y="0" type="line"/>
      <point x="240" y="0" type="line"/>
      <point x="240" y="37" type="line"/>
      <point x="202" y="-8"/>
      <point x="156" y="-8" type="qcurve" smooth="yes"/>
      <point x="95" y="-8"/>
      <point x="52" y="65" type="qcurve"/>
      <point x="0" y="150"/>
      <point x="0" y="448"/>
      <point x="52" y="533" type="qcurve"/>
      <point x="95" y="606"/>
    </contour>
  </outline>
</glyph>
<glyph name="oe" format="1">
  <advance width="463"/>
  <unicode hex="0153"/>
  <outline>
    <contour>
      <point x="83" y="514"/>
      <point x="83" y="264" type="qcurve" smooth="yes"/>
      <point x="83" y="13"/>
      <point x="209" y="13"/>
      <point x="209" y="264" type="qcurve" smooth="yes"/>
      <point x="209" y="514"/>
    </contour>
    <contour>
      <point x="430" y="0" type="line"/>
      <point x="233" y="0" type="line"/>
      <point x="246" y="19" type="line"/>
      <point x="246" y="59" type="line"/>
      <point x="204" y="-6"/>
      <point x="90" y="-6"/>
      <point x="48" y="58" type="qcurve" smooth="yes"/>
      <point x="-1" y="134"/>
      <point x="-1" y="265" type="qcurve" smooth="yes"/>
      <point x="-1" y="398"/>
      <point x="48" y="472" type="qcurve" smooth="yes"/>
      <point x="90" y="537"/>
      <point x="204" y="537"/>
      <point x="246" y="471" type="qcurve"/>
      <point x="246" y="510" type="line"/>
      <point x="233" y="529" type="line"/>
      <point x="414" y="529" type="line"/>
      <point x="424" y="497" type="line"/>
      <point x="384" y="508" type="line"/>
      <point x="316" y="508" type="line"/>
      <point x="316" y="380" type="line"/>
      <point x="376" y="380" type="line"/>
      <point x="403" y="386" type="line"/>
      <point x="403" y="353" type="line"/>
      <point x="376" y="359" type="line"/>
      <point x="316" y="359" type="line"/>
      <point x="316" y="21" type="line"/>
      <point x="400" y="21" type="line"/>
      <point x="441" y="32" type="line"/>
    </contour>
  </outline>
</glyph>
<glyph name="florin" format="1">
  <advance width="387"/>
  <unicode hex="0192"/>
  <outline>
    <contour>
      <point x="234" y="501" type="qcurve" smooth="yes"/>
      <point x="238" y="525"/>
      <point x="260" y="542" type="qcurve"/>
      <point x="284" y="558"/>
      <point x="307" y="558" type="qcurve" smooth="yes"/>
      <point x="326" y="558"/>
      <point x="349" y="549" type="qcurve"/>
      <point x="350" y="558"/>
      <point x="357" y="593" type="qcurve"/>
      <point x="344" y="593"/>
      <point x="334" y="594" type="qcurve" smooth="yes"/>
      <point x="325" y="595"/>
      <point x="312" y="595" type="qcurve" smooth="yes"/>
      <point x="224" y="594"/>
      <point x="186" y="532" type="qcurve" smooth="yes"/>
      <point x="169" y="505"/>
      <point x="164" y="472" type="qcurve" smooth="yes"/>
      <point x="160" y="439"/>
      <point x="149" y="366" type="qcurve"/>
      <point x="88" y="366" type="line"/>
      <point x="83" y="329" type="line"/>
      <point x="143" y="329" type="line"/>
      <point x="120" y="171" type="line" smooth="yes"/>
      <point x="101" y="40"/>
      <point x="98" y="18" type="qcurve" smooth="yes"/>
      <point x="89" y="-39"/>
      <point x="77" y="-62" type="qcurve"/>
      <point x="55" y="-98"/>
      <point x="6" y="-105" type="qcurve"/>
      <point x="0" y="-135" type="line"/>
      <point x="41" y="-114"/>
      <point x="75" y="-88" type="qcurve"/>
      <point x="152" y="-32"/>
      <point x="160" y="18" type="qcurve" smooth="yes"/>
      <point x="183" y="171" type="line" smooth="yes"/>
      <point x="185" y="184"/>
      <point x="200" y="290"/>
      <point x="206" y="329" type="qcurve"/>
      <point x="314" y="329" type="line"/>
      <point x="320" y="366" type="line"/>
      <point x="212" y="366" type="line"/>
      <point x="214" y="377"/>
      <point x="228" y="467"/>
    </contour>
  </outline>
</glyph>
<glyph name="quoteleft" format="1">
  <advance width="137"/>
  <unicode hex="2018"/>
  <outline>
    <contour>
      <point x="105" y="434" type="line"/>
      <point x="36" y="434" type="line"/>
      <point x="36" y="511" type="line" smooth="yes"/>
      <point x="36" y="541"/>
      <point x="51" y="568" type="qcurve" smooth="yes"/>
      <point x="67" y="599"/>
      <point x="92" y="599" type="qcurve"/>
      <point x="92" y="592" type="line"/>
      <point x="76" y="576"/>
      <point x="76" y="543" type="qcurve" smooth="yes"/>
      <point x="76" y="511"/>
      <point x="95" y="511" type="qcurve" smooth="yes"/>
      <point x="105" y="511" type="line"/>
    </contour>
  </outline>
</glyph>
<glyph name="quoteright" format="1">
  <advance width="137"/>
  <unicode hex="2019"/>
  <outline>
    <contour>
      <point x="20" y="599" type="line"/>
      <point x="89" y="599" type="line"/>
      <point x="89" y="522" type="line" smooth="yes"/>
      <point x="89" y="492"/>
      <point x="74" y="465" type="qcurve" smooth="yes"/>
      <point x="58" y="434"/>
      <point x="33" y="434" type="qcurve"/>
      <point x="33" y="441" type="line"/>
      <point x="48" y="457"/>
      <point x="48" y="490" type="qcurve" smooth="yes"/>
      <point x="48" y="522"/>
      <point x="29" y="522" type="qcurve" smooth="yes"/>
      <point x="20" y="522" type="line"/>
    </contour>
  </outline>
</glyph>
<glyph name="quotesinglbase" format="1">
  <advance width="223"/>
  <unicode hex="201A"/>
  <outline>
    <contour>
      <point x="120" y="77" type="line"/>
      <point x="189" y="77" type="line"/>
      <point x="189" y="0" type="line" smooth="yes"/>
      <point x="189" y="-30"/>
      <point x="173" y="-58" type="qcurve" smooth="yes"/>
      <point x="156" y="-87"/>
      <point x="133" y="-87" type="qcurve"/>
      <point x="133" y="-81" type="line"/>
      <point x="149" y="-65"/>
      <point x="149" y="-31" type="qcurve" smooth="yes"/>
      <point x="149" y="0"/>
      <point x="130" y="0" type="qcurve" smooth="yes"/>
      <point x="120" y="0" type="line"/>
    </contour>
  </outline>
</glyph>
<glyph name="quotedblleft" format="1">
  <advance width="223"/>
  <unicode hex="201C"/>
  <outline>
    <contour>
      <point x="198" y="434" type="line"/>
      <point x="129" y="434" type="line"/>
      <point x="129" y="512" type="line" smooth="yes"/>
      <point x="129" y="541"/>
      <point x="144" y="568" type="qcurve" smooth="yes"/>
      <point x="160" y="599"/>
      <point x="185" y="599" type="qcurve"/>
      <point x="185" y="592" type="line"/>
      <point x="169" y="577"/>
      <point x="169" y="543" type="qcurve" smooth="yes"/>
      <point x="169" y="512"/>
      <point x="188" y="512" type="qcurve" smooth="yes"/>
      <point x="198" y="512" type="line"/>
    </contour>
    <contour>
      <point x="98" y="434" type="line"/>
      <point x="29" y="434" type="line"/>
      <point x="29" y="512" type="line" smooth="yes"/>
      <point x="29" y="541"/>
      <point x="44" y="568" type="qcurve" smooth="yes"/>
      <point x="60" y="599"/>
      <point x="85" y="599" type="qcurve"/>
      <point x="85" y="592" type="line"/>
      <point x="69" y="577"/>
      <point x="69" y="543" type="qcurve" smooth="yes"/>
      <point x="69" y="512"/>
      <point x="88" y="512" type="qcurve" smooth="yes"/>
      <point x="98" y="512" type="line"/>
    </contour>
  </outline>
</glyph>
<glyph name="quotedblright" format="1">
  <advance width="223"/>
  <unicode hex="201D"/>
  <outline>
    <contour>
      <point x="20" y="599" type="line"/>
      <point x="89" y="599" type="line"/>
      <point x="89" y="522" type="line" smooth="yes"/>
      <point x="89" y="492"/>
      <point x="74" y="465" type="qcurve" smooth="yes"/>
      <point x="58" y="434"/>
      <point x="33" y="434" type="qcurve"/>
      <point x="33" y="441" type="line"/>
      <point x="48" y="457"/>
      <point x="48" y="490" type="qcurve" smooth="yes"/>
      <point x="48" y="522"/>
      <point x="29" y="522" type="qcurve" smooth="yes"/>
      <point x="20" y="522" type="line"/>
    </contour>
    <contour>
      <point x="120" y="599" type="line"/>
      <point x="189" y="599" type="line"/>
      <point x="189" y="522" type="line" smooth="yes"/>
      <point x="189" y="492"/>
      <point x="174" y="465" type="qcurve" smooth="yes"/>
      <point x="158" y="434"/>
      <point x="133" y="434" type="qcurve"/>
      <point x="133" y="441" type="line"/>
      <point x="148" y="457"/>
      <point x="148" y="490" type="qcurve" smooth="yes"/>
      <point x="148" y="522"/>
      <point x="129" y="522" type="qcurve" smooth="yes"/>
      <point x="120" y="522" type="line"/>
    </contour>
  </outline>
</glyph>
<glyph name="perthousand" format="1">
  <advance width="741"/>
  <unicode hex="2030"/>
  <outline>
    <contour>
      <point x="52" y="426" type="qcurve" smooth="yes"/>
      <point x="52" y="595"/>
      <point x="92" y="595" type="qcurve" smooth="yes"/>
      <point x="133" y="595"/>
      <point x="133" y="426" type="qcurve" smooth="yes"/>
      <point x="133" y="256"/>
      <point x="92" y="256" type="qcurve" smooth="yes"/>
      <point x="52" y="256"/>
    </contour>
    <contour>
      <point x="129" y="609"/>
      <point x="154" y="566" type="qcurve"/>
      <point x="185" y="516"/>
      <point x="185" y="426" type="qcurve" smooth="yes"/>
      <point x="185" y="337"/>
      <point x="154" y="287" type="qcurve"/>
      <point x="129" y="244"/>
      <point x="57" y="244"/>
      <point x="31" y="288" type="qcurve"/>
      <point x="0" y="337"/>
      <point x="0" y="426" type="qcurve" smooth="yes"/>
      <point x="0" y="516"/>
      <point x="31" y="565" type="qcurve"/>
      <point x="57" y="609"/>
    </contour>
    <contour>
      <point x="333" y="632" type="line"/>
      <point x="365" y="632" type="line"/>
      <point x="142" y="-43" type="line"/>
      <point x="111" y="-43" type="line"/>
    </contour>
    <contour>
      <point x="349" y="170" type="qcurve" smooth="yes"/>
      <point x="349" y="340"/>
      <point x="389" y="340" type="qcurve" smooth="yes"/>
      <point x="430" y="340"/>
      <point x="430" y="170" type="qcurve" smooth="yes"/>
      <point x="430" y="1"/>
      <point x="389" y="1" type="qcurve" smooth="yes"/>
      <point x="349" y="1"/>
    </contour>
    <contour>
      <point x="389" y="353" type="qcurve" smooth="yes"/>
      <point x="426" y="353"/>
      <point x="451" y="310" type="qcurve"/>
      <point x="482" y="261"/>
      <point x="482" y="81"/>
      <point x="451" y="32" type="qcurve"/>
      <point x="426" y="-11"/>
      <point x="389" y="-11" type="qcurve" smooth="yes"/>
      <point x="353" y="-11"/>
      <point x="328" y="32" type="qcurve"/>
      <point x="297" y="82"/>
      <point x="297" y="260"/>
      <point x="327" y="310" type="qcurve"/>
      <point x="354" y="353"/>
    </contour>
    <contour>
      <point x="561" y="170" type="qcurve" smooth="yes"/>
      <point x="561" y="340"/>
      <point x="601" y="340" type="qcurve" smooth="yes"/>
      <point x="642" y="340"/>
      <point x="642" y="170" type="qcurve" smooth="yes"/>
      <point x="642" y="1"/>
      <point x="601" y="1" type="qcurve" smooth="yes"/>
      <point x="561" y="1"/>
    </contour>
    <contour>
      <point x="602" y="353" type="qcurve" smooth="yes"/>
      <point x="638" y="353"/>
      <point x="663" y="310" type="qcurve"/>
      <point x="694" y="261"/>
      <point x="694" y="81"/>
      <point x="663" y="32" type="qcurve"/>
      <point x="638" y="-11"/>
      <point x="602" y="-11" type="qcurve" smooth="yes"/>
      <point x="565" y="-11"/>
      <point x="540" y="32" type="qcurve"/>
      <point x="509" y="82"/>
      <point x="509" y="171" type="qcurve" smooth="yes"/>
      <point x="509" y="261"/>
      <point x="540" y="310" type="qcurve"/>
      <point x="565" y="353"/>
    </contour>
  </outline>
</glyph>
<glyph name="trademark" format="1">
  <advance width="257"/>
  <unicode hex="2122"/>
  <outline>
    <contour>
      <point x="67" y="391" type="line"/>
      <point x="72" y="383" type="line"/>
      <point x="36" y="383" type="line"/>
      <point x="41" y="391" type="line"/>
      <point x="41" y="591" type="line"/>
      <point x="26" y="591" type="line"/>
      <point x="11" y="587" type="line"/>
      <point x="14" y="599" type="line"/>
      <point x="94" y="599" type="line"/>
      <point x="97" y="587" type="line"/>
      <point x="82" y="591" type="line"/>
      <point x="67" y="591" type="line"/>
    </contour>
    <contour>
      <point x="169" y="441" type="line"/>
      <point x="207" y="599" type="line"/>
      <point x="238" y="599" type="line"/>
      <point x="234" y="592" type="line"/>
      <point x="234" y="391" type="line"/>
      <point x="238" y="383" type="line"/>
      <point x="204" y="383" type="line"/>
      <point x="208" y="391" type="line"/>
      <point x="208" y="557" type="line"/>
      <point x="167" y="383" type="line"/>
      <point x="153" y="383" type="line"/>
      <point x="119" y="556" type="line"/>
      <point x="119" y="391" type="line"/>
      <point x="123" y="383" type="line"/>
      <point x="105" y="383" type="line"/>
      <point x="109" y="391" type="line"/>
      <point x="109" y="592" type="line"/>
      <point x="105" y="599" type="line"/>
      <point x="138" y="599" type="line"/>
    </contour>
  </outline>
</glyph>
